<svg width="32" height="32" viewBox="0 0 32 32" fill="none" xmlns="http://www.w3.org/2000/svg">
<path d="M26.2411 7.70304H29.7593L22.0376 15.7181L30.4002 24.3984H26.8848L18.5361 15.7296V15.7037L20.2813 13.8922L26.2411 7.70304Z" fill="#41AC48"/>
<path d="M18.4223 20.5046H17.6011V21.3571H18.4223V20.5046Z" fill="#41AC48"/>
<path d="M19.457 20.5046H18.6357V21.3571H19.457V20.5046Z" fill="#41AC48"/>
<path d="M19.457 21.6048H18.6357V22.4573H19.457V21.6048Z" fill="#41AC48"/>
<path d="M18.4223 21.6048H17.6011V22.4573H18.4223V21.6048Z" fill="#41AC48"/>
<path d="M14.3299 16.4035H13.9248V16.824H14.3299V16.4035Z" fill="#41AC48"/>
<path d="M14.8431 16.4035H14.438V16.824H14.8431V16.4035Z" fill="#41AC48"/>
<path d="M14.8431 16.9478H14.438V17.3683H14.8431V16.9478Z" fill="#41AC48"/>
<path d="M14.3299 16.9478H13.9248V17.3683H14.3299V16.9478Z" fill="#41AC48"/>
<path d="M14.3299 19.0042H13.9248V19.4246H14.3299V19.0042Z" fill="#41AC48"/>
<path d="M14.8431 19.0042H14.438V19.4246H14.8431V19.0042Z" fill="#41AC48"/>
<path d="M14.8431 19.5485H14.438V19.969H14.8431V19.5485Z" fill="#41AC48"/>
<path d="M14.3299 19.5485H13.9248V19.969H14.3299V19.5485Z" fill="#41AC48"/>
<path d="M14.3299 21.5299H13.9248V21.9504H14.3299V21.5299Z" fill="#41AC48"/>
<path d="M14.8431 21.5299H14.438V21.9504H14.8431V21.5299Z" fill="#41AC48"/>
<path d="M14.8431 22.0742H14.438V22.4947H14.8431V22.0742Z" fill="#41AC48"/>
<path d="M14.3299 22.0742H13.9248V22.4947H14.3299V22.0742Z" fill="#41AC48"/>
<path d="M14.3299 14.2378H13.9248V14.6582H14.3299V14.2378Z" fill="#41AC48"/>
<path d="M14.8431 14.2378H14.438V14.6582H14.8431V14.2378Z" fill="#41AC48"/>
<path d="M14.8431 14.7821H14.438V15.2026H14.8431V14.7821Z" fill="#41AC48"/>
<path d="M14.3299 14.7821H13.9248V15.2026H14.3299V14.7821Z" fill="#41AC48"/>
<path d="M12.6453 16.3546H12.2402V16.775H12.6453V16.3546Z" fill="#41AC48"/>
<path d="M13.159 16.3546H12.7539V16.775H13.159V16.3546Z" fill="#41AC48"/>
<path d="M13.159 16.8989H12.7539V17.3194H13.159V16.8989Z" fill="#41AC48"/>
<path d="M12.6453 16.8989H12.2402V17.3194H12.6453V16.8989Z" fill="#41AC48"/>
<path d="M12.6453 18.9552H12.2402V19.3757H12.6453V18.9552Z" fill="#41AC48"/>
<path d="M13.159 18.9552H12.7539V19.3757H13.159V18.9552Z" fill="#41AC48"/>
<path d="M13.159 19.4995H12.7539V19.92H13.159V19.4995Z" fill="#41AC48"/>
<path d="M12.6453 19.4995H12.2402V19.92H12.6453V19.4995Z" fill="#41AC48"/>
<path d="M12.6453 21.481H12.2402V21.9014H12.6453V21.481Z" fill="#41AC48"/>
<path d="M13.159 21.481H12.7539V21.9014H13.159V21.481Z" fill="#41AC48"/>
<path d="M13.159 22.0253H12.7539V22.4458H13.159V22.0253Z" fill="#41AC48"/>
<path d="M12.6453 22.0253H12.2402V22.4458H12.6453V22.0253Z" fill="#41AC48"/>
<path d="M12.6453 14.1888H12.2402V14.6093H12.6453V14.1888Z" fill="#41AC48"/>
<path d="M13.159 14.1888H12.7539V14.6093H13.159V14.1888Z" fill="#41AC48"/>
<path d="M13.159 14.7331H12.7539V15.1536H13.159V14.7331Z" fill="#41AC48"/>
<path d="M12.6453 14.7331H12.2402V15.1536H12.6453V14.7331Z" fill="#41AC48"/>
<path d="M14.2518 12.1008H13.8467V12.5213H14.2518V12.1008Z" fill="#41AC48"/>
<path d="M14.7654 12.1008H14.3604V12.5213H14.7654V12.1008Z" fill="#41AC48"/>
<path d="M14.7654 12.6451H14.3604V13.0656H14.7654V12.6451Z" fill="#41AC48"/>
<path d="M14.2518 12.6451H13.8467V13.0656H14.2518V12.6451Z" fill="#41AC48"/>
<path d="M12.5677 12.0518H12.1626V12.4723H12.5677V12.0518Z" fill="#41AC48"/>
<path d="M13.0784 12.0518H12.6733V12.4723H13.0784V12.0518Z" fill="#41AC48"/>
<path d="M13.0784 12.5962H12.6733V13.0166H13.0784V12.5962Z" fill="#41AC48"/>
<path d="M12.5677 12.5962H12.1626V13.0166H12.5677V12.5962Z" fill="#41AC48"/>
<path d="M1.6001 10.2086V7.68H17.6315V7.70304H18.5361V15.7037L18.5194 15.7152L16.0473 18.287V10.2086H10.8782V24.3984H8.31732V10.2086H1.6001Z" fill="#41AC48"/>
</svg>
