<svg xmlns="http://www.w3.org/2000/svg" version="1.1" xmlns:xlink="http://www.w3.org/1999/xlink" width="50" height="50" x="0" y="0" viewBox="0 0 512.255 512.255" style="enable-background:new 0 0 512 512" xml:space="preserve" class=""><g><path fill="#FFFFFF" d="M226.346 78.643h285.907v394.16H226.346z" opacity="0" data-original="#fee45a" class=""></path><path fill="#FFFFFF" d="M471.52 122.583H258.664v55.604c5.847-2.381 12.069-3.652 18.417-3.652H512.246v-51.952z" opacity="0" data-original="#fee45a" class=""></path><path fill="#FEF0AE" d="M512.247 115.083H294.162c-4.143 0-7.5 3.357-7.5 7.5s3.357 7.5 7.5 7.5h218.085z" opacity="1" data-original="#fef0ae" class=""></path><path fill="#FEDBA6" d="M294.165 167.393v114.57h-152.9V78.643l108.68-31.69 41.418 29.682a6.71 6.71 0 0 1 2.802 5.455z" opacity="1" data-original="#fedba6" class=""></path><path fill="#FBC56D" d="M205.725 217.803v64.16h-64.46V78.643h64.46z" opacity="1" data-original="#fbc56d" class=""></path><path fill="#D77F4A" d="m249.945 46.953-44.22 31.69h-64.46l42.601-30.53a6.197 6.197 0 0 1 3.611-1.16z" opacity="1" data-original="#d77f4a"></path><path fill="#FEDBA6" d="M172.235 252.783v37.22H44.875v-118.15l90.53-26.4 33.143 23.757a8.832 8.832 0 0 1 3.687 7.178z" opacity="1" data-original="#fedba6" class=""></path><path fill="#FBC56D" d="M98.575 288.123v1.88h-53.7v-118.15h53.7v98.06z" opacity="1" data-original="#fbc56d" class=""></path><path fill="#37BE75" d="m512.245 167.393.01 305.41h-512V272.529h132.381c15.22 0 29.73-6.368 40.011-17.567l64.277-70.012c10.27-11.188 24.791-17.557 40.011-17.557h153.817z" opacity="1" data-original="#97da7b" class=""></path><path fill="#FEDBA6" d="M471.555 353.563v5.67h-202.65V205.927c0-3.43 1.653-6.649 4.44-8.647l54.16-38.827 144.05 42.01z" opacity="1" data-original="#fedba6" class=""></path><path fill="#FBC56D" d="M386.115 200.463h85.44V354.233h-85.44v-8.74z" opacity="1" data-original="#fbc56d" class=""></path><path fill="#D77F4A" d="M327.505 158.453h82.836c1.693 0 3.344.531 4.72 1.517l56.494 40.493h-85.44z" opacity="1" data-original="#d77f4a"></path><path fill="#FEDBA6" d="M217.655 316.233h-.11l-58.61 44.122v112.448h195.17V357.632c0-1.832-.841-3.551-2.258-4.617z" opacity="1" data-original="#fedba6" class=""></path><path fill="#FBC56D" d="M354.105 357.246v115.557h-77.95v-114.57l-54.66-42 130.651 37.006c1.23.926 1.959 2.417 1.959 4.007z" opacity="1" data-original="#fbc56d" class=""></path><path fill="#D77F4A" d="M354.105 354.934v3.299h-77.95l-48.79-34.96-5.87-4.21-3.84-2.83h84.047c.834 0 1.647.261 2.326.747l48.394 34.677a4.03 4.03 0 0 1 1.683 3.277z" opacity="1" data-original="#d77f4a"></path><path fill="#99D5B9" d="M489.574 348.033a35.147 35.147 0 0 0 2.767-15.552c-.857-17.658-15.028-32.145-32.665-33.356-20.562-1.412-37.68 14.849-37.68 35.108 0 4.897 1.001 9.56 2.808 13.796.794 1.861.318 3.99-1.113 5.419-8.914 8.898-14.311 21.318-13.901 35.001.76 25.376 21.816 45.864 47.203 45.967 26.281.107 47.619-21.165 47.619-47.421 0-13.163-5.371-25.065-14.032-33.656-1.396-1.383-1.777-3.499-1.006-5.306z" opacity="1" data-original="#99d5b9" class=""></path><path fill="#7ACAA6" d="M432.704 390.471c-.41-13.683 4.987-26.103 13.901-35.001 1.432-1.429 1.907-3.559 1.113-5.419a35.08 35.08 0 0 1-2.808-13.796c0-16.481 11.33-30.315 26.625-34.142a34.607 34.607 0 0 0-11.859-2.989c-20.562-1.412-37.68 14.849-37.68 35.108 0 4.897 1.001 9.56 2.808 13.796.794 1.861.318 3.99-1.113 5.419-8.914 8.898-14.311 21.318-13.901 35.001.76 25.376 21.816 45.864 47.203 45.967a47.757 47.757 0 0 0 7.678-.595c-18.079-6.295-31.367-23.289-31.967-43.349z" opacity="1" data-original="#7acaa6"></path><path fill="#57BE92" d="M421.069 347.998a35.157 35.157 0 0 0 2.753-15.518c-.857-17.658-15.028-32.145-32.665-33.356-20.562-1.412-37.68 14.849-37.68 35.108 0 4.889.998 9.545 2.8 13.776.798 1.873.32 4.016-1.12 5.454-8.905 8.897-14.295 21.31-13.886 34.986.76 25.376 21.816 45.864 47.203 45.967 26.281.107 47.619-21.165 47.619-47.421 0-13.15-5.36-25.041-14.006-33.629-1.411-1.4-1.797-3.538-1.018-5.367z" opacity="1" data-original="#57be92" class=""></path><path fill="#22B27F" d="M364.044 391.228c-.41-13.676 4.981-26.089 13.886-34.986 1.44-1.439 1.918-3.582 1.12-5.454a35.075 35.075 0 0 1-2.8-13.777c0-16.903 11.919-31.013 27.809-34.407a34.596 34.596 0 0 0-12.903-3.479c-20.562-1.412-37.68 14.849-37.68 35.108 0 4.889.998 9.545 2.8 13.776.798 1.873.32 4.016-1.12 5.455-8.905 8.897-14.295 21.31-13.886 34.986.76 25.376 21.816 45.864 47.203 45.967a47.83 47.83 0 0 0 6.079-.376c-17.33-6.686-29.923-23.298-30.508-42.813z" opacity="1" data-original="#22b27f"></path><path fill="#99D5B9" d="M23.178 348.842c-2.26-4.946-3.409-10.506-3.125-16.361.857-17.658 15.028-32.145 32.665-33.356 20.562-1.412 37.68 14.849 37.68 35.108a35.061 35.061 0 0 1-3.167 14.608c-.603 1.32-.33 2.87.719 3.872 9.362 8.943 15.075 21.672 14.654 35.736-.76 25.376-21.816 45.864-47.203 45.967-26.281.107-47.619-21.165-47.619-47.421 0-13.482 5.634-25.642 14.668-34.275a3.393 3.393 0 0 0 .728-3.878z" opacity="1" data-original="#99d5b9" class=""></path><path fill="#7ACAA6" d="M29.26 389.261c0-13.482 5.634-25.642 14.668-34.275a3.393 3.393 0 0 0 .727-3.879c-2.26-4.946-3.409-10.506-3.125-16.361.778-16.042 12.546-29.463 27.917-32.695-5.062-2.244-10.748-3.337-16.729-2.926-17.637 1.211-31.808 15.698-32.665 33.356-.284 5.855.865 11.415 3.125 16.361a3.393 3.393 0 0 1-.727 3.879c-9.034 8.633-14.668 20.792-14.668 34.275 0 26.256 21.338 47.528 47.619 47.421a47.055 47.055 0 0 0 5.661-.378c-18.515-6.459-31.803-24.062-31.803-44.778z" opacity="1" data-original="#7acaa6"></path><path fill="#FCCD7F" d="M239.507 464.362h-43.929a2.483 2.483 0 0 1-2.483-2.483V433.45c0-13.502 10.945-24.447 24.447-24.447 13.502 0 24.447 10.945 24.447 24.447v28.429a2.482 2.482 0 0 1-2.482 2.483z" opacity="1" data-original="#fccd7f"></path><path fill="#FBC56D" d="M223.7 380.219h-12.315a6.937 6.937 0 0 1-6.937-6.937v-12.315a6.937 6.937 0 0 1 6.937-6.937H223.7a6.937 6.937 0 0 1 6.937 6.937v12.315a6.937 6.937 0 0 1-6.937 6.937z" opacity="1" data-original="#fbc56d" class=""></path><path fill="#D77F4A" d="M84.266 145.453a7.94 7.94 0 0 0-4.624 1.486l-34.767 24.915h53.7l36.83-26.4H84.266z" opacity="1" data-original="#d77f4a"></path><path fill="#FBC56D" d="M343.267 247.692h-28.274a4.903 4.903 0 0 1-4.903-4.903v-28.274a4.903 4.903 0 0 1 4.903-4.903h28.274a4.903 4.903 0 0 1 4.903 4.903v28.274a4.903 4.903 0 0 1-4.903 4.903zM262.77 126.69h-23.769a4.903 4.903 0 0 1-4.903-4.903V98.018a4.903 4.903 0 0 1 4.903-4.903h23.769a4.903 4.903 0 0 1 4.903 4.903v23.769a4.903 4.903 0 0 1-4.903 4.903z" opacity="1" data-original="#fbc56d" class=""></path><path fill="#57BE92" d="M91.392 347.239a35.171 35.171 0 0 1-2.44-14.758c.857-17.658 15.028-32.145 32.665-33.356 20.562-1.412 37.68 14.849 37.68 35.108 0 4.593-.88 8.979-2.481 13.002-.915 2.3-.469 4.918 1.258 6.692 8.632 8.862 13.832 21.083 13.429 34.523-.76 25.376-21.816 45.864-47.203 45.967-26.281.107-47.619-21.165-47.619-47.421 0-12.854 5.122-24.506 13.428-33.046 1.734-1.782 2.202-4.402 1.283-6.711z" opacity="1" data-original="#57be92" class=""></path><path fill="#22B27F" d="M100.872 387.393c0-12.854 5.121-24.506 13.428-33.046 1.733-1.782 2.202-4.402 1.282-6.711a35.171 35.171 0 0 1-2.44-14.758c.704-14.504 10.394-26.862 23.607-31.488a35.226 35.226 0 0 0-15.132-2.266c-17.637 1.211-31.809 15.698-32.666 33.356a35.171 35.171 0 0 0 2.44 14.758c.919 2.31.451 4.929-1.282 6.711-8.306 8.54-13.428 20.191-13.428 33.046 0 26.256 21.338 47.528 47.619 47.421a46.865 46.865 0 0 0 11.114-1.387c-19.929-5.614-34.542-23.912-34.542-45.636z" opacity="1" data-original="#22b27f"></path><path d="M504.612 457.699H464.69v-16.308c26.747-3.67 47.422-26.657 47.422-54.396a54.856 54.856 0 0 0-14.978-37.676 42.857 42.857 0 0 0 2.75-15.087c0-15.552-8.363-29.184-20.824-36.649v-95.095c0-3.684-1.788-7.162-4.778-9.303l-25.527-18.295h55.852c4.143 0 7.5-3.357 7.5-7.5s-3.357-7.5-7.5-7.5h-76.781l-10.506-7.529a7.5 7.5 0 0 0-4.369-1.404H327.51a7.5 7.5 0 0 0-4.369 1.404l-10.506 7.529h-10.974v-29.808h202.944c4.143 0 7.5-3.357 7.5-7.5s-3.357-7.5-7.5-7.5H301.662V88.616h202.944c4.143 0 7.5-3.357 7.5-7.5s-3.357-7.5-7.5-7.5h-204.89a7.5 7.5 0 0 0-1.185-1.069l-44.217-31.689a7.5 7.5 0 0 0-4.369-1.404h-64.459a7.5 7.5 0 0 0-4.369 1.404L136.9 72.547a7.5 7.5 0 0 0-3.131 6.096v59.315H81.711a7.5 7.5 0 0 0-4.369 1.404L40.51 165.758a7.5 7.5 0 0 0-3.131 6.096v90.559H7.5c-4.142 0-7.5 3.357-7.5 7.5s3.358 7.5 7.5 7.5h128.222c16.851 0 33.039-7.13 44.413-19.563l62.46-68.271a45.306 45.306 0 0 1 33.346-14.688h15.765l-24.876 17.828a13.028 13.028 0 0 0-5.429 10.568v55.483c0 4.143 3.357 7.5 7.5 7.5s7.5-3.357 7.5-7.5v-54.457l51.11-36.629 51.109 36.63v88.431c-18.706 4.532-32.644 21.408-32.644 41.487 0 1.237.057 2.472.165 3.702l-38.789-27.799a7.5 7.5 0 0 0-4.369-1.404h-26.582v-17.997c0-4.143-3.357-7.5-7.5-7.5s-7.5 3.357-7.5 7.5v17.997h-43.858a7.5 7.5 0 0 0-4.369 1.404l-47.57 34.092a42.805 42.805 0 0 0 1.194-9.994c0-23.542-19.152-42.694-42.694-42.694-13.995 0-26.438 6.769-34.229 17.205-7.84-10.593-20.369-17.205-34.291-17.205-23.542 0-42.694 19.152-42.694 42.694 0 5.161.941 10.286 2.75 15.087A54.854 54.854 0 0 0 .662 386.996c0 27.739 20.675 50.726 47.422 54.396V457.7H7.5c-4.142 0-7.5 3.357-7.5 7.5s3.358 7.5 7.5 7.5h497.112c4.143 0 7.5-3.357 7.5-7.5s-3.358-7.501-7.5-7.501zM187.896 54.452h38.709l-23.287 16.689h-38.709zM84.122 152.957h27.943l-15.902 11.396H68.22zm21.95 109.455v-16.653c0-4.143-3.358-7.5-7.5-7.5s-7.5 3.357-7.5 7.5v16.653H52.379v-83.059h38.692v34.442c0 4.143 3.358 7.5 7.5 7.5s7.5-3.357 7.5-7.5v-38.09l29.332-21.021 29.331 21.021v76.141c-8.084 6.762-18.368 10.565-29.013 10.565h-29.649zm125.456-82.959-18.301 20.004v-60.894c0-4.143-3.358-7.5-7.5-7.5s-7.5 3.357-7.5 7.5v77.289l-18.492 20.212v-64.211a7.5 7.5 0 0 0-3.131-6.096l-27.836-19.95V86.142h49.459v20.46c0 4.143 3.358 7.5 7.5 7.5s7.5-3.357 7.5-7.5V82.494l36.717-26.315 36.717 26.315v77.396H275.94c-16.849.001-33.036 7.131-44.412 19.563zm-99.924 261.939a54.49 54.49 0 0 0 19.83-6.788v23.095h-19.83zm68.992 15.47V433.45c0-9.344 7.603-16.946 16.947-16.946 9.345 0 16.947 7.603 16.947 16.946v23.412zm83.056.837v-91.964h54.396a54.813 54.813 0 0 0-4.3 21.26c0 14.227 5.439 27.207 14.345 36.972v33.732zm79.44-22.123a54.47 54.47 0 0 0 18.077 5.815v16.308h-18.077zm33.077 5.816c10.027-1.376 19.195-5.464 26.745-11.504A54.132 54.132 0 0 0 449.69 441.4v16.3h-53.521zm87.046-84.652a39.902 39.902 0 0 1 13.896 30.256c0 19.449-13.983 35.685-32.422 39.205v-7.218c0-4.143-3.357-7.5-7.5-7.5s-7.5 3.357-7.5 7.5v7.227a39.31 39.31 0 0 1-16.401-7.25c6.474-9.012 10.302-20.046 10.302-31.965a54.857 54.857 0 0 0-14.978-37.676 42.849 42.849 0 0 0 2.75-15.087c0-2.661-.257-5.262-.725-7.79 3.432-11.787 14.13-19.903 26.551-19.903 15.271 0 27.694 12.423 27.694 27.693 0 4.625-1.162 9.2-3.36 13.233a7.506 7.506 0 0 0 1.693 9.275zm-26.025-65.201c-13.922 0-26.45 6.612-34.291 17.205-6.858-9.186-17.325-15.521-29.279-16.909v-83.873h70.44V292.1a42.753 42.753 0 0 0-6.87-.561zM350.849 165.957h59.69l37.68 27.005h-59.69zm37.82 140.582c15.271 0 27.694 12.423 27.694 27.693a27.71 27.71 0 0 1-3.36 13.232 7.501 7.501 0 0 0 1.691 9.274 39.902 39.902 0 0 1 13.896 30.256c0 19.449-13.983 35.685-32.422 39.205v-33.106l11.301-9.954a7.5 7.5 0 0 0-9.914-11.256l-1.387 1.221v-8.162c0-4.143-3.357-7.5-7.5-7.5s-7.5 3.357-7.5 7.5v61.257c-18.439-3.521-32.422-19.757-32.422-39.205a39.903 39.903 0 0 1 13.896-30.256 7.498 7.498 0 0 0 1.691-9.273 27.727 27.727 0 0 1-3.359-13.233c.002-15.27 12.425-27.693 27.695-27.693zm-50.416 44.197h-59.692l-37.68-27.005h59.691zm-120.71-25.278 51.109 36.63v95.611H249.49v-24.25c0-17.615-14.332-31.946-31.947-31.946s-31.947 14.331-31.947 31.946v24.25h-19.163v-34.886a7.73 7.73 0 0 0-.045-.81c7.888-9.511 12.638-21.715 12.638-35.008a54.814 54.814 0 0 0-7.873-28.291zm-93.439-18.92c15.271 0 27.694 12.424 27.694 27.694 0 4.626-1.162 9.202-3.36 13.233a7.5 7.5 0 0 0 1.691 9.273 39.9 39.9 0 0 1 13.897 30.256c0 19.449-13.983 35.685-32.422 39.205v-61.257c0-4.143-3.358-7.5-7.5-7.5s-7.5 3.357-7.5 7.5v8.161l-1.386-1.221a7.5 7.5 0 1 0-9.915 11.256l11.301 9.955v33.106c-18.439-3.521-32.422-19.757-32.422-39.205a39.903 39.903 0 0 1 13.896-30.256 7.499 7.499 0 0 0 1.691-9.273 27.722 27.722 0 0 1-3.36-13.233c0-15.27 12.424-27.694 27.695-27.694zM15.662 386.995a39.903 39.903 0 0 1 13.896-30.256 7.499 7.499 0 0 0 1.691-9.273 27.722 27.722 0 0 1-3.36-13.233c0-15.271 12.424-27.694 27.694-27.694 12.422 0 23.119 8.116 26.551 19.904a42.743 42.743 0 0 0-.725 7.79c0 5.161.941 10.286 2.75 15.087a54.854 54.854 0 0 0-14.978 37.676c0 11.918 3.828 22.953 10.303 31.965a39.315 39.315 0 0 1-16.401 7.249v-7.227c0-4.143-3.358-7.5-7.5-7.5s-7.5 3.357-7.5 7.5v7.218c-18.438-3.521-32.421-19.757-32.421-39.206zM63.083 441.4a54.15 54.15 0 0 0 26.775-11.512c7.55 6.04 16.718 10.129 26.745 11.505v16.308h-53.52z" fill="#000000" opacity="1" data-original="#000000" class=""></path><path d="M211.385 387.719H223.7c7.96 0 14.437-6.477 14.437-14.437v-12.314c0-7.96-6.476-14.437-14.437-14.437h-12.315c-7.96 0-14.437 6.477-14.437 14.437v12.314c.001 7.96 6.477 14.437 14.437 14.437zm.564-26.187h11.188v11.188h-11.188zM314.993 255.192h28.274c6.839 0 12.402-5.563 12.402-12.402v-28.274c0-6.839-5.563-12.402-12.402-12.402h-28.274c-6.839 0-12.403 5.563-12.403 12.402v28.274c-.001 6.838 5.564 12.402 12.403 12.402zm2.596-38.079h23.08v23.079h-23.08zM262.77 85.616h-23.769c-6.839 0-12.403 5.563-12.403 12.402v23.77c0 6.839 5.564 12.403 12.403 12.403h23.769c6.839 0 12.403-5.564 12.403-12.403v-23.77c0-6.839-5.564-12.402-12.403-12.402zm-2.597 33.575h-18.575v-18.575h18.575z" fill="#000000" opacity="1" data-original="#000000" class=""></path></g></svg>