<svg xmlns="http://www.w3.org/2000/svg" version="1.1" xmlns:xlink="http://www.w3.org/1999/xlink" width="50" height="50" x="0" y="0" viewBox="0 0 512 512" style="enable-background:new 0 0 512 512" xml:space="preserve" class=""><g><g fill="#57A4FF"><path d="M256 16C149.96 16 64 101.96 64 208s192 288 192 288 192-181.96 192-288S362.04 16 256 16zm0 328a136 136 0 1 1 136-136 136 136 0 0 1-136 136z" fill="#37BE75" opacity="1" data-original="#57a4ff" class=""></path><path d="M240 216h32v48h-32z" fill="#37BE75" opacity="1" data-original="#57a4ff" class=""></path></g><g fill="#004FAC"><path d="M256 64c-79.4 0-144 64.6-144 144s64.6 144 144 144 144-64.6 144-144S335.4 64 256 64zm0 272a128 128 0 1 1 128-128 128.144 128.144 0 0 1-128 128z" fill="#002E6D" opacity="1" data-original="#004fac" class=""></path><path d="M256 8C145.72 8 56 97.72 56 208c0 45.87 32.91 109.4 97.8 188.83a1274.075 1274.075 0 0 0 96.7 104.98 8 8 0 0 0 11 0 1274.075 1274.075 0 0 0 96.7-104.98C423.09 317.4 456 253.87 456 208 456 97.72 366.28 8 256 8zm0 476.85C224.82 454.24 72 299.54 72 208c0-101.46 82.54-184 184-184s184 82.54 184 184c0 91.5-152.82 246.24-184 276.85z" fill="#002E6D" opacity="1" data-original="#004fac" class=""></path><path d="m324.24 169.22-64-40a7.964 7.964 0 0 0-8.48 0l-64 40A7.987 7.987 0 0 0 184 176v88a8 8 0 0 0 8 8h128a8 8 0 0 0 8-8v-88a7.987 7.987 0 0 0-3.76-6.78zM264 256h-16v-32h16zm48 0h-32v-40a8 8 0 0 0-8-8h-32a8 8 0 0 0-8 8v40h-32v-75.57l56-35 56 35z" fill="#002E6D" opacity="1" data-original="#004fac" class=""></path></g></g></svg>