<svg xmlns="http://www.w3.org/2000/svg" version="1.1" xmlns:xlink="http://www.w3.org/1999/xlink" width="50" height="50" x="0" y="0" viewBox="0 0 60 60" style="enable-background:new 0 0 512 512" xml:space="preserve" class=""><g><path d="M30.01 55c.29 0 .56-.13.75-.34.64-.74 15.64-18.12 15.64-33.27C46.4 12.35 39.05 5 30.01 5s-16.4 7.35-16.4 16.39c0 15.15 15 32.53 15.64 33.27.18.21.47.34.76.34zm-8.85-33.61c0-4.87 3.97-8.84 8.85-8.84s8.85 3.97 8.85 8.84c0 4.88-3.97 8.85-8.85 8.85s-8.85-3.97-8.85-8.85z" fill="#37BE75" opacity="1" data-original="#000000" class=""></path></g></svg>
