<svg xmlns="http://www.w3.org/2000/svg" version="1.1" xmlns:xlink="http://www.w3.org/1999/xlink" width="50" height="50" x="0" y="0" viewBox="0 0 512 512" style="enable-background:new 0 0 512 512" xml:space="preserve"><g><path d="M256 0c-37.1-.1-73.8 8-107.5 23.6-10.1 4.6-14.5 16.6-9.8 26.6 1 2.1 2.3 4.1 4 5.8 6 6 15.2 7.5 22.8 3.9C193.8 46.8 224.7 40 256 40c119 .2 215.9 97.1 216 216 0 119.1-96.9 216-216 216S40 375.1 40 256c0-30.6 6.5-60.9 19.1-88.8 3.5-7.6 2-16.7-4-22.7-7.8-7.8-20.5-7.8-28.4 0-1.7 1.7-3.1 3.7-4.1 5.9C7.7 183.7 0 219.6 0 256c0 141.4 114.6 256 256 256s256-114.6 256-256C511.8 114.7 397.3.2 256 0z" fill="#000000" opacity="1" data-original="#000000"></path><path d="m378.4 242.2-.6-.6-107.7-107.8c-7.8-7.8-20.5-7.8-28.3 0s-7.8 20.5 0 28.3l73.9 73.8H148.1c-11 0-20 9-20 20s9 20 20 20h167.6l-73.9 73.8c-7.8 7.8-7.8 20.5 0 28.3s20.5 7.8 28.3 0l107.7-107.7.6-.6c7.4-7.6 7.4-19.8 0-27.5z" fill="#000000" opacity="1" data-original="#000000"></path></g></svg>