<?xml version="1.0" encoding="UTF-8" standalone="no"?>
<svg
   id="Слой_1"
   data-name="Слой 1"
   viewBox="0 0 103.8 97.820417"
   version="1.1"
   sodipodi:docname="1.svg"
   width="103.8"
   height="97.820419"
   inkscape:export-filename="лорлаорй-1-03.png"
   inkscape:export-xdpi="96"
   inkscape:export-ydpi="96"
   inkscape:version="1.2.2 (732a01da63, 2022-12-09)"
   xmlns:inkscape="http://www.inkscape.org/namespaces/inkscape"
   xmlns:sodipodi="http://sodipodi.sourceforge.net/DTD/sodipodi-0.dtd"
   xmlns="http://www.w3.org/2000/svg"
   xmlns:svg="http://www.w3.org/2000/svg"
   xmlns:rdf="http://www.w3.org/1999/02/22-rdf-syntax-ns#"
   xmlns:cc="http://creativecommons.org/ns#"
   xmlns:dc="http://purl.org/dc/elements/1.1/">
  <sodipodi:namedview
     id="namedview615"
     pagecolor="#ffffff"
     bordercolor="#000000"
     borderopacity="0.25"
     inkscape:showpageshadow="2"
     inkscape:pageopacity="0.0"
     inkscape:pagecheckerboard="0"
     inkscape:deskcolor="#d1d1d1"
     showgrid="false"
     inkscape:zoom="2.6079499"
     inkscape:cx="54.64062"
     inkscape:cy="46.78004"
     inkscape:window-width="1366"
     inkscape:window-height="697"
     inkscape:window-x="-8"
     inkscape:window-y="-8"
     inkscape:window-maximized="1"
     inkscape:current-layer="Слой_1" />
  <defs
     id="defs480">
    <style
       id="style478">.cls-1{fill:#41ac48;}.cls-2{fill:none;}</style>
  </defs>
  <title
     id="title482">лорлаорй-1</title>
  <path
     class="cls-1"
     d="M 3.9,83.24 V 73.78 H 0.29 v -2 h 9.38 v 2 H 6.06 v 9.46 z"
     id="path484" />
  <path
     class="cls-1"
     d="m 18.74,73.78 h -6.52 v 2.88 h 6.29 v 1.83 h -6.29 v 2.83 h 6.52 v 2 H 10.26 V 71.87 h 8.48 z"
     id="path486" />
  <path
     class="cls-1"
     d="m 25.65,71.86 a 4.45,4.45 0 0 1 2,0.44 3.33,3.33 0 0 1 1.35,1.14 5,5 0 0 1 0.68,1.56 3.27,3.27 0 0 1 0,1.7 5.19,5.19 0 0 1 -0.67,1.56 3.33,3.33 0 0 1 -1.35,1.14 4.5,4.5 0 0 1 -2,0.44 h -3.2 v 3.34 H 20.32 V 71.87 h 5.33 z m -3.2,2 v 4 h 3.2 a 2.16,2.16 0 0 0 1,-0.22 1.64,1.64 0 0 0 0.67,-0.57 2.7,2.7 0 0 0 0.33,-0.78 1.79,1.79 0 0 0 0,-0.86 2.7,2.7 0 0 0 -0.33,-0.78 1.64,1.64 0 0 0 -0.67,-0.57 2.16,2.16 0 0 0 -1,-0.22 z"
     id="path488" />
  <path
     class="cls-1"
     d="m 36.1,71.86 a 4.41,4.41 0 0 1 2,0.44 3.29,3.29 0 0 1 1.36,1.14 5.21,5.21 0 0 1 0.68,1.56 3.49,3.49 0 0 1 0,1.7 5.21,5.21 0 0 1 -0.68,1.56 3.2,3.2 0 0 1 -1.35,1.14 4.48,4.48 0 0 1 -2,0.44 h -3.22 v 3.34 H 30.76 V 71.87 h 5.34 z m -3.21,2 v 4 h 3.21 a 2.12,2.12 0 0 0 1,-0.22 1.52,1.52 0 0 0 0.67,-0.57 2.7,2.7 0 0 0 0.33,-0.78 1.79,1.79 0 0 0 0,-0.86 2.7,2.7 0 0 0 -0.33,-0.78 1.52,1.52 0 0 0 -0.67,-0.57 2.12,2.12 0 0 0 -1,-0.22 z"
     id="path490" />
  <path
     class="cls-1"
     d="m 48.64,71.89 h 1.76 v 11.37 h -2.17 v -7.71 l -6,7.69 v 0 H 40.85 V 71.87 h 2.16 v 7.07 z"
     id="path492" />
  <path
     class="cls-1"
     d="m 54.59,83.24 v -9.46 h -3.62 v -2 h 9.39 v 2 h -3.62 v 9.46 z"
     id="path494" />
  <path
     class="cls-1"
     d="m 66.17,71.66 a 6.28,6.28 0 0 1 2.07,0.33 5.12,5.12 0 0 1 1.63,0.91 5.53,5.53 0 0 1 1.14,1.32 6,6 0 0 1 0.69,1.6 6.38,6.38 0 0 1 0.21,1.74 7.06,7.06 0 0 1 -0.23,1.72 5.72,5.72 0 0 1 -0.67,1.57 5.44,5.44 0 0 1 -1.12,1.31 5,5 0 0 1 -1.62,0.88 7.12,7.12 0 0 1 -4.22,0 4.82,4.82 0 0 1 -1.62,-0.87 5,5 0 0 1 -1.14,-1.29 5.62,5.62 0 0 1 -0.68,-1.57 7,7 0 0 1 -0.21,-1.73 6.56,6.56 0 0 1 0.16,-1.47 7,7 0 0 1 0.47,-1.38 4.8,4.8 0 0 1 0.8,-1.21 5.69,5.69 0 0 1 1.11,-1 4.93,4.93 0 0 1 1.45,-0.65 6.33,6.33 0 0 1 1.78,-0.21 z m 0,1.93 a 4.1,4.1 0 0 0 -1.2,0.16 3,3 0 0 0 -0.95,0.46 3.76,3.76 0 0 0 -0.7,0.68 3.59,3.59 0 0 0 -0.5,0.84 4.6,4.6 0 0 0 -0.34,1.88 5.81,5.81 0 0 0 0.14,1.11 4.14,4.14 0 0 0 0.42,1 3.62,3.62 0 0 0 0.69,0.86 3.25,3.25 0 0 0 1,0.59 4.11,4.11 0 0 0 1.4,0.22 4.43,4.43 0 0 0 1.18,-0.15 2.85,2.85 0 0 0 0.93,-0.43 3.45,3.45 0 0 0 1.18,-1.44 4.93,4.93 0 0 0 0.27,-0.88 4.08,4.08 0 0 0 0.1,-0.93 4.85,4.85 0 0 0 -0.11,-1.14 4,4 0 0 0 -0.4,-1.08 3.59,3.59 0 0 0 -0.71,-0.92 3,3 0 0 0 -1,-0.62 3.9,3.9 0 0 0 -1.4,-0.25 z"
     id="path496" />
  <path
     class="cls-1"
     d="m 78.21,71.86 a 4.45,4.45 0 0 1 2,0.44 3.33,3.33 0 0 1 1.35,1.14 5,5 0 0 1 0.68,1.56 3.27,3.27 0 0 1 0,1.7 5.19,5.19 0 0 1 -0.67,1.56 3.29,3.29 0 0 1 -1.36,1.14 4.45,4.45 0 0 1 -2,0.44 h -3.2 v 3.34 H 72.88 V 71.87 h 5.33 z m -3.2,2 v 4 h 3.2 a 2.19,2.19 0 0 0 1,-0.22 1.64,1.64 0 0 0 0.67,-0.57 2.7,2.7 0 0 0 0.33,-0.78 2.08,2.08 0 0 0 0,-0.86 2.7,2.7 0 0 0 -0.33,-0.78 1.64,1.64 0 0 0 -0.67,-0.57 2.19,2.19 0 0 0 -1,-0.22 z"
     id="path498" />
  <path
     class="cls-1"
     d="m 90.75,71.89 h 1.76 v 11.37 h -2.17 v -7.71 l -6,7.69 v 0 H 82.99 V 71.87 h 2.17 v 7.07 z"
     id="path500" />
  <path
     class="cls-1"
     d="m 93.11,83.08 3.47,-3.91 a 4.44,4.44 0 0 1 -1.13,-0.4 3.19,3.19 0 0 1 -0.83,-0.61 3.15,3.15 0 0 1 -0.54,-0.77 3.82,3.82 0 0 1 -0.3,-0.88 4.76,4.76 0 0 1 -0.09,-0.94 3.84,3.84 0 0 1 0.27,-1.44 3.54,3.54 0 0 1 2.08,-2 5.21,5.21 0 0 1 1.77,-0.32 h 5.46 v 11.48 h -2.17 v -3.83 h -2.07 l -3.35,3.83 h -2.57 z m 8,-9.3 h -3.29 a 1.92,1.92 0 0 0 -1.46,0.54 1.93,1.93 0 0 0 0,2.59 1.89,1.89 0 0 0 1.46,0.54 h 3.29 z"
     id="path502" />
  <path
     class="cls-1"
     d="m 15.27,86.41 -5.06,5.44 5.48,5.75 v 0.13 H 13.04 L 8.27,92.68 v 5.05 H 6.12 V 86.35 h 2.15 v 4.8 l 4.32,-4.8 h 2.68 z"
     id="path504" />
  <path
     class="cls-1"
     d="m 21.48,86.12 a 6.34,6.34 0 0 1 2.08,0.33 4.87,4.87 0 0 1 1.62,0.9 5.93,5.93 0 0 1 1.84,2.93 7.27,7.27 0 0 1 0.21,1.74 7.49,7.49 0 0 1 -0.23,1.71 5.81,5.81 0 0 1 -0.68,1.58 5.18,5.18 0 0 1 -1.12,1.3 5,5 0 0 1 -1.62,0.88 6.44,6.44 0 0 1 -2.11,0.33 6.66,6.66 0 0 1 -2.1,-0.32 5,5 0 0 1 -2.78,-2.16 5.46,5.46 0 0 1 -0.68,-1.57 6.69,6.69 0 0 1 -0.22,-1.74 6.47,6.47 0 0 1 0.16,-1.46 7.24,7.24 0 0 1 0.47,-1.38 5.14,5.14 0 0 1 0.8,-1.22 5.79,5.79 0 0 1 1.12,-1 5.29,5.29 0 0 1 1.44,-0.65 6.78,6.78 0 0 1 1.8,-0.2 z m 0,1.93 a 4.2,4.2 0 0 0 -1.2,0.16 2.94,2.94 0 0 0 -0.94,0.46 3.52,3.52 0 0 0 -0.71,0.68 3.3,3.3 0 0 0 -0.49,0.83 3.81,3.81 0 0 0 -0.27,0.93 5.18,5.18 0 0 0 -0.08,1 5,5 0 0 0 0.15,1.1 4.34,4.34 0 0 0 0.41,1 3.26,3.26 0 0 0 0.7,0.86 3,3 0 0 0 1,0.59 4.15,4.15 0 0 0 1.4,0.23 4,4 0 0 0 1.18,-0.16 3.06,3.06 0 0 0 0.93,-0.42 3.58,3.58 0 0 0 0.7,-0.64 3.09,3.09 0 0 0 0.48,-0.8 5.73,5.73 0 0 0 0.28,-0.89 4.56,4.56 0 0 0 0.09,-0.92 A 4.8,4.8 0 0 0 25,90.92 4,4 0 0 0 24.6,89.83 3.5,3.5 0 0 0 23.9,88.92 3.35,3.35 0 0 0 22.84,88.29 3.86,3.86 0 0 0 21.48,88.05 Z"
     id="path506" />
  <path
     class="cls-1"
     d="M 39.86,97.73 H 37.8 V 89.31 L 34,94.39 h -0.41 l -3.73,-5.1 v 8.44 H 27.83 V 86.37 h 2.41 l 3.61,5 3.62,-5 h 2.39 z"
     id="path508" />
  <path
     class="cls-1"
     d="m 48.37,86.36 a 6.12,6.12 0 0 1 4.15,1.4 4.64,4.64 0 0 1 1.55,3.65 4.69,4.69 0 0 1 -1.55,3.67 6.12,6.12 0 0 1 -4.15,1.41 v 1.24 h -2.19 v -1.24 a 6.1,6.1 0 0 1 -4.15,-1.41 4.67,4.67 0 0 1 -1.55,-3.69 4.6,4.6 0 0 1 1.55,-3.64 6.15,6.15 0 0 1 4.15,-1.39 v -1.08 h 2.19 z m -5.64,5.06 a 2.87,2.87 0 0 0 0.92,2.25 3.74,3.74 0 0 0 2.53,0.85 v -6.17 a 3.74,3.74 0 0 0 -2.53,0.83 2.86,2.86 0 0 0 -0.92,2.24 z m 9.08,0 A 2.85,2.85 0 0 0 50.9,89.18 3.72,3.72 0 0 0 48.37,88.35 v 6.2 a 4.54,4.54 0 0 0 1.85,-0.4 2.6,2.6 0 0 0 1.18,-1.06 3.1,3.1 0 0 0 0.41,-1.67 z"
     id="path510" />
  <path
     class="cls-1"
     d="m 60.46,86.12 a 6.34,6.34 0 0 1 2.08,0.33 5,5 0 0 1 1.63,0.9 5.78,5.78 0 0 1 1.13,1.33 5.57,5.57 0 0 1 0.7,1.6 6.38,6.38 0 0 1 0.21,1.74 7.49,7.49 0 0 1 -0.23,1.71 5.52,5.52 0 0 1 -0.68,1.58 4.94,4.94 0 0 1 -2.74,2.18 6.38,6.38 0 0 1 -2.1,0.33 6.72,6.72 0 0 1 -2.11,-0.32 5.37,5.37 0 0 1 -1.63,-0.87 5.58,5.58 0 0 1 -1.13,-1.29 5.46,5.46 0 0 1 -0.68,-1.57 6.69,6.69 0 0 1 -0.22,-1.74 7.1,7.1 0 0 1 0.16,-1.46 7.24,7.24 0 0 1 0.47,-1.38 5.18,5.18 0 0 1 0.81,-1.22 5.73,5.73 0 0 1 1.11,-1 5.36,5.36 0 0 1 1.45,-0.65 6.7,6.7 0 0 1 1.77,-0.2 z m 0,1.93 a 4.2,4.2 0 0 0 -1.2,0.16 2.94,2.94 0 0 0 -0.94,0.46 3.52,3.52 0 0 0 -0.71,0.68 3.3,3.3 0 0 0 -0.49,0.83 3.81,3.81 0 0 0 -0.27,0.93 4.44,4.44 0 0 0 -0.07,1 4.48,4.48 0 0 0 0.14,1.1 4,4 0 0 0 0.42,1 3.23,3.23 0 0 0 0.69,0.86 3,3 0 0 0 1,0.59 4.15,4.15 0 0 0 1.4,0.23 4,4 0 0 0 1.18,-0.16 3.12,3.12 0 0 0 0.94,-0.42 3.83,3.83 0 0 0 0.69,-0.64 3.09,3.09 0 0 0 0.48,-0.8 5.73,5.73 0 0 0 0.28,-0.89 4.56,4.56 0 0 0 0.09,-0.92 4.79,4.79 0 0 0 -0.1,-1.14 4,4 0 0 0 -0.41,-1.09 3.5,3.5 0 0 0 -0.7,-0.91 3.14,3.14 0 0 0 -1.06,-0.63 3.86,3.86 0 0 0 -1.36,-0.24 z"
     id="path512" />
  <path
     class="cls-1"
     d="m 72.51,86.31 a 4.54,4.54 0 0 1 2,0.44 3.29,3.29 0 0 1 1.36,1.14 5.32,5.32 0 0 1 0.68,1.56 3.53,3.53 0 0 1 0,1.71 5.15,5.15 0 0 1 -0.68,1.55 3.22,3.22 0 0 1 -1.35,1.15 4.62,4.62 0 0 1 -2,0.44 h -3.21 v 3.33 H 67.18 V 86.32 h 5.34 z m -3.21,2 v 4 h 3.21 a 2.25,2.25 0 0 0 1,-0.22 1.66,1.66 0 0 0 0.67,-0.57 2.64,2.64 0 0 0 0.33,-0.79 1.75,1.75 0 0 0 0,-0.85 2.48,2.48 0 0 0 -0.33,-0.78 1.6,1.6 0 0 0 -0.67,-0.58 2.25,2.25 0 0 0 -1,-0.21 z"
     id="path514" />
  <path
     class="cls-1"
     d="m 80.28,97.7 v -9.46 h -3.62 v -1.95 h 9.39 v 1.95 h -3.62 v 9.46 z"
     id="path516" />
  <path
     class="cls-1"
     d="m 96.28,97.73 -1,-2.16 h -6 l -1,2.16 h -2.32 l 5.12,-11.41 h 2.35 l 5.1,11.41 z m -1.82,-4.18 -2.12,-4.85 -2.12,4.85 z"
     id="path518" />
  <line
     class="cls-2"
     x1="61.039997"
     y1="27.950001"
     x2="60.990002"
     y2="27.91"
     id="line520" />
  <polygon
     class="cls-1"
     points="112.45,80.4 112.45,80.31 118.74,74.02 140.22,52.53 152.9,52.53 125.07,80.36 155.21,110.5 142.54,110.5 "
     id="polygon522"
     transform="translate(-51.41,-52.45)" />
  <rect
     class="cls-1"
     x="57.670002"
     y="44.530003"
     width="2.96"
     height="2.96"
     id="rect524" />
  <rect
     class="cls-1"
     x="61.399998"
     y="44.530003"
     width="2.96"
     height="2.96"
     id="rect526" />
  <rect
     class="cls-1"
     x="61.399998"
     y="48.350002"
     width="2.96"
     height="2.96"
     id="rect528" />
  <rect
     class="cls-1"
     x="57.670002"
     y="48.350002"
     width="2.96"
     height="2.96"
     id="rect530" />
  <rect
     class="cls-1"
     x="44.420002"
     y="30.289997"
     width="1.46"
     height="1.46"
     id="rect532" />
  <rect
     class="cls-1"
     x="46.27"
     y="30.289997"
     width="1.46"
     height="1.46"
     id="rect534" />
  <rect
     class="cls-1"
     x="46.27"
     y="32.179996"
     width="1.46"
     height="1.46"
     id="rect536" />
  <rect
     class="cls-1"
     x="44.420002"
     y="32.179996"
     width="1.46"
     height="1.46"
     id="rect538" />
  <rect
     class="cls-1"
     x="44.420002"
     y="39.319996"
     width="1.46"
     height="1.46"
     id="rect540" />
  <rect
     class="cls-1"
     x="46.27"
     y="39.319996"
     width="1.46"
     height="1.46"
     id="rect542" />
  <rect
     class="cls-1"
     x="46.27"
     y="41.210003"
     width="1.46"
     height="1.46"
     id="rect544" />
  <rect
     class="cls-1"
     x="44.420002"
     y="41.210003"
     width="1.46"
     height="1.46"
     id="rect546" />
  <rect
     class="cls-1"
     x="44.420002"
     y="48.09"
     width="1.46"
     height="1.46"
     id="rect548" />
  <rect
     class="cls-1"
     x="46.27"
     y="48.09"
     width="1.46"
     height="1.46"
     id="rect550" />
  <rect
     class="cls-1"
     x="46.27"
     y="49.98"
     width="1.46"
     height="1.46"
     id="rect552" />
  <rect
     class="cls-1"
     x="44.420002"
     y="49.98"
     width="1.46"
     height="1.46"
     id="rect554" />
  <rect
     class="cls-1"
     x="44.420002"
     y="22.77"
     width="1.46"
     height="1.46"
     id="rect556" />
  <rect
     class="cls-1"
     x="46.27"
     y="22.77"
     width="1.46"
     height="1.46"
     id="rect558" />
  <rect
     class="cls-1"
     x="46.27"
     y="24.66"
     width="1.46"
     height="1.46"
     id="rect560" />
  <rect
     class="cls-1"
     x="44.420002"
     y="24.66"
     width="1.46"
     height="1.46"
     id="rect562" />
  <rect
     class="cls-1"
     x="38.350002"
     y="30.119999"
     width="1.46"
     height="1.46"
     id="rect564" />
  <rect
     class="cls-1"
     x="40.200001"
     y="30.119999"
     width="1.46"
     height="1.46"
     id="rect566" />
  <rect
     class="cls-1"
     x="40.200001"
     y="32.009998"
     width="1.46"
     height="1.46"
     id="rect568" />
  <rect
     class="cls-1"
     x="38.350002"
     y="32.009998"
     width="1.46"
     height="1.46"
     id="rect570" />
  <rect
     class="cls-1"
     x="38.350002"
     y="39.149998"
     width="1.46"
     height="1.46"
     id="rect572" />
  <rect
     class="cls-1"
     x="40.200001"
     y="39.149998"
     width="1.46"
     height="1.46"
     id="rect574" />
  <rect
     class="cls-1"
     x="40.200001"
     y="41.039997"
     width="1.46"
     height="1.46"
     id="rect576" />
  <rect
     class="cls-1"
     x="38.350002"
     y="41.039997"
     width="1.46"
     height="1.46"
     id="rect578" />
  <rect
     class="cls-1"
     x="38.350002"
     y="47.920002"
     width="1.46"
     height="1.46"
     id="rect580" />
  <rect
     class="cls-1"
     x="40.200001"
     y="47.920002"
     width="1.46"
     height="1.46"
     id="rect582" />
  <rect
     class="cls-1"
     x="40.200001"
     y="49.810001"
     width="1.46"
     height="1.46"
     id="rect584" />
  <rect
     class="cls-1"
     x="38.350002"
     y="49.810001"
     width="1.46"
     height="1.46"
     id="rect586" />
  <rect
     class="cls-1"
     x="38.350002"
     y="22.600002"
     width="1.46"
     height="1.46"
     id="rect588" />
  <rect
     class="cls-1"
     x="40.200001"
     y="22.600002"
     width="1.46"
     height="1.46"
     id="rect590" />
  <rect
     class="cls-1"
     x="40.200001"
     y="24.490002"
     width="1.46"
     height="1.46"
     id="rect592" />
  <rect
     class="cls-1"
     x="38.350002"
     y="24.490002"
     width="1.46"
     height="1.46"
     id="rect594" />
  <rect
     class="cls-1"
     x="44.140003"
     y="15.350003"
     width="1.46"
     height="1.46"
     id="rect596" />
  <rect
     class="cls-1"
     x="45.990002"
     y="15.350003"
     width="1.46"
     height="1.46"
     id="rect598" />
  <rect
     class="cls-1"
     x="45.990002"
     y="17.240002"
     width="1.46"
     height="1.46"
     id="rect600" />
  <rect
     class="cls-1"
     x="44.140003"
     y="17.240002"
     width="1.46"
     height="1.46"
     id="rect602" />
  <rect
     class="cls-1"
     x="38.070004"
     y="15.179997"
     width="1.46"
     height="1.46"
     id="rect604" />
  <rect
     class="cls-1"
     x="39.91"
     y="15.179997"
     width="1.46"
     height="1.46"
     id="rect606" />
  <rect
     class="cls-1"
     x="39.91"
     y="17.069996"
     width="1.46"
     height="1.46"
     id="rect608" />
  <rect
     class="cls-1"
     x="38.070004"
     y="17.069996"
     width="1.46"
     height="1.46"
     id="rect610" />
  <polygon
     class="cls-1"
     points="112.39,80.35 103.48,89.28 103.48,61.23 84.85,61.23 84.85,110.5 75.62,110.5 75.62,61.23 51.41,61.23 51.41,52.45 109.19,52.45 109.19,52.53 112.45,52.53 112.45,80.31 "
     id="polygon612"
     transform="translate(-51.41,-52.45)" />
  <metadata
     id="metadata838">
    <rdf:RDF>
      <cc:Work
         rdf:about="">
        <dc:title>лорлаорй-1</dc:title>
      </cc:Work>
    </rdf:RDF>
  </metadata>
</svg>
