<?xml version="1.0" encoding="UTF-8" standalone="no"?>
<svg
   id="Слой_1"
   data-name="Слой 1"
   viewBox="0 0 240.15912 58.049997"
   version="1.1"
   sodipodi:docname="2.svg"
   width="240.15913"
   height="58.049999"
   inkscape:export-filename="лорлаорй-1-03.png"
   inkscape:export-xdpi="96"
   inkscape:export-ydpi="96"
   inkscape:version="1.2.2 (732a01da63, 2022-12-09)"
   xmlns:inkscape="http://www.inkscape.org/namespaces/inkscape"
   xmlns:sodipodi="http://sodipodi.sourceforge.net/DTD/sodipodi-0.dtd"
   xmlns="http://www.w3.org/2000/svg"
   xmlns:svg="http://www.w3.org/2000/svg"
   xmlns:rdf="http://www.w3.org/1999/02/22-rdf-syntax-ns#"
   xmlns:cc="http://creativecommons.org/ns#"
   xmlns:dc="http://purl.org/dc/elements/1.1/">
  <sodipodi:namedview
     id="namedview615"
     pagecolor="#ffffff"
     bordercolor="#000000"
     borderopacity="0.25"
     inkscape:showpageshadow="2"
     inkscape:pageopacity="0.0"
     inkscape:pagecheckerboard="0"
     inkscape:deskcolor="#d1d1d1"
     showgrid="false"
     inkscape:zoom="2.6079499"
     inkscape:cx="54.64062"
     inkscape:cy="46.78004"
     inkscape:window-width="1920"
     inkscape:window-height="1009"
     inkscape:window-x="-8"
     inkscape:window-y="-8"
     inkscape:window-maximized="1"
     inkscape:current-layer="Слой_1" />
  <defs
     id="defs480">
    <style
       id="style478">.cls-1{fill:#41ac48;}.cls-2{fill:none;}</style>
  </defs>
  <title
     id="title482">лорлаорй-1</title>
  <path
     class="cls-1"
     d="M 114.71631,27.998049 V 17.141771 h -4.55718 v -2.295195 h 11.84113 v 2.295195 h -4.55718 v 10.856278 z"
     id="path484"
     style="stroke-width:1.20364" />
  <path
     class="cls-1"
     d="m 133.45004,17.141771 h -8.23068 v 3.305082 h 7.94037 v 2.100105 h -7.94037 v 3.247702 h 8.23068 v 2.295197 H 122.74508 V 14.94986 h 10.70496 z"
     id="path486"
     style="stroke-width:1.20364" />
  <path
     class="cls-1"
     d="m 142.1731,14.938383 a 5.6175961,5.1068111 0 0 1 2.52476,0.504944 4.2037293,3.8215013 0 0 1 1.70423,1.308261 6.3119057,5.73799 0 0 1 0.85841,1.790253 4.1279861,3.7526455 0 0 1 0,1.950917 6.551758,5.9560337 0 0 1 -0.84578,1.790252 4.2037293,3.8215013 0 0 1 -1.70423,1.308262 5.6807149,5.164191 0 0 1 -2.52477,0.504943 h -4.03961 v 3.832978 h -2.70148 V 14.94986 h 6.72847 z m -4.03962,2.295196 v 4.590392 h 4.03962 a 2.7267432,2.4788117 0 0 0 1.26238,-0.252471 2.0703052,1.8820607 0 0 0 0.8458,-0.654131 3.4084289,3.0985146 0 0 0 0.41658,-0.895127 2.2596622,2.0542004 0 0 0 0,-0.986934 3.4084289,3.0985146 0 0 0 -0.41658,-0.895127 2.0703052,1.8820607 0 0 0 -0.8458,-0.65413 2.7267432,2.4788117 0 0 0 -1.26238,-0.252472 z"
     id="path488"
     style="stroke-width:1.20364" />
  <path
     class="cls-1"
     d="m 155.36501,14.938383 a 5.5671006,5.0609072 0 0 1 2.52473,0.504944 4.1532339,3.7755974 0 0 1 1.71684,1.308261 6.5770058,5.9789856 0 0 1 0.85842,1.790253 4.4057101,4.005117 0 0 1 0,1.950917 6.5770058,5.9789856 0 0 1 -0.85842,1.790252 4.0396196,3.6723136 0 0 1 -1.70421,1.308262 5.6554672,5.141239 0 0 1 -2.52473,0.504943 h -4.06491 v 3.832978 h -2.68886 V 14.94986 h 6.74114 z m -4.05228,2.295196 v 4.590392 h 4.05228 a 2.6762477,2.4329078 0 0 0 1.26239,-0.252471 1.9188193,1.744349 0 0 0 0.84575,-0.654131 3.4084289,3.0985146 0 0 0 0.41659,-0.895127 2.2596622,2.0542004 0 0 0 0,-0.986934 3.4084289,3.0985146 0 0 0 -0.41659,-0.895127 1.9188193,1.744349 0 0 0 -0.84575,-0.65413 2.6762477,2.4329078 0 0 0 -1.26239,-0.252472 z"
     id="path490"
     style="stroke-width:1.20364" />
  <path
     class="cls-1"
     d="m 171.19527,14.972811 h 2.22177 V 28.021 h -2.73935 v -8.84798 l -7.57431,8.825029 v 0 h -1.74209 V 14.94986 h 2.72677 v 8.113517 z"
     id="path492"
     style="stroke-width:1.20364" />
  <path
     class="cls-1"
     d="M 178.70642,27.998049 V 17.141771 h -4.5698 v -2.295195 h 11.85374 v 2.295195 h -4.56983 v 10.856278 z"
     id="path494"
     style="stroke-width:1.20364" />
  <path
     class="cls-1"
     d="m 193.32481,14.708863 a 7.9277532,7.2069154 0 0 1 2.61314,0.378708 6.4633914,5.8757018 0 0 1 2.05764,1.044314 6.9809675,6.3462169 0 0 1 1.43914,1.514829 7.5742865,6.885588 0 0 1 0.87105,1.836158 8.0539913,7.3216753 0 0 1 0.26507,1.99682 8.9124106,8.1020421 0 0 1 -0.29032,1.973869 7.2208198,6.5642606 0 0 1 -0.8458,1.801728 6.8673532,6.2429332 0 0 1 -1.41389,1.503353 6.3119057,5.73799 0 0 1 -2.04504,1.009887 8.9881534,8.1708978 0 0 1 -5.32723,0 6.084677,5.5314224 0 0 1 -2.04507,-0.99841 6.3119057,5.73799 0 0 1 -1.4391,-1.480402 7.0945817,6.4495008 0 0 1 -0.85843,-1.801729 8.836668,8.0331864 0 0 1 -0.26511,-1.985344 8.28122,7.5282429 0 0 1 0.20197,-1.686969 8.836668,8.0331864 0 0 1 0.59334,-1.583686 6.0594293,5.5084704 0 0 1 1.00989,-1.388593 7.1829486,6.5298327 0 0 1 1.40124,-1.147598 6.223539,5.6576582 0 0 1 1.83044,-0.745938 7.9908725,7.2642954 0 0 1 2.24707,-0.240997 z m 0,2.214864 a 5.1757623,4.7051518 0 0 0 -1.51488,0.183617 3.7871433,3.442794 0 0 0 -1.19927,0.527894 4.7465529,4.3149685 0 0 0 -0.88367,0.780367 4.5319482,4.1198768 0 0 0 -0.63117,0.963983 5.8069531,5.2789508 0 0 0 -0.42921,2.157484 7.3344341,6.6675444 0 0 0 0.17672,1.273834 5.2262577,4.7510558 0 0 0 0.53023,1.147598 4.5698198,4.1543047 0 0 0 0.87104,0.986934 4.1027385,3.7296935 0 0 0 1.26234,0.677083 5.1883863,4.7166278 0 0 0 1.76737,0.252471 5.5923484,5.0838592 0 0 0 1.4896,-0.17214 3.5977863,3.2706543 0 0 0 1.17404,-0.493467 4.3552147,3.9592131 0 0 0 1.48959,-1.652541 6.223539,5.6576582 0 0 0 0.34084,-1.009886 5.150515,4.6821998 0 0 0 0.12623,-1.067266 6.1225482,5.5658503 0 0 0 -0.13886,-1.308262 5.0495246,4.590392 0 0 0 -0.50494,-1.239406 4.5319482,4.1198768 0 0 0 -0.89629,-1.05579 3.7871433,3.442794 0 0 0 -1.26238,-0.71151 4.9232866,4.4756322 0 0 0 -1.76733,-0.286901 z"
     id="path496"
     style="stroke-width:1.20364" />
  <path
     class="cls-1"
     d="m 208.52384,14.938383 a 5.6175961,5.1068111 0 0 1 2.52477,0.504944 4.2037293,3.8215013 0 0 1 1.70423,1.308261 6.3119057,5.73799 0 0 1 0.85841,1.790253 4.1279861,3.7526455 0 0 1 0,1.950917 6.551758,5.9560337 0 0 1 -0.84579,1.790252 4.1532339,3.7755974 0 0 1 -1.71685,1.308262 5.6175961,5.1068111 0 0 1 -2.52477,0.504943 h -4.03961 v 3.832978 h -2.68887 V 14.94986 h 6.72848 z m -4.03961,2.295196 v 4.590392 h 4.03961 a 2.7646148,2.5132396 0 0 0 1.26239,-0.252471 2.0703052,1.8820607 0 0 0 0.8458,-0.654131 3.4084289,3.0985146 0 0 0 0.41658,-0.895127 2.6257528,2.3870038 0 0 0 0,-0.986934 3.4084289,3.0985146 0 0 0 -0.41658,-0.895127 2.0703052,1.8820607 0 0 0 -0.8458,-0.65413 2.7646148,2.5132396 0 0 0 -1.26239,-0.252472 z"
     id="path498"
     style="stroke-width:1.20364" />
  <path
     class="cls-1"
     d="m 224.35413,14.972811 h 2.22179 V 28.021 h -2.73936 v -8.84798 l -7.57431,8.825029 v 0 h -1.70421 V 14.94986 h 2.73939 v 8.113517 z"
     id="path500"
     style="stroke-width:1.20364" />
  <path
     class="cls-1"
     d="m 227.33337,27.814433 4.38045,-4.487109 a 5.6049722,5.0953351 0 0 1 -1.42652,-0.459039 4.0269957,3.6608376 0 0 1 -1.04776,-0.700035 3.9765006,3.6149337 0 0 1 -0.68171,-0.88365 4.8222957,4.3838244 0 0 1 -0.37867,-1.009886 6.0089339,5.4625665 0 0 1 -0.11365,-1.078743 4.8475434,4.4067763 0 0 1 0.34085,-1.65254 4.468829,4.0624969 0 0 1 2.62575,-2.295196 6.5770058,5.9789856 0 0 1 2.23442,-0.367232 h 6.8926 v 13.174425 h -2.73935 v -4.3953 h -2.61313 l -4.22898,4.3953 h -3.2443 z m 10.09904,-10.672662 h -4.15326 a 2.4237719,2.2033882 0 0 0 -1.84307,0.619704 2.4363953,2.2148641 0 0 0 0,2.972278 2.3859003,2.1689602 0 0 0 1.84307,0.619703 h 4.15326 z"
     id="path502"
     style="stroke-width:1.20364" />
  <path
     class="cls-1"
     d="m 129.06958,31.635934 -6.38763,6.242933 6.91786,6.598688 v 0.149188 h -3.34532 l -6.02157,-5.795369 v 5.795369 h -2.71411 V 31.567079 h 2.71411 v 5.508469 l 5.45351,-5.508469 h 3.38315 z"
     id="path504"
     style="stroke-width:1.20364" />
  <path
     class="cls-1"
     d="m 136.90897,31.303131 a 8.0034963,7.2757714 0 0 1 2.62574,0.378707 6.1477959,5.5888023 0 0 1 2.04508,1.032838 7.48592,6.8052562 0 0 1 2.32277,3.362462 9.1775107,8.3430374 0 0 1 0.26512,1.996821 9.4552344,8.5955093 0 0 1 -0.29036,1.962393 7.3344341,6.6675444 0 0 1 -0.85843,1.813205 6.5391341,5.9445577 0 0 1 -1.41384,1.491877 6.3119057,5.73799 0 0 1 -2.04508,1.009886 8.1297345,7.3905312 0 0 1 -2.66363,0.378707 8.407458,7.6430027 0 0 1 -2.65099,-0.367231 6.3119057,5.73799 0 0 1 -3.50941,-2.478812 6.8926009,6.2658851 0 0 1 -0.85843,-1.801728 8.4453297,7.6774307 0 0 1 -0.2777,-1.996821 8.1676057,7.4249591 0 0 1 0.20197,-1.675493 9.1396392,8.3086092 0 0 1 0.59331,-1.583685 6.4886387,5.8986537 0 0 1 1.00992,-1.40007 7.3091864,6.6445925 0 0 1 1.41386,-1.147598 6.6779962,6.0707935 0 0 1 1.81783,-0.745939 8.5589439,7.7807144 0 0 1 2.27227,-0.229519 z m 0,2.214864 a 5.3020005,4.8199116 0 0 0 -1.51484,0.183615 3.7114005,3.3739381 0 0 0 -1.18665,0.527896 4.4435817,4.039545 0 0 0 -0.89628,0.780366 4.1658577,3.7870734 0 0 0 -0.61856,0.952506 4.8096721,4.3723484 0 0 0 -0.34085,1.067267 6.5391341,5.9445577 0 0 0 -0.10101,1.147598 6.3119057,5.73799 0 0 0 0.18936,1.262357 5.4787341,4.9805753 0 0 0 0.51756,1.147599 4.1153622,3.7411695 0 0 0 0.88367,0.986934 3.7871433,3.442794 0 0 0 1.26238,0.677083 5.2388817,4.7625317 0 0 0 1.76733,0.263947 5.0495246,4.590392 0 0 0 1.48964,-0.183615 3.862886,3.5116499 0 0 0 1.17397,-0.481991 4.5193245,4.1084008 0 0 0 0.88367,-0.734464 3.9007576,3.5460778 0 0 0 0.60597,-0.918078 7.2334436,6.5757366 0 0 0 0.35347,-1.021362 5.7564581,5.2330469 0 0 0 0.11362,-1.05579 6.0594293,5.5084704 0 0 0 -0.13886,-1.308262 5.0495246,4.590392 0 0 0 -0.50498,-1.250882 4.418334,4.0165931 0 0 0 -0.88366,-1.044314 4.2289766,3.8444533 0 0 0 -1.33813,-0.722987 4.8727911,4.4297283 0 0 0 -1.71684,-0.275423 z"
     id="path506"
     style="stroke-width:1.20364" />
  <path
     class="cls-1"
     d="m 160.11156,44.626743 h -2.6005 v -9.662775 l -4.79705,5.829798 h -0.51761 l -4.70864,-5.852749 v 9.685726 h -2.56264 V 31.59003 h 3.04233 l 4.55718,5.73799 4.56984,-5.73799 h 3.01709 z"
     id="path508"
     style="stroke-width:1.20364" />
  <path
     class="cls-1"
     d="m 170.85441,31.578554 a 7.7257724,7.0232998 0 0 1 5.23887,1.606638 5.8574485,5.3248547 0 0 1 1.95673,4.188732 5.9205673,5.3822346 0 0 1 -1.95673,4.211685 7.7257724,7.0232998 0 0 1 -5.23887,1.618113 v 1.423021 h -2.76461 v -1.423021 a 7.7005248,7.0003478 0 0 1 -5.23888,-1.618113 5.8953196,5.3592827 0 0 1 -1.9567,-4.234637 5.8069531,5.2789508 0 0 1 1.9567,-4.177256 7.763644,7.0577277 0 0 1 5.23888,-1.595162 v -1.239406 h 2.76461 z m -7.11982,5.806846 a 3.623034,3.2936063 0 0 0 1.16136,2.582096 4.7213053,4.2920165 0 0 0 3.19385,0.975458 v -7.08068 a 4.7213053,4.2920165 0 0 0 -3.19385,0.952506 3.6104101,3.2821303 0 0 0 -1.16136,2.57062 z m 11.46241,0 a 3.5977863,3.2706543 0 0 0 -1.14879,-2.57062 4.6960575,4.2690646 0 0 0 -3.1938,-0.952506 v 7.115108 a 5.7312103,5.210095 0 0 0 2.33539,-0.459039 3.2821907,2.9837548 0 0 0 1.48963,-1.216454 3.9133814,3.5575538 0 0 0 0.51757,-1.916489 z"
     id="path510"
     style="stroke-width:1.20364" />
  <path
     class="cls-1"
     d="m 186.11659,31.303131 a 8.0034963,7.2757714 0 0 1 2.62575,0.378707 6.3119057,5.73799 0 0 1 2.0577,1.032838 7.296563,6.6331164 0 0 1 1.42648,1.526306 7.0314629,6.3921209 0 0 1 0.88366,1.836156 8.0539913,7.3216753 0 0 1 0.26512,1.996821 9.4552344,8.5955093 0 0 1 -0.29036,1.962393 6.9683435,6.3347409 0 0 1 -0.85842,1.813205 6.2361629,5.6691342 0 0 1 -3.45893,2.501763 8.0539913,7.3216753 0 0 1 -2.651,0.378707 8.4832012,7.7118586 0 0 1 -2.66361,-0.367231 6.7789866,6.1626013 0 0 1 -2.0577,-0.99841 7.0440867,6.4035969 0 0 1 -1.42648,-1.480402 6.8926009,6.2658851 0 0 1 -0.85842,-1.801728 8.4453297,7.6774307 0 0 1 -0.27774,-1.996821 8.962906,8.1479462 0 0 1 0.20201,-1.675493 9.1396392,8.3086092 0 0 1 0.5933,-1.583685 6.5391341,5.9445577 0 0 1 1.02256,-1.40007 7.2334436,6.5757366 0 0 1 1.40124,-1.147598 6.7663627,6.1511253 0 0 1 1.83043,-0.745939 8.4579535,7.6889067 0 0 1 2.23441,-0.229519 z m 0,2.214864 a 5.3020005,4.8199116 0 0 0 -1.51483,0.183615 3.7114005,3.3739381 0 0 0 -1.18665,0.527896 4.4435817,4.039545 0 0 0 -0.89629,0.780366 4.1658577,3.7870734 0 0 0 -0.6186,0.952506 4.8096721,4.3723484 0 0 0 -0.3408,1.067267 5.6049722,5.0953351 0 0 0 -0.0883,1.147598 5.6554672,5.141239 0 0 0 0.17677,1.262357 5.0495246,4.590392 0 0 0 0.53018,1.147599 4.0774911,3.7067415 0 0 0 0.87105,0.986934 3.7871433,3.442794 0 0 0 1.26238,0.677083 5.2388817,4.7625317 0 0 0 1.76733,0.263947 5.0495246,4.590392 0 0 0 1.4896,-0.183615 3.9386291,3.5805058 0 0 0 1.18664,-0.481991 4.8349195,4.3953003 0 0 0 0.87104,-0.734464 3.9007576,3.5460778 0 0 0 0.60597,-0.918078 7.2334436,6.5757366 0 0 0 0.35344,-1.021362 5.7564581,5.2330469 0 0 0 0.11365,-1.05579 6.0468054,5.4969945 0 0 0 -0.12627,-1.308262 5.0495246,4.590392 0 0 0 -0.51756,-1.250882 4.418334,4.0165931 0 0 0 -0.88367,-1.044314 3.9638769,3.6034578 0 0 0 -1.33813,-0.722987 4.8727911,4.4297283 0 0 0 -1.71684,-0.275423 z"
     id="path512"
     style="stroke-width:1.20364" />
  <path
     class="cls-1"
     d="m 201.32829,31.521175 a 5.7312103,5.210095 0 0 1 2.52477,0.504943 4.1532339,3.7755974 0 0 1 1.71684,1.308262 6.7158673,6.1052214 0 0 1 0.85843,1.790252 4.4562051,4.051021 0 0 1 0,1.962393 6.5012626,5.9101297 0 0 1 -0.85843,1.778777 4.0648672,3.6952655 0 0 1 -1.70422,1.319738 5.8322008,5.3019028 0 0 1 -2.52476,0.504943 h -4.05224 v 3.821501 h -2.68886 V 31.53265 h 6.7411 z m -4.05223,2.295195 v 4.590392 h 4.05223 a 2.8403575,2.5820955 0 0 0 1.2624,-0.252471 2.0955526,1.9050127 0 0 0 0.84579,-0.654131 3.3326862,3.0296587 0 0 0 0.41658,-0.906602 2.2091668,2.0082965 0 0 0 0,-0.975459 3.1307053,2.846043 0 0 0 -0.41658,-0.895126 2.0198098,1.8361568 0 0 0 -0.84579,-0.665607 2.8403575,2.5820955 0 0 0 -1.2624,-0.240996 z"
     id="path514"
     style="stroke-width:1.20364" />
  <path
     class="cls-1"
     d="M 211.13697,44.592315 V 33.736039 h -4.5698 v -2.237817 h 11.85375 v 2.237817 h -4.5698 v 10.856276 z"
     id="path516"
     style="stroke-width:1.20364" />
  <path
     class="cls-1"
     d="m 231.3351,44.626743 -1.26239,-2.478811 h -7.57427 l -1.26238,2.478811 h -2.92874 l 6.4634,-13.094093 h 2.96661 l 6.43811,13.094093 z m -2.29752,-4.796959 -2.67628,-5.565851 -2.67624,5.565851 z"
     id="path518"
     style="stroke-width:1.20364" />
  <line
     class="cls-2"
     x1="61.039997"
     y1="27.950001"
     x2="60.990002"
     y2="27.91"
     id="line520" />
  <polygon
     class="cls-1"
     points="152.9,52.53 125.07,80.36 155.21,110.5 142.54,110.5 112.45,80.4 112.45,80.31 118.74,74.02 140.22,52.53 "
     id="polygon522"
     transform="translate(-51.41,-52.45)" />
  <rect
     class="cls-1"
     x="57.670002"
     y="44.530003"
     width="2.96"
     height="2.96"
     id="rect524" />
  <rect
     class="cls-1"
     x="61.399998"
     y="44.530003"
     width="2.96"
     height="2.96"
     id="rect526" />
  <rect
     class="cls-1"
     x="61.399998"
     y="48.350002"
     width="2.96"
     height="2.96"
     id="rect528" />
  <rect
     class="cls-1"
     x="57.670002"
     y="48.350002"
     width="2.96"
     height="2.96"
     id="rect530" />
  <rect
     class="cls-1"
     x="44.420002"
     y="30.289997"
     width="1.46"
     height="1.46"
     id="rect532" />
  <rect
     class="cls-1"
     x="46.27"
     y="30.289997"
     width="1.46"
     height="1.46"
     id="rect534" />
  <rect
     class="cls-1"
     x="46.27"
     y="32.179996"
     width="1.46"
     height="1.46"
     id="rect536" />
  <rect
     class="cls-1"
     x="44.420002"
     y="32.179996"
     width="1.46"
     height="1.46"
     id="rect538" />
  <rect
     class="cls-1"
     x="44.420002"
     y="39.319996"
     width="1.46"
     height="1.46"
     id="rect540" />
  <rect
     class="cls-1"
     x="46.27"
     y="39.319996"
     width="1.46"
     height="1.46"
     id="rect542" />
  <rect
     class="cls-1"
     x="46.27"
     y="41.210003"
     width="1.46"
     height="1.46"
     id="rect544" />
  <rect
     class="cls-1"
     x="44.420002"
     y="41.210003"
     width="1.46"
     height="1.46"
     id="rect546" />
  <rect
     class="cls-1"
     x="44.420002"
     y="48.09"
     width="1.46"
     height="1.46"
     id="rect548" />
  <rect
     class="cls-1"
     x="46.27"
     y="48.09"
     width="1.46"
     height="1.46"
     id="rect550" />
  <rect
     class="cls-1"
     x="46.27"
     y="49.98"
     width="1.46"
     height="1.46"
     id="rect552" />
  <rect
     class="cls-1"
     x="44.420002"
     y="49.98"
     width="1.46"
     height="1.46"
     id="rect554" />
  <rect
     class="cls-1"
     x="44.420002"
     y="22.77"
     width="1.46"
     height="1.46"
     id="rect556" />
  <rect
     class="cls-1"
     x="46.27"
     y="22.77"
     width="1.46"
     height="1.46"
     id="rect558" />
  <rect
     class="cls-1"
     x="46.27"
     y="24.66"
     width="1.46"
     height="1.46"
     id="rect560" />
  <rect
     class="cls-1"
     x="44.420002"
     y="24.66"
     width="1.46"
     height="1.46"
     id="rect562" />
  <rect
     class="cls-1"
     x="38.350002"
     y="30.119999"
     width="1.46"
     height="1.46"
     id="rect564" />
  <rect
     class="cls-1"
     x="40.200001"
     y="30.119999"
     width="1.46"
     height="1.46"
     id="rect566" />
  <rect
     class="cls-1"
     x="40.200001"
     y="32.009998"
     width="1.46"
     height="1.46"
     id="rect568" />
  <rect
     class="cls-1"
     x="38.350002"
     y="32.009998"
     width="1.46"
     height="1.46"
     id="rect570" />
  <rect
     class="cls-1"
     x="38.350002"
     y="39.149998"
     width="1.46"
     height="1.46"
     id="rect572" />
  <rect
     class="cls-1"
     x="40.200001"
     y="39.149998"
     width="1.46"
     height="1.46"
     id="rect574" />
  <rect
     class="cls-1"
     x="40.200001"
     y="41.039997"
     width="1.46"
     height="1.46"
     id="rect576" />
  <rect
     class="cls-1"
     x="38.350002"
     y="41.039997"
     width="1.46"
     height="1.46"
     id="rect578" />
  <rect
     class="cls-1"
     x="38.350002"
     y="47.920002"
     width="1.46"
     height="1.46"
     id="rect580" />
  <rect
     class="cls-1"
     x="40.200001"
     y="47.920002"
     width="1.46"
     height="1.46"
     id="rect582" />
  <rect
     class="cls-1"
     x="40.200001"
     y="49.810001"
     width="1.46"
     height="1.46"
     id="rect584" />
  <rect
     class="cls-1"
     x="38.350002"
     y="49.810001"
     width="1.46"
     height="1.46"
     id="rect586" />
  <rect
     class="cls-1"
     x="38.350002"
     y="22.600002"
     width="1.46"
     height="1.46"
     id="rect588" />
  <rect
     class="cls-1"
     x="40.200001"
     y="22.600002"
     width="1.46"
     height="1.46"
     id="rect590" />
  <rect
     class="cls-1"
     x="40.200001"
     y="24.490002"
     width="1.46"
     height="1.46"
     id="rect592" />
  <rect
     class="cls-1"
     x="38.350002"
     y="24.490002"
     width="1.46"
     height="1.46"
     id="rect594" />
  <rect
     class="cls-1"
     x="44.140003"
     y="15.350003"
     width="1.46"
     height="1.46"
     id="rect596" />
  <rect
     class="cls-1"
     x="45.990002"
     y="15.350003"
     width="1.46"
     height="1.46"
     id="rect598" />
  <rect
     class="cls-1"
     x="45.990002"
     y="17.240002"
     width="1.46"
     height="1.46"
     id="rect600" />
  <rect
     class="cls-1"
     x="44.140003"
     y="17.240002"
     width="1.46"
     height="1.46"
     id="rect602" />
  <rect
     class="cls-1"
     x="38.070004"
     y="15.179998"
     width="1.46"
     height="1.46"
     id="rect604" />
  <rect
     class="cls-1"
     x="39.91"
     y="15.179998"
     width="1.46"
     height="1.46"
     id="rect606" />
  <rect
     class="cls-1"
     x="39.91"
     y="17.069996"
     width="1.46"
     height="1.46"
     id="rect608" />
  <rect
     class="cls-1"
     x="38.070004"
     y="17.069996"
     width="1.46"
     height="1.46"
     id="rect610" />
  <polygon
     class="cls-1"
     points="84.85,110.5 75.62,110.5 75.62,61.23 51.41,61.23 51.41,52.45 109.19,52.45 109.19,52.53 112.45,52.53 112.45,80.31 112.39,80.35 103.48,89.28 103.48,61.23 84.85,61.23 "
     id="polygon612"
     transform="translate(-51.41,-52.45)" />
  <metadata
     id="metadata838">
    <rdf:RDF>
      <cc:Work
         rdf:about="">
        <dc:title>лорлаорй-1</dc:title>
      </cc:Work>
    </rdf:RDF>
  </metadata>
</svg>
