<svg id="Слой_1" data-name="Слой 1" xmlns="http://www.w3.org/2000/svg" viewBox="0 0 215.28 198.24"><defs><style>.cls-1{fill:#41ac48;}.cls-2{fill:none;}</style></defs><title>лорлаорй-1</title><path class="cls-1" d="M55.31,135.69v-9.46H51.7v-2h9.38v2H57.47v9.46Z"/><path class="cls-1" d="M70.15,126.23H63.63v2.88h6.29v1.83H63.63v2.83h6.52v2H61.67V124.32h8.48Z"/><path class="cls-1" d="M77.06,124.31a4.45,4.45,0,0,1,2,.44,3.33,3.33,0,0,1,1.35,1.14,5,5,0,0,1,.68,1.56,3.27,3.27,0,0,1,0,1.7,5.19,5.19,0,0,1-.67,1.56,3.33,3.33,0,0,1-1.35,1.14,4.5,4.5,0,0,1-2,.44h-3.2v3.34H71.73V124.32h5.33Zm-3.2,2v4h3.2a2.16,2.16,0,0,0,1-.22,1.64,1.64,0,0,0,.67-.57,2.7,2.7,0,0,0,.33-.78,1.79,1.79,0,0,0,0-.86,2.7,2.7,0,0,0-.33-.78,1.64,1.64,0,0,0-.67-.57,2.16,2.16,0,0,0-1-.22Z"/><path class="cls-1" d="M87.51,124.31a4.41,4.41,0,0,1,2,.44,3.29,3.29,0,0,1,1.36,1.14,5.21,5.21,0,0,1,.68,1.56,3.49,3.49,0,0,1,0,1.7,5.21,5.21,0,0,1-.68,1.56,3.2,3.2,0,0,1-1.35,1.14,4.48,4.48,0,0,1-2,.44H84.3v3.34H82.17V124.32h5.34Zm-3.21,2v4h3.21a2.12,2.12,0,0,0,1-.22,1.52,1.52,0,0,0,.67-.57,2.7,2.7,0,0,0,.33-.78,1.79,1.79,0,0,0,0-.86,2.7,2.7,0,0,0-.33-.78,1.52,1.52,0,0,0-.67-.57,2.12,2.12,0,0,0-1-.22Z"/><path class="cls-1" d="M100.05,124.34h1.76v11.37H99.64V128l-6,7.69v0H92.26V124.32h2.16v7.07Z"/><path class="cls-1" d="M106,135.69v-9.46h-3.62v-2h9.39v2h-3.62v9.46Z"/><path class="cls-1" d="M117.58,124.11a6.28,6.28,0,0,1,2.07.33,5.12,5.12,0,0,1,1.63.91,5.53,5.53,0,0,1,1.14,1.32,6,6,0,0,1,.69,1.6,6.38,6.38,0,0,1,.21,1.74,7.06,7.06,0,0,1-.23,1.72,5.72,5.72,0,0,1-.67,1.57,5.44,5.44,0,0,1-1.12,1.31,5,5,0,0,1-1.62.88,7.12,7.12,0,0,1-4.22,0,4.82,4.82,0,0,1-1.62-.87,5,5,0,0,1-1.14-1.29,5.62,5.62,0,0,1-.68-1.57,7,7,0,0,1-.21-1.73,6.56,6.56,0,0,1,.16-1.47,7,7,0,0,1,.47-1.38,4.8,4.8,0,0,1,.8-1.21,5.69,5.69,0,0,1,1.11-1,4.93,4.93,0,0,1,1.45-.65A6.33,6.33,0,0,1,117.58,124.11Zm0,1.93a4.1,4.1,0,0,0-1.2.16,3,3,0,0,0-.95.46,3.76,3.76,0,0,0-.7.68,3.59,3.59,0,0,0-.5.84,4.6,4.6,0,0,0-.34,1.88,5.81,5.81,0,0,0,.14,1.11,4.14,4.14,0,0,0,.42,1,3.62,3.62,0,0,0,.69.86,3.25,3.25,0,0,0,1,.59,4.11,4.11,0,0,0,1.4.22,4.43,4.43,0,0,0,1.18-.15,2.85,2.85,0,0,0,.93-.43,3.45,3.45,0,0,0,1.18-1.44,4.93,4.93,0,0,0,.27-.88,4.08,4.08,0,0,0,.1-.93,4.85,4.85,0,0,0-.11-1.14,4,4,0,0,0-.4-1.08,3.59,3.59,0,0,0-.71-.92,3,3,0,0,0-1-.62A3.9,3.9,0,0,0,117.58,126Z"/><path class="cls-1" d="M129.62,124.31a4.45,4.45,0,0,1,2,.44,3.33,3.33,0,0,1,1.35,1.14,5,5,0,0,1,.68,1.56,3.27,3.27,0,0,1,0,1.7,5.19,5.19,0,0,1-.67,1.56,3.29,3.29,0,0,1-1.36,1.14,4.45,4.45,0,0,1-2,.44h-3.2v3.34h-2.13V124.32h5.33Zm-3.2,2v4h3.2a2.19,2.19,0,0,0,1-.22,1.64,1.64,0,0,0,.67-.57,2.7,2.7,0,0,0,.33-.78,2.08,2.08,0,0,0,0-.86,2.7,2.7,0,0,0-.33-.78,1.64,1.64,0,0,0-.67-.57,2.19,2.19,0,0,0-1-.22Z"/><path class="cls-1" d="M142.16,124.34h1.76v11.37h-2.17V128l-6,7.69v0h-1.35V124.32h2.17v7.07Z"/><path class="cls-1" d="M144.52,135.53l3.47-3.91a4.44,4.44,0,0,1-1.13-.4,3.19,3.19,0,0,1-.83-.61,3.15,3.15,0,0,1-.54-.77,3.82,3.82,0,0,1-.3-.88,4.76,4.76,0,0,1-.09-.94,3.84,3.84,0,0,1,.27-1.44,3.54,3.54,0,0,1,2.08-2,5.21,5.21,0,0,1,1.77-.32h5.46v11.48h-2.17v-3.83h-2.07l-3.35,3.83h-2.57Zm8-9.3h-3.29a1.92,1.92,0,0,0-1.46.54,1.93,1.93,0,0,0,0,2.59,1.89,1.89,0,0,0,1.46.54h3.29Z"/><path class="cls-1" d="M66.68,138.86l-5.06,5.44,5.48,5.75v.13H64.45l-4.77-5.05v5.05H57.53V138.8h2.15v4.8L64,138.8h2.68Z"/><path class="cls-1" d="M72.89,138.57a6.34,6.34,0,0,1,2.08.33,4.87,4.87,0,0,1,1.62.9,5.93,5.93,0,0,1,1.84,2.93,7.27,7.27,0,0,1,.21,1.74,7.49,7.49,0,0,1-.23,1.71,5.81,5.81,0,0,1-.68,1.58,5.18,5.18,0,0,1-1.12,1.3,5,5,0,0,1-1.62.88,6.44,6.44,0,0,1-2.11.33,6.66,6.66,0,0,1-2.1-.32A5,5,0,0,1,68,147.79a5.46,5.46,0,0,1-.68-1.57,6.69,6.69,0,0,1-.22-1.74,6.47,6.47,0,0,1,.16-1.46,7.24,7.24,0,0,1,.47-1.38,5.14,5.14,0,0,1,.8-1.22,5.79,5.79,0,0,1,1.12-1,5.29,5.29,0,0,1,1.44-.65A6.78,6.78,0,0,1,72.89,138.57Zm0,1.93a4.2,4.2,0,0,0-1.2.16,2.94,2.94,0,0,0-.94.46,3.52,3.52,0,0,0-.71.68,3.3,3.3,0,0,0-.49.83,3.81,3.81,0,0,0-.27.93,5.18,5.18,0,0,0-.08,1,5,5,0,0,0,.15,1.1,4.34,4.34,0,0,0,.41,1,3.26,3.26,0,0,0,.7.86,3,3,0,0,0,1,.59,4.15,4.15,0,0,0,1.4.23,4,4,0,0,0,1.18-.16,3.06,3.06,0,0,0,.93-.42,3.58,3.58,0,0,0,.7-.64,3.09,3.09,0,0,0,.48-.8,5.73,5.73,0,0,0,.28-.89,4.56,4.56,0,0,0,.09-.92,4.8,4.8,0,0,0-.11-1.14,4,4,0,0,0-.4-1.09,3.5,3.5,0,0,0-.7-.91,3.35,3.35,0,0,0-1.06-.63A3.86,3.86,0,0,0,72.89,140.5Z"/><path class="cls-1" d="M91.27,150.18H89.21v-8.42l-3.8,5.08H85l-3.73-5.1v8.44H79.24V138.82h2.41l3.61,5,3.62-5h2.39Z"/><path class="cls-1" d="M99.78,138.81a6.12,6.12,0,0,1,4.15,1.4,4.64,4.64,0,0,1,1.55,3.65,4.69,4.69,0,0,1-1.55,3.67,6.12,6.12,0,0,1-4.15,1.41v1.24H97.59v-1.24a6.1,6.1,0,0,1-4.15-1.41,4.67,4.67,0,0,1-1.55-3.69,4.6,4.6,0,0,1,1.55-3.64,6.15,6.15,0,0,1,4.15-1.39v-1.08h2.19Zm-5.64,5.06a2.87,2.87,0,0,0,.92,2.25,3.74,3.74,0,0,0,2.53.85V140.8a3.74,3.74,0,0,0-2.53.83A2.86,2.86,0,0,0,94.14,143.87Zm9.08,0a2.85,2.85,0,0,0-.91-2.24,3.72,3.72,0,0,0-2.53-.83V147a4.54,4.54,0,0,0,1.85-.4,2.6,2.6,0,0,0,1.18-1.06A3.1,3.1,0,0,0,103.22,143.87Z"/><path class="cls-1" d="M111.87,138.57a6.34,6.34,0,0,1,2.08.33,5,5,0,0,1,1.63.9,5.78,5.78,0,0,1,1.13,1.33,5.57,5.57,0,0,1,.7,1.6,6.38,6.38,0,0,1,.21,1.74,7.49,7.49,0,0,1-.23,1.71,5.52,5.52,0,0,1-.68,1.58,4.94,4.94,0,0,1-2.74,2.18,6.38,6.38,0,0,1-2.1.33,6.72,6.72,0,0,1-2.11-.32,5.37,5.37,0,0,1-1.63-.87,5.58,5.58,0,0,1-1.13-1.29,5.46,5.46,0,0,1-.68-1.57,6.69,6.69,0,0,1-.22-1.74,7.1,7.1,0,0,1,.16-1.46,7.24,7.24,0,0,1,.47-1.38,5.18,5.18,0,0,1,.81-1.22,5.73,5.73,0,0,1,1.11-1,5.36,5.36,0,0,1,1.45-.65A6.7,6.7,0,0,1,111.87,138.57Zm0,1.93a4.2,4.2,0,0,0-1.2.16,2.94,2.94,0,0,0-.94.46,3.52,3.52,0,0,0-.71.68,3.3,3.3,0,0,0-.49.83,3.81,3.81,0,0,0-.27.93,4.44,4.44,0,0,0-.07,1,4.48,4.48,0,0,0,.14,1.1,4,4,0,0,0,.42,1,3.23,3.23,0,0,0,.69.86,3,3,0,0,0,1,.59,4.15,4.15,0,0,0,1.4.23,4,4,0,0,0,1.18-.16,3.12,3.12,0,0,0,.94-.42,3.83,3.83,0,0,0,.69-.64,3.09,3.09,0,0,0,.48-.8,5.73,5.73,0,0,0,.28-.89,4.56,4.56,0,0,0,.09-.92,4.79,4.79,0,0,0-.1-1.14,4,4,0,0,0-.41-1.09,3.5,3.5,0,0,0-.7-.91,3.14,3.14,0,0,0-1.06-.63A3.86,3.86,0,0,0,111.87,140.5Z"/><path class="cls-1" d="M123.92,138.76a4.54,4.54,0,0,1,2,.44,3.29,3.29,0,0,1,1.36,1.14,5.32,5.32,0,0,1,.68,1.56,3.53,3.53,0,0,1,0,1.71,5.15,5.15,0,0,1-.68,1.55,3.22,3.22,0,0,1-1.35,1.15,4.62,4.62,0,0,1-2,.44h-3.21v3.33h-2.13V138.77h5.34Zm-3.21,2v4h3.21a2.25,2.25,0,0,0,1-.22,1.66,1.66,0,0,0,.67-.57,2.64,2.64,0,0,0,.33-.79,1.75,1.75,0,0,0,0-.85,2.48,2.48,0,0,0-.33-.78,1.6,1.6,0,0,0-.67-.58,2.25,2.25,0,0,0-1-.21Z"/><path class="cls-1" d="M131.69,150.15v-9.46h-3.62v-1.95h9.39v1.95h-3.62v9.46Z"/><path class="cls-1" d="M147.69,150.18l-1-2.16h-6l-1,2.16h-2.32l5.12-11.41h2.35l5.1,11.41ZM145.87,146l-2.12-4.85L141.63,146Z"/><line class="cls-2" x1="112.45" y1="80.4" x2="112.4" y2="80.36"/><polygon class="cls-1" points="155.21 110.5 142.54 110.5 112.45 80.4 112.45 80.31 118.74 74.02 140.22 52.53 152.9 52.53 125.07 80.36 155.21 110.5"/><rect class="cls-1" x="109.08" y="96.98" width="2.96" height="2.96"/><rect class="cls-1" x="112.81" y="96.98" width="2.96" height="2.96"/><rect class="cls-1" x="112.81" y="100.8" width="2.96" height="2.96"/><rect class="cls-1" x="109.08" y="100.8" width="2.96" height="2.96"/><rect class="cls-1" x="95.83" y="82.74" width="1.46" height="1.46"/><rect class="cls-1" x="97.68" y="82.74" width="1.46" height="1.46"/><rect class="cls-1" x="97.68" y="84.63" width="1.46" height="1.46"/><rect class="cls-1" x="95.83" y="84.63" width="1.46" height="1.46"/><rect class="cls-1" x="95.83" y="91.77" width="1.46" height="1.46"/><rect class="cls-1" x="97.68" y="91.77" width="1.46" height="1.46"/><rect class="cls-1" x="97.68" y="93.66" width="1.46" height="1.46"/><rect class="cls-1" x="95.83" y="93.66" width="1.46" height="1.46"/><rect class="cls-1" x="95.83" y="100.54" width="1.46" height="1.46"/><rect class="cls-1" x="97.68" y="100.54" width="1.46" height="1.46"/><rect class="cls-1" x="97.68" y="102.43" width="1.46" height="1.46"/><rect class="cls-1" x="95.83" y="102.43" width="1.46" height="1.46"/><rect class="cls-1" x="95.83" y="75.22" width="1.46" height="1.46"/><rect class="cls-1" x="97.68" y="75.22" width="1.46" height="1.46"/><rect class="cls-1" x="97.68" y="77.11" width="1.46" height="1.46"/><rect class="cls-1" x="95.83" y="77.11" width="1.46" height="1.46"/><rect class="cls-1" x="89.76" y="82.57" width="1.46" height="1.46"/><rect class="cls-1" x="91.61" y="82.57" width="1.46" height="1.46"/><rect class="cls-1" x="91.61" y="84.46" width="1.46" height="1.46"/><rect class="cls-1" x="89.76" y="84.46" width="1.46" height="1.46"/><rect class="cls-1" x="89.76" y="91.6" width="1.46" height="1.46"/><rect class="cls-1" x="91.61" y="91.6" width="1.46" height="1.46"/><rect class="cls-1" x="91.61" y="93.49" width="1.46" height="1.46"/><rect class="cls-1" x="89.76" y="93.49" width="1.46" height="1.46"/><rect class="cls-1" x="89.76" y="100.37" width="1.46" height="1.46"/><rect class="cls-1" x="91.61" y="100.37" width="1.46" height="1.46"/><rect class="cls-1" x="91.61" y="102.26" width="1.46" height="1.46"/><rect class="cls-1" x="89.76" y="102.26" width="1.46" height="1.46"/><rect class="cls-1" x="89.76" y="75.05" width="1.46" height="1.46"/><rect class="cls-1" x="91.61" y="75.05" width="1.46" height="1.46"/><rect class="cls-1" x="91.61" y="76.94" width="1.46" height="1.46"/><rect class="cls-1" x="89.76" y="76.94" width="1.46" height="1.46"/><rect class="cls-1" x="95.55" y="67.8" width="1.46" height="1.46"/><rect class="cls-1" x="97.4" y="67.8" width="1.46" height="1.46"/><rect class="cls-1" x="97.4" y="69.69" width="1.46" height="1.46"/><rect class="cls-1" x="95.55" y="69.69" width="1.46" height="1.46"/><rect class="cls-1" x="89.48" y="67.63" width="1.46" height="1.46"/><rect class="cls-1" x="91.32" y="67.63" width="1.46" height="1.46"/><rect class="cls-1" x="91.32" y="69.52" width="1.46" height="1.46"/><rect class="cls-1" x="89.48" y="69.52" width="1.46" height="1.46"/><polygon class="cls-1" points="112.45 52.53 112.45 80.31 112.39 80.35 103.48 89.28 103.48 61.23 84.85 61.23 84.85 110.5 75.62 110.5 75.62 61.23 51.41 61.23 51.41 52.45 109.19 52.45 109.19 52.53 112.45 52.53"/></svg>