<?xml version="1.0" encoding="utf-8"?><svg viewBox="0 0 512 512" xmlns="http://www.w3.org/2000/svg" xmlns:xlink="http://www.w3.org/1999/xlink"><style>:root>svg{display:none}:root>svg:target{display:block}</style><svg viewBox="0 0 512 512" id="10age" xmlns="http://www.w3.org/2000/svg"><path d="M339.992 453.861l-47.178 3.39-46.053 47.283H69.388l158.149-121.6 46.564-77.614c7.805-13.009 25.852-15.018 36.326-4.042l87.374 66.937c13.206 10.117 14.024 29.726 1.707 40.908l-36.725 33.339c-6.398 5.883-14.313 9.842-22.791 11.399z" fill="#FED9A8" data-original="#fed9a8"/><path d="M397.801 368.214l-21.362-16.365c2.297 9.149-.283 19.335-7.929 26.276l-36.725 33.339c-6.398 5.885-14.312 9.844-22.791 11.4l-47.178 3.39-76.244 78.28h61.189l46.053-47.283 47.178-3.39c8.479-1.557 16.393-5.516 22.791-11.4l36.725-33.339c12.317-11.183 11.499-30.791-1.707-40.908z" fill="#F4C28C" data-original="#f4c28c"/><path d="M331.302 330.122l8.817 9.484c-4.964.53-10.05-1.155-13.649-5.027l-8.022-8.629c4.61-.849 9.486.549 12.854 4.172z" fill="#E8D06B" data-original="#e8d06b"/><path d="M444.882 411.283l-56.016 47.112-147.676-201.98 29.07-24.45z" fill="#F7BC14" data-original="#f7bc14"/><path d="M63.432 173.767l48.261 57.382c34.224 40.692 88.14 60.687 145.248 53.865l33.862-4.045 9.789-32.667c16.509-55.094 6.052-111.639-28.172-152.331l-48.261-57.382L63.432 173.767z" fill="#FED130" data-original="#fed130"/><path d="M272.419 95.97l-48.261-57.382-34.477 28.997 50.885 60.238c34.224 40.692 44.681 97.237 28.172 152.331l-1.072 3.578 23.137-2.764 9.789-32.667c16.508-55.093 6.051-111.639-28.173-152.331z" fill="#F7BC14" data-original="#f7bc14"/><path d="M239.35 44.662L66.812 189.775a5.945 5.945 0 01-8.377-.723L47.516 176.07a5.945 5.945 0 01.723-8.377L220.778 22.58a5.945 5.945 0 018.377.723l10.918 12.982a5.945 5.945 0 01-.723 8.377z" fill="#FFB125" data-original="#ffb125"/><path d="M240.074 36.285l-10.918-12.982a5.945 5.945 0 00-8.377-.723l-30.481 25.636 18.573 22.083 30.481-25.636a5.948 5.948 0 00.722-8.378z" fill="#FF901D" data-original="#ff901d"/><path d="M185.864 154.367l30.879 13.534c.396.174.852.141 1.22-.087l28.655-17.765c.925-.574 2.107.163 1.999 1.246l-3.329 33.55c-.043.43.129.854.459 1.133l25.751 21.763c.832.703.496 2.054-.567 2.287l-32.937 7.201a1.316 1.316 0 00-.936.787l-12.74 31.215c-.411 1.008-1.8 1.107-2.35.167l-17.027-29.1a1.314 1.314 0 00-1.038-.647l-33.624-2.471c-1.086-.08-1.609-1.37-.885-2.183l22.414-25.186c.287-.323.398-.767.294-1.187l-8.041-32.742c-.26-1.056.806-1.952 1.803-1.515z" fill="#FFF" data-original="#ffffff"/><path d="M486.82 407.234l-105.218 88.493c-4.568 3.842-11.482 2.725-14.608-2.359l-17.39-28.284a9.769 9.769 0 012.034-12.592l97.724-82.19a9.769 9.769 0 0112.754.155l24.885 21.981c4.472 3.951 4.387 10.955-.181 14.796z" fill="#FFB125" data-original="#ffb125"/><path d="M486.999 392.438l-24.885-21.981a9.769 9.769 0 00-12.754-.155l-28.513 23.981 39.688 35.057 26.284-22.106c4.569-3.841 4.654-10.845.18-14.796z" fill="#FF901D" data-original="#ff901d"/><path d="M380.38 407.567c7.127 7.677 19.128 8.121 26.802.991l23.737-22.052c7.67-7.126 8.114-19.119.991-26.792-7.127-7.677-19.128-8.121-26.802-.991l-23.737 22.052c-7.671 7.125-8.114 19.119-.991 26.792z" fill="#F4C28C" data-original="#f4c28c"/><path d="M381.371 380.774l23.737-22.052c7.674-7.129 19.675-6.686 26.802.991 4.132 4.451 5.713 10.356 4.818 15.922-7.221-6.152-18.063-6.061-25.184.553l-23.737 22.052a18.873 18.873 0 00-5.809 10.87 19.11 19.11 0 01-1.619-1.545c-7.122-7.671-6.679-19.665.992-26.791z" fill="#FED9A8" data-original="#fed9a8"/><path d="M361.363 373.349c7.234 7.793 19.417 8.243 27.207 1.006l23.317-21.662c7.786-7.233 8.236-19.408 1.006-27.197-7.234-7.793-19.417-8.243-27.207-1.006l-23.317 21.662c-7.786 7.234-8.236 19.408-1.006 27.197z" fill="#F4C28C" data-original="#f4c28c"/><path d="M362.369 346.152l23.317-21.662c7.79-7.237 19.972-6.787 27.207 1.006 4.144 4.464 5.76 10.369 4.923 15.958-7.329-6.378-18.44-6.329-25.719.432l-23.317 21.662a19.165 19.165 0 00-5.929 11.238 19.539 19.539 0 01-1.488-1.438c-7.23-7.788-6.78-19.962 1.006-27.196z" fill="#FED9A8" data-original="#fed9a8"/><path d="M335.044 345.384c7.234 7.793 19.417 8.243 27.207 1.006l23.317-21.662c7.786-7.233 8.236-19.408 1.006-27.197-7.234-7.793-19.417-8.243-27.207-1.006l-23.317 21.662c-7.787 7.233-8.237 19.408-1.006 27.197z" fill="#F4C28C" data-original="#f4c28c"/><path d="M336.049 318.187l23.317-21.662c7.79-7.237 19.972-6.787 27.207 1.006.499.538.958 1.098 1.384 1.674a19.158 19.158 0 00-11.741 5.095l-23.317 21.662c-7.249 6.734-8.135 17.749-2.39 25.523-5.61.394-11.342-1.658-15.466-6.101-7.23-7.789-6.78-19.964 1.006-27.197z" fill="#FED9A8" data-original="#fed9a8"/><path d="M309.695 316.37c7.234 7.793 19.417 8.243 27.207 1.006l23.317-21.662c7.786-7.233 8.236-19.408 1.006-27.197-7.234-7.793-19.417-8.243-27.207-1.006l-23.317 21.662c-7.786 7.234-8.236 19.408-1.006 27.197z" fill="#F4C28C" data-original="#f4c28c"/><path d="M310.701 289.173l23.317-21.662c7.79-7.237 19.973-6.786 27.207 1.006 4.14 4.459 5.757 10.356 4.926 15.941-7.329-6.39-18.449-6.345-25.732.421l-23.317 21.662a19.165 19.165 0 00-5.932 11.256c-.51-.445-1.003-.92-1.475-1.427-7.23-7.789-6.78-19.963 1.006-27.197z" fill="#FED9A8" data-original="#fed9a8"/><path d="M354.248 331.1l-4.324 4.017c-6.803 6.32-17.301 6.079-23.454-.539l-10.887-11.71c-5.329-5.732-14.432-5.911-20.289-.399 3.278 50.712-67.756 60.464-67.756 60.464l30.192-74.264a35.64 35.64 0 019.366-14.589l21.443-20.181c10.425-9.812 26.627-9.499 36.12.697l30.762 33.04c6.165 6.624 5.64 17.134-1.173 23.464z" fill="#FED9A8" data-original="#fed9a8"/><path d="M256.046 152.032a8.725 8.725 0 00-4.093-8.316 8.726 8.726 0 00-9.27-.011l-25.906 16.06-27.916-12.235a8.723 8.723 0 00-9.175 1.321 8.725 8.725 0 00-2.875 8.814l7.269 29.601-20.262 22.767a8.727 8.727 0 00-1.58 9.136 8.723 8.723 0 007.493 5.458l30.399 2.234 15.394 26.31a8.718 8.718 0 007.561 4.344 8.726 8.726 0 008.144-5.462l11.518-28.221 29.782-6.511a8.727 8.727 0 006.641-6.465 8.728 8.728 0 00-2.855-8.817l-23.28-19.674 3.011-30.333zm1.112 53.365l-20.759 4.539a8.78 8.78 0 00-6.253 5.259l-8.03 19.674-10.735-18.346a8.781 8.781 0 00-6.931-4.316l-21.192-1.557 14.129-15.877a8.78 8.78 0 001.965-7.927l-5.068-20.636 19.457 8.527a8.777 8.777 0 008.155-.577l18.061-11.197-2.098 21.145a8.779 8.779 0 003.069 7.574l16.23 13.715z" data-original="#000000"/><path d="M491.942 386.842l-24.885-21.981c-6.347-5.605-16.02-5.722-22.501-.273l-1.116.939c-1.1-3.964-3.11-7.716-6.059-10.892-3.603-3.881-8.178-6.536-13.218-7.73 2.907-8.928 1.028-19.133-5.799-26.488-4.856-5.231-11.458-8.257-18.59-8.52-.215-.008-.428-.005-.642-.008.327-6.924-2.011-13.968-7.087-19.437-4.796-5.167-11.297-8.177-18.329-8.505.634-7.264-1.68-14.758-7.019-20.509-4.856-5.231-11.458-8.257-18.59-8.52-7.134-.269-13.94 2.266-19.169 7.123l-3.544 3.292c-5.148-3.716-11.307-5.826-17.848-6.041a33.577 33.577 0 00-2.459.016l2.656-8.863c4.763-15.896 7.727-44.713 7.639-43.167.257.124.509.253.772.37a28.285 28.285 0 0011.512 2.44c4.495 0 8.969-1.065 12.967-3.182 8.323-4.406 14.23-13.616 14.7-22.919.447-8.853-3.722-16.67-11.738-22.013-3.432-2.285-8.067-1.359-10.353 2.072s-1.358 8.066 2.073 10.353c3.565 2.375 5.283 5.347 5.106 8.834-.207 4.102-3.056 8.508-6.774 10.476-3.409 1.806-7.781 1.921-11.411.301-2.318-1.033-5.323-3.232-6.473-7.835-3.425-13.709 4.429-27.316 13.522-43.07 16.471-28.537 36.969-64.05-5.939-114.766l-17.77-21.004c-3.579-4.231-8.591-6.81-14.113-7.264s-10.888 1.272-15.11 4.862a45.852 45.852 0 00-15.923 39.431l.887 8.972a14.562 14.562 0 01-4.727 12.215l9.621 11.44a29.503 29.503 0 009.964-25.124l-.887-8.972a30.914 30.914 0 0110.736-26.587 5.72 5.72 0 014.215-1.356 5.738 5.738 0 013.937 2.026l17.77 21.004c36.126 42.701 20.718 69.397 4.406 97.658-2.552 4.421-5.124 8.883-7.451 13.407-6.169-21.2-16.494-40.91-30.77-57.883l-34.17-40.627.192-.161a13.322 13.322 0 004.73-9.11 13.321 13.321 0 00-3.098-9.786l-10.918-12.981a13.322 13.322 0 00-9.11-4.73 13.331 13.331 0 00-9.787 3.097L43.434 161.979c-5.659 4.759-6.391 13.235-1.632 18.896l10.918 12.981a13.322 13.322 0 009.111 4.73 13.303 13.303 0 009.785-3.098l.193-.163 12.833 15.259a14.572 14.572 0 01-12.744 2.531l-8.693-2.386a45.85 45.85 0 00-41.551 9.049 20.57 20.57 0 00-7.339 14.075 20.564 20.564 0 004.781 15.135l17.709 21.055c42.759 50.841 81.22 36.623 112.124 25.197 13.947-5.156 26.339-9.736 37.465-8.13a173.46 173.46 0 006.237 1.636c.345.135.689.274 1.032.424 4.343 1.908 6.004 5.241 6.633 7.7.984 3.85.133 8.14-2.221 11.197-2.566 3.333-7.389 5.394-11.468 4.911-3.467-.414-6.107-2.608-7.848-6.522a7.467 7.467 0 00-13.644 6.068c3.915 8.802 10.919 14.229 19.72 15.28a24.75 24.75 0 002.934.173c8.382-.001 16.993-4.123 22.134-10.8 5.168-6.71 6.984-15.684 4.857-24.004-.049-.19-.108-.375-.161-.563a184.32 184.32 0 0020.641 1.167c7.458 0 15.002-.446 22.584-1.351l.661-.079a43.175 43.175 0 00-7.758 13.714l-29.347 72.186L64.837 498.616A7.465 7.465 0 0069.388 512H246.76a7.468 7.468 0 005.348-2.256l9.879-10.143a7.466 7.466 0 00-10.696-10.419l-7.681 7.887H91.346l140.742-108.217c.104-.08.197-.167.295-.251.067-.057.136-.112.201-.172.238-.218.459-.448.663-.69.04-.048.077-.099.116-.149.186-.232.356-.473.511-.723.029-.047.061-.092.089-.14.176-.298.328-.605.46-.921.009-.021.022-.04.03-.061l30.192-74.264c.058-.143.112-.288.161-.434a28.257 28.257 0 017.405-11.53l21.443-20.182c3.682-3.466 8.43-5.286 13.399-5.12 4.691.155 9.003 2.096 12.141 5.467 0 0-.001-.001 0 0l30.762 33.04.001.001-.001-.001.001.001-.001-.001c.002.002-.002-.002 0 0 1.566 1.682 2.38 3.904 2.295 6.256-.091 2.526-1.187 4.889-3.084 6.652l-4.323 4.017c-2.991 2.778-7.241 3.303-10.541 1.621-.086-.047-.176-.086-.265-.13a8.505 8.505 0 01-2.101-1.644l-10.887-11.712c-3.891-4.185-9.207-6.596-14.968-6.788-5.903-.193-11.559 1.947-15.905 6.037a7.467 7.467 0 00-2.332 5.949c.036.567.061 1.128.076 1.686.008.314.007.625.009.937.002.24.006.481.003.719-.004.398-.018.792-.033 1.185-.005.143-.009.286-.016.429-.022.444-.053.885-.089 1.322l-.014.172a7.552 7.552 0 00-.045.562c-.697 6.912-3.195 13.098-7.56 18.763a7.465 7.465 0 1011.827 9.112 52.957 52.957 0 006.373-10.589l63.499 86.849-1.515 1.274a7.427 7.427 0 00-2.631 1.565c-5.277 4.855-11.736 8.127-18.699 9.479l-46.751 3.36a7.466 7.466 0 00-4.813 2.237l-11.935 12.254a7.466 7.466 0 0010.695 10.419l9.954-10.221 44.347-3.186c.085-.006.168-.023.252-.032a17.032 17.032 0 002.465 7.719l17.39 28.283a17.217 17.217 0 0011.932 7.987 17.217 17.217 0 0013.841-3.823l105.218-88.492a17.222 17.222 0 006.14-12.98 17.221 17.221 0 00-5.823-13.128zm-348.19-105.606c-30.609 11.316-59.519 22.003-95.519-20.802l-17.709-21.055c-.994-1.183-1.468-2.682-1.333-4.222s.862-2.935 2.048-3.926a30.919 30.919 0 0128.016-6.102l8.693 2.386a29.51 29.51 0 0026.319-5.487l11.712 13.926c14.31 17.015 32.008 30.591 51.895 40.307-4.734 1.506-9.448 3.247-14.122 4.975zm149.687-35.077l-5.637 18.811a34.545 34.545 0 00-4.382 3.491l-7.143 6.723-20.222 2.416c-54.359 6.495-106.194-12.668-138.649-51.257l-34.169-40.627 13.339-11.219a7.465 7.465 0 00.908-10.519 7.464 7.464 0 00-10.519-.909l-19.05 16.021-.003.002-.003.003-4.74 3.987-8.962-10.655L224.42 29.271l8.962 10.656-4.733 3.981-.01.007-.009.008-114.739 96.5a7.466 7.466 0 009.611 11.428l109.034-91.704 34.169 40.627c32.456 38.591 42.45 92.941 26.734 145.385zm124.999 114.968a11.422 11.422 0 018 3.667 11.496 11.496 0 011.282 13.954l-32.529 27.359a11.353 11.353 0 01-9.34-3.619c-4.311-4.644-4.041-11.93.6-16.243l4.713-4.379a27.272 27.272 0 002.487-2.041l18.206-16.913a11.497 11.497 0 016.581-1.785zm-26.791-31.908a11.682 11.682 0 017.574-2.402 11.709 11.709 0 018.2 3.758c4.419 4.759 4.143 12.228-.615 16.648l-4.3 3.995a26.94 26.94 0 00-2.48 2.034l-18.228 16.934a11.641 11.641 0 01-6.764 1.841 11.709 11.709 0 01-8.2-3.758c-4.129-4.448-4.156-11.26-.258-15.74.254-.219.508-.44.755-.669l23.317-21.662c.344-.32.676-.646.999-.979zm-39.571-36.129l-16.057-17.247 3.081-2.863c2.306-2.142 5.308-3.237 8.454-3.142a11.709 11.709 0 018.2 3.758c4.419 4.759 4.142 12.228-.616 16.649l-3.062 2.845zm2.929 47.497l4.324-4.018c4.821-4.478 7.606-10.534 7.842-17.049.205-5.658-1.555-11.063-4.979-15.432l2.255-2.095a11.672 11.672 0 018.454-3.142 11.709 11.709 0 018.199 3.758c4.131 4.45 4.156 11.265.255 15.746a27.62 27.62 0 00-.751.664l-23.317 21.662c-.345.321-.679.649-1.003.983a11.613 11.613 0 01-6.017 2.345 24.509 24.509 0 004.738-3.422zm-52.185-12.528c.022-.563.042-1.125.047-1.693a6.98 6.98 0 012.717-.446c1.758.058 3.366.781 4.53 2.032l10.887 11.711a23.433 23.433 0 003.614 3.165 26.337 26.337 0 004.956 7.636c4.856 5.231 11.458 8.257 18.591 8.521.215.007.428.009.642.012-.326 6.922 2.012 13.965 7.087 19.432 3.638 3.919 8.256 6.6 13.343 7.81-2.972 8.88-1.133 19.077 5.673 26.408a26.19 26.19 0 006.477 5.072l-8.057 6.776-70.507-96.436zm179.194 73.462l-105.218 88.492a2.276 2.276 0 01-1.849.511 2.276 2.276 0 01-1.594-1.067l-17.39-28.284a2.287 2.287 0 01.479-2.967l97.723-82.19.004-.003-.004.003a2.298 2.298 0 011.482-.537c.547 0 1.093.192 1.524.573l24.885 21.981c.688.608.783 1.36.778 1.755a2.27 2.27 0 01-.82 1.733z" data-original="#000000"/></svg><svg viewBox="0 0 512 512" id="24" xmlns="http://www.w3.org/2000/svg"><path d="M438.296 211.946C425.381 214.294 416 225.541 416 238.667v24.659c0 13.13 9.39 24.381 22.308 26.73l2.998.545c-13.666 73.358-69.951 131.912-142.101 148.896-1.837-13.461-13.334-23.497-26.92-23.497h-32.573c-13.585 0-25.081 10.033-26.916 23.493-5.338 39.145 24.767 66.473 57.522 64.599 126.228-7.221 227.22-108.494 233.84-235.01 1.802-34.424-28.265-63.972-65.862-57.136z" fill="#37BE75" data-original="#ff5368"/><path d="M465.989 213.563c-3.359 10.573-.581 22.036 6.971 30.163 5.892 6.34 9.21 14.997 8.73 24.18-6.031 115.251-97.453 207.133-212.655 213.724a32.893 32.893 0 01-18.883-4.705c-9.493-5.754-21.23-6.351-30.951-.993l-.104.057c10.134 18.385 30.12 29.311 51.223 28.104 126.228-7.221 227.22-108.494 233.84-235.01 1.326-25.356-14.646-48.045-38.171-55.52z" fill="#12A153" data-original="#d9435b"/><path d="M490.667 219.064c-14.421-12.689-33.92-17.926-53.484-14.367-16.494 2.999-28.466 17.348-28.466 34.117v24.675c0 15.208 9.845 28.426 23.98 32.995-14.758 64.79-63.99 116.383-128.036 134.186-5.15-12.922-17.826-21.911-32.235-21.911h-32.591c-17.258 0-32.03 12.896-34.361 29.995-1.282 9.405-.737 18.505 1.489 26.97-7.128-.861-13.92-2.102-20.531-3.762C85.495 436.609 15 346.117 15 241.899 15 116.787 116.775 15 241.874 15c97.691 0 183.603 62.243 214.695 153.368a7.497 7.497 0 00-4.941 13.94l13.356 7.405a7.441 7.441 0 001.131.554 7.473 7.473 0 001.796.464c.028.004.056.005.084.008.255.03.513.046.773.049.036.001.073.007.109.007.033 0 .066-.006.099-.007.273-.004.547-.022.822-.057.051-.006.101-.008.152-.016a7.51 7.51 0 00.782-.156c.036-.009.069-.022.104-.032.036-.01.073-.013.109-.023.127-.036.249-.084.373-.127.065-.022.132-.043.197-.067.182-.068.358-.146.533-.228.047-.022.096-.042.143-.065.189-.093.372-.196.552-.304.027-.017.055-.031.082-.048.199-.124.392-.257.579-.398l.01-.007a7.507 7.507 0 002.024-2.33l7.545-13.616a7.5 7.5 0 00-2.926-10.195c-3.016-1.671-6.682-1.037-8.985 1.313C438.187 66.779 346.348 0 241.874 0 177.267 0 116.527 25.162 70.843 70.851S0 177.286 0 241.899c0 54.995 17.985 106.819 52.01 149.871 33 41.754 79.442 71.848 130.769 84.741 9.777 2.455 19.871 4.077 30.728 4.942a61.634 61.634 0 007.813 10.518C233.195 504.816 249.761 512 267.233 512c1.214 0 2.433-.035 3.654-.105 62.954-3.601 122.172-30.24 166.745-75.011 44.6-44.799 70.98-104.195 74.28-167.244 1.013-19.369-6.731-37.803-21.245-50.576zm6.265 49.792C490.497 391.842 392.95 489.888 270.03 496.92c-14.315.802-28.05-4.698-37.697-15.132-9.884-10.691-14.144-25.254-11.996-41.007 1.323-9.704 9.706-17.022 19.499-17.022h32.591c9.667 0 17.947 7.135 19.432 16.655v3.362c0 4.143 3.357 7.5 7.5 7.5 3.484 0 6.405-2.379 7.247-5.599 34.706-9.246 66.143-27.855 91.204-54.065 25.076-26.224 42.249-58.482 49.908-93.606 3.177-.872 5.514-3.772 5.514-7.226 0-4.143-3.357-7.5-7.5-7.5h-3.52l-2.334-.425a19.674 19.674 0 01-16.161-19.367v-24.675c0-9.516 6.792-17.658 16.149-19.359 15.254-2.769 29.773 1.088 40.891 10.871 11.052 9.726 16.948 23.769 16.175 38.531z" data-original="#000000"/><path d="M380.128 78.377a7.5 7.5 0 00-10.606.001L79.368 368.562a7.5 7.5 0 1010.607 10.605L380.129 88.984a7.501 7.501 0 00-.001-10.607zm-272.617 94.901L66.073 209.49c-5.205 4.549-1.977 13.156 4.938 13.156h50.026c4.144 0 7.504-3.398 7.504-7.544a7.504 7.504 0 00-7.504-7.504H91.074l26.335-22.985c22.539-19.673 8.637-57.065-21.385-57.065-30.763 0-41.215 40.045-24.994 40.045a7.505 7.505 0 007.504-7.505c0-9.645 7.846-17.492 17.49-17.492 16.088 0 23.645 20.06 11.487 30.682zm40.443-26.665l-15.991 46.055c-1.691 4.873 1.933 9.966 7.089 9.966h37.499c-.002 12.85-.645 14.964 2.207 17.814 4.72 4.724 12.841 1.339 12.841-5.326v-12.488h12.469a7.503 7.503 0 007.504-7.505 7.502 7.502 0 00-7.504-7.543h-12.469l-.039-52.521a7.504 7.504 0 00-15.008.006v52.514h-26.917c.155-.446 12.413-35.648 12.534-36.105 2.66-10.124-11.138-13.733-14.215-4.867zm128.315 195.288a7.46 7.46 0 003.342.792c2.751 0 5.4-1.521 6.713-4.15l39.982-80.104a7.496 7.496 0 00-6.707-10.845h-45.956a7.496 7.496 0 00-7.496 7.497 7.496 7.496 0 007.496 7.497h33.836l-34.568 69.259a7.494 7.494 0 003.358 10.054z" data-original="#000000"/></svg><svg viewBox="0 0 512.255 512.255" id="50home" xmlns="http://www.w3.org/2000/svg"><path fill="#FEF0AE" d="M512.247 115.083H294.162c-4.143 0-7.5 3.357-7.5 7.5s3.357 7.5 7.5 7.5h218.085z" data-original="#fef0ae"/><path fill="#FEDBA6" d="M294.165 167.393v114.57h-152.9V78.643l108.68-31.69 41.418 29.682a6.71 6.71 0 012.802 5.455z" data-original="#fedba6"/><path fill="#FBC56D" d="M205.725 217.803v64.16h-64.46V78.643h64.46z" data-original="#fbc56d"/><path fill="#D77F4A" d="M249.945 46.953l-44.22 31.69h-64.46l42.601-30.53a6.197 6.197 0 013.611-1.16z" data-original="#d77f4a"/><path fill="#FEDBA6" d="M172.235 252.783v37.22H44.875v-118.15l90.53-26.4 33.143 23.757a8.832 8.832 0 013.687 7.178z" data-original="#fedba6"/><path fill="#FBC56D" d="M98.575 288.123v1.88h-53.7v-118.15h53.7v98.06z" data-original="#fbc56d"/><path fill="#37BE75" d="M512.245 167.393l.01 305.41h-512V272.529h132.381c15.22 0 29.73-6.368 40.011-17.567l64.277-70.012c10.27-11.188 24.791-17.557 40.011-17.557h153.817z" data-original="#97da7b"/><path fill="#FEDBA6" d="M471.555 353.563v5.67h-202.65V205.927c0-3.43 1.653-6.649 4.44-8.647l54.16-38.827 144.05 42.01z" data-original="#fedba6"/><path fill="#FBC56D" d="M386.115 200.463h85.44v153.77h-85.44v-8.74z" data-original="#fbc56d"/><path fill="#D77F4A" d="M327.505 158.453h82.836c1.693 0 3.344.531 4.72 1.517l56.494 40.493h-85.44z" data-original="#d77f4a"/><path fill="#FEDBA6" d="M217.655 316.233h-.11l-58.61 44.122v112.448h195.17V357.632c0-1.832-.841-3.551-2.258-4.617z" data-original="#fedba6"/><path fill="#FBC56D" d="M354.105 357.246v115.557h-77.95v-114.57l-54.66-42 130.651 37.006c1.23.926 1.959 2.417 1.959 4.007z" data-original="#fbc56d"/><path fill="#D77F4A" d="M354.105 354.934v3.299h-77.95l-48.79-34.96-5.87-4.21-3.84-2.83h84.047c.834 0 1.647.261 2.326.747l48.394 34.677a4.03 4.03 0 011.683 3.277z" data-original="#d77f4a"/><path fill="#99D5B9" d="M489.574 348.033a35.147 35.147 0 002.767-15.552c-.857-17.658-15.028-32.145-32.665-33.356-20.562-1.412-37.68 14.849-37.68 35.108 0 4.897 1.001 9.56 2.808 13.796.794 1.861.318 3.99-1.113 5.419-8.914 8.898-14.311 21.318-13.901 35.001.76 25.376 21.816 45.864 47.203 45.967 26.281.107 47.619-21.165 47.619-47.421 0-13.163-5.371-25.065-14.032-33.656-1.396-1.383-1.777-3.499-1.006-5.306z" data-original="#99d5b9"/><path fill="#7ACAA6" d="M432.704 390.471c-.41-13.683 4.987-26.103 13.901-35.001 1.432-1.429 1.907-3.559 1.113-5.419a35.08 35.08 0 01-2.808-13.796c0-16.481 11.33-30.315 26.625-34.142a34.607 34.607 0 00-11.859-2.989c-20.562-1.412-37.68 14.849-37.68 35.108 0 4.897 1.001 9.56 2.808 13.796.794 1.861.318 3.99-1.113 5.419-8.914 8.898-14.311 21.318-13.901 35.001.76 25.376 21.816 45.864 47.203 45.967a47.757 47.757 0 007.678-.595c-18.079-6.295-31.367-23.289-31.967-43.349z" data-original="#7acaa6"/><path fill="#57BE92" d="M421.069 347.998a35.157 35.157 0 002.753-15.518c-.857-17.658-15.028-32.145-32.665-33.356-20.562-1.412-37.68 14.849-37.68 35.108 0 4.889.998 9.545 2.8 13.776.798 1.873.32 4.016-1.12 5.454-8.905 8.897-14.295 21.31-13.886 34.986.76 25.376 21.816 45.864 47.203 45.967 26.281.107 47.619-21.165 47.619-47.421 0-13.15-5.36-25.041-14.006-33.629-1.411-1.4-1.797-3.538-1.018-5.367z" data-original="#57be92"/><path fill="#22B27F" d="M364.044 391.228c-.41-13.676 4.981-26.089 13.886-34.986 1.44-1.439 1.918-3.582 1.12-5.454a35.075 35.075 0 01-2.8-13.777c0-16.903 11.919-31.013 27.809-34.407a34.596 34.596 0 00-12.903-3.479c-20.562-1.412-37.68 14.849-37.68 35.108 0 4.889.998 9.545 2.8 13.776.798 1.873.32 4.016-1.12 5.455-8.905 8.897-14.295 21.31-13.886 34.986.76 25.376 21.816 45.864 47.203 45.967a47.83 47.83 0 006.079-.376c-17.33-6.686-29.923-23.298-30.508-42.813z" data-original="#22b27f"/><path fill="#99D5B9" d="M23.178 348.842c-2.26-4.946-3.409-10.506-3.125-16.361.857-17.658 15.028-32.145 32.665-33.356 20.562-1.412 37.68 14.849 37.68 35.108a35.061 35.061 0 01-3.167 14.608c-.603 1.32-.33 2.87.719 3.872 9.362 8.943 15.075 21.672 14.654 35.736-.76 25.376-21.816 45.864-47.203 45.967-26.281.107-47.619-21.165-47.619-47.421 0-13.482 5.634-25.642 14.668-34.275a3.393 3.393 0 00.728-3.878z" data-original="#99d5b9"/><path fill="#7ACAA6" d="M29.26 389.261c0-13.482 5.634-25.642 14.668-34.275a3.393 3.393 0 00.727-3.879c-2.26-4.946-3.409-10.506-3.125-16.361.778-16.042 12.546-29.463 27.917-32.695-5.062-2.244-10.748-3.337-16.729-2.926-17.637 1.211-31.808 15.698-32.665 33.356-.284 5.855.865 11.415 3.125 16.361a3.393 3.393 0 01-.727 3.879c-9.034 8.633-14.668 20.792-14.668 34.275 0 26.256 21.338 47.528 47.619 47.421a47.055 47.055 0 005.661-.378c-18.515-6.459-31.803-24.062-31.803-44.778z" data-original="#7acaa6"/><path fill="#FCCD7F" d="M239.507 464.362h-43.929a2.483 2.483 0 01-2.483-2.483V433.45c0-13.502 10.945-24.447 24.447-24.447 13.502 0 24.447 10.945 24.447 24.447v28.429a2.482 2.482 0 01-2.482 2.483z" data-original="#fccd7f"/><path fill="#FBC56D" d="M223.7 380.219h-12.315a6.937 6.937 0 01-6.937-6.937v-12.315a6.937 6.937 0 016.937-6.937H223.7a6.937 6.937 0 016.937 6.937v12.315a6.937 6.937 0 01-6.937 6.937z" data-original="#fbc56d"/><path fill="#D77F4A" d="M84.266 145.453a7.94 7.94 0 00-4.624 1.486l-34.767 24.915h53.7l36.83-26.4H84.266z" data-original="#d77f4a"/><path fill="#FBC56D" d="M343.267 247.692h-28.274a4.903 4.903 0 01-4.903-4.903v-28.274a4.903 4.903 0 014.903-4.903h28.274a4.903 4.903 0 014.903 4.903v28.274a4.903 4.903 0 01-4.903 4.903zM262.77 126.69h-23.769a4.903 4.903 0 01-4.903-4.903V98.018a4.903 4.903 0 014.903-4.903h23.769a4.903 4.903 0 014.903 4.903v23.769a4.903 4.903 0 01-4.903 4.903z" data-original="#fbc56d"/><path fill="#57BE92" d="M91.392 347.239a35.171 35.171 0 01-2.44-14.758c.857-17.658 15.028-32.145 32.665-33.356 20.562-1.412 37.68 14.849 37.68 35.108 0 4.593-.88 8.979-2.481 13.002-.915 2.3-.469 4.918 1.258 6.692 8.632 8.862 13.832 21.083 13.429 34.523-.76 25.376-21.816 45.864-47.203 45.967-26.281.107-47.619-21.165-47.619-47.421 0-12.854 5.122-24.506 13.428-33.046 1.734-1.782 2.202-4.402 1.283-6.711z" data-original="#57be92"/><path fill="#22B27F" d="M100.872 387.393c0-12.854 5.121-24.506 13.428-33.046 1.733-1.782 2.202-4.402 1.282-6.711a35.171 35.171 0 01-2.44-14.758c.704-14.504 10.394-26.862 23.607-31.488a35.226 35.226 0 00-15.132-2.266c-17.637 1.211-31.809 15.698-32.666 33.356a35.171 35.171 0 002.44 14.758c.919 2.31.451 4.929-1.282 6.711-8.306 8.54-13.428 20.191-13.428 33.046 0 26.256 21.338 47.528 47.619 47.421a46.865 46.865 0 0011.114-1.387c-19.929-5.614-34.542-23.912-34.542-45.636z" data-original="#22b27f"/><path d="M504.612 457.699H464.69v-16.308c26.747-3.67 47.422-26.657 47.422-54.396a54.856 54.856 0 00-14.978-37.676 42.857 42.857 0 002.75-15.087c0-15.552-8.363-29.184-20.824-36.649v-95.095c0-3.684-1.788-7.162-4.778-9.303l-25.527-18.295h55.852c4.143 0 7.5-3.357 7.5-7.5s-3.357-7.5-7.5-7.5h-76.781l-10.506-7.529a7.5 7.5 0 00-4.369-1.404H327.51a7.5 7.5 0 00-4.369 1.404l-10.506 7.529h-10.974v-29.808h202.944c4.143 0 7.5-3.357 7.5-7.5s-3.357-7.5-7.5-7.5H301.662V88.616h202.944c4.143 0 7.5-3.357 7.5-7.5s-3.357-7.5-7.5-7.5h-204.89a7.5 7.5 0 00-1.185-1.069l-44.217-31.689a7.5 7.5 0 00-4.369-1.404h-64.459a7.5 7.5 0 00-4.369 1.404L136.9 72.547a7.5 7.5 0 00-3.131 6.096v59.315H81.711a7.5 7.5 0 00-4.369 1.404L40.51 165.758a7.5 7.5 0 00-3.131 6.096v90.559H7.5c-4.142 0-7.5 3.357-7.5 7.5s3.358 7.5 7.5 7.5h128.222c16.851 0 33.039-7.13 44.413-19.563l62.46-68.271a45.306 45.306 0 0133.346-14.688h15.765l-24.876 17.828a13.028 13.028 0 00-5.429 10.568v55.483c0 4.143 3.357 7.5 7.5 7.5s7.5-3.357 7.5-7.5v-54.457l51.11-36.629 51.109 36.63v88.431c-18.706 4.532-32.644 21.408-32.644 41.487 0 1.237.057 2.472.165 3.702l-38.789-27.799a7.5 7.5 0 00-4.369-1.404h-26.582v-17.997c0-4.143-3.357-7.5-7.5-7.5s-7.5 3.357-7.5 7.5v17.997h-43.858a7.5 7.5 0 00-4.369 1.404l-47.57 34.092a42.805 42.805 0 001.194-9.994c0-23.542-19.152-42.694-42.694-42.694-13.995 0-26.438 6.769-34.229 17.205-7.84-10.593-20.369-17.205-34.291-17.205-23.542 0-42.694 19.152-42.694 42.694 0 5.161.941 10.286 2.75 15.087A54.854 54.854 0 00.662 386.996c0 27.739 20.675 50.726 47.422 54.396V457.7H7.5c-4.142 0-7.5 3.357-7.5 7.5s3.358 7.5 7.5 7.5h497.112c4.143 0 7.5-3.357 7.5-7.5s-3.358-7.501-7.5-7.501zM187.896 54.452h38.709l-23.287 16.689h-38.709zM84.122 152.957h27.943l-15.902 11.396H68.22zm21.95 109.455v-16.653c0-4.143-3.358-7.5-7.5-7.5s-7.5 3.357-7.5 7.5v16.653H52.379v-83.059h38.692v34.442c0 4.143 3.358 7.5 7.5 7.5s7.5-3.357 7.5-7.5v-38.09l29.332-21.021 29.331 21.021v76.141c-8.084 6.762-18.368 10.565-29.013 10.565h-29.649zm125.456-82.959l-18.301 20.004v-60.894c0-4.143-3.358-7.5-7.5-7.5s-7.5 3.357-7.5 7.5v77.289l-18.492 20.212v-64.211a7.5 7.5 0 00-3.131-6.096l-27.836-19.95V86.142h49.459v20.46c0 4.143 3.358 7.5 7.5 7.5s7.5-3.357 7.5-7.5V82.494l36.717-26.315 36.717 26.315v77.396H275.94c-16.849.001-33.036 7.131-44.412 19.563zm-99.924 261.939a54.49 54.49 0 0019.83-6.788v23.095h-19.83zm68.992 15.47V433.45c0-9.344 7.603-16.946 16.947-16.946 9.345 0 16.947 7.603 16.947 16.946v23.412zm83.056.837v-91.964h54.396a54.813 54.813 0 00-4.3 21.26c0 14.227 5.439 27.207 14.345 36.972v33.732zm79.44-22.123a54.47 54.47 0 0018.077 5.815v16.308h-18.077zm33.077 5.816c10.027-1.376 19.195-5.464 26.745-11.504A54.132 54.132 0 00449.69 441.4v16.3h-53.521zm87.046-84.652a39.902 39.902 0 0113.896 30.256c0 19.449-13.983 35.685-32.422 39.205v-7.218c0-4.143-3.357-7.5-7.5-7.5s-7.5 3.357-7.5 7.5v7.227a39.31 39.31 0 01-16.401-7.25c6.474-9.012 10.302-20.046 10.302-31.965a54.857 54.857 0 00-14.978-37.676 42.849 42.849 0 002.75-15.087c0-2.661-.257-5.262-.725-7.79 3.432-11.787 14.13-19.903 26.551-19.903 15.271 0 27.694 12.423 27.694 27.693 0 4.625-1.162 9.2-3.36 13.233a7.506 7.506 0 001.693 9.275zm-26.025-65.201c-13.922 0-26.45 6.612-34.291 17.205-6.858-9.186-17.325-15.521-29.279-16.909v-83.873h70.44V292.1a42.753 42.753 0 00-6.87-.561zM350.849 165.957h59.69l37.68 27.005h-59.69zm37.82 140.582c15.271 0 27.694 12.423 27.694 27.693a27.71 27.71 0 01-3.36 13.232 7.501 7.501 0 001.691 9.274 39.902 39.902 0 0113.896 30.256c0 19.449-13.983 35.685-32.422 39.205v-33.106l11.301-9.954a7.5 7.5 0 00-9.914-11.256l-1.387 1.221v-8.162c0-4.143-3.357-7.5-7.5-7.5s-7.5 3.357-7.5 7.5v61.257c-18.439-3.521-32.422-19.757-32.422-39.205a39.903 39.903 0 0113.896-30.256 7.498 7.498 0 001.691-9.273 27.727 27.727 0 01-3.359-13.233c.002-15.27 12.425-27.693 27.695-27.693zm-50.416 44.197h-59.692l-37.68-27.005h59.691zm-120.71-25.278l51.109 36.63v95.611H249.49v-24.25c0-17.615-14.332-31.946-31.947-31.946s-31.947 14.331-31.947 31.946v24.25h-19.163v-34.886a7.73 7.73 0 00-.045-.81c7.888-9.511 12.638-21.715 12.638-35.008a54.814 54.814 0 00-7.873-28.291zm-93.439-18.92c15.271 0 27.694 12.424 27.694 27.694 0 4.626-1.162 9.202-3.36 13.233a7.5 7.5 0 001.691 9.273 39.9 39.9 0 0113.897 30.256c0 19.449-13.983 35.685-32.422 39.205v-61.257c0-4.143-3.358-7.5-7.5-7.5s-7.5 3.357-7.5 7.5v8.161l-1.386-1.221a7.5 7.5 0 10-9.915 11.256l11.301 9.955v33.106c-18.439-3.521-32.422-19.757-32.422-39.205a39.903 39.903 0 0113.896-30.256 7.499 7.499 0 001.691-9.273 27.722 27.722 0 01-3.36-13.233c0-15.27 12.424-27.694 27.695-27.694zM15.662 386.995a39.903 39.903 0 0113.896-30.256 7.499 7.499 0 001.691-9.273 27.722 27.722 0 01-3.36-13.233c0-15.271 12.424-27.694 27.694-27.694 12.422 0 23.119 8.116 26.551 19.904a42.743 42.743 0 00-.725 7.79c0 5.161.941 10.286 2.75 15.087a54.854 54.854 0 00-14.978 37.676c0 11.918 3.828 22.953 10.303 31.965a39.315 39.315 0 01-16.401 7.249v-7.227c0-4.143-3.358-7.5-7.5-7.5s-7.5 3.357-7.5 7.5v7.218c-18.438-3.521-32.421-19.757-32.421-39.206zM63.083 441.4a54.15 54.15 0 0026.775-11.512c7.55 6.04 16.718 10.129 26.745 11.505v16.308h-53.52z" data-original="#000000"/><path d="M211.385 387.719H223.7c7.96 0 14.437-6.477 14.437-14.437v-12.314c0-7.96-6.476-14.437-14.437-14.437h-12.315c-7.96 0-14.437 6.477-14.437 14.437v12.314c.001 7.96 6.477 14.437 14.437 14.437zm.564-26.187h11.188v11.188h-11.188zm103.044-106.34h28.274c6.839 0 12.402-5.563 12.402-12.402v-28.274c0-6.839-5.563-12.402-12.402-12.402h-28.274c-6.839 0-12.403 5.563-12.403 12.402v28.274c-.001 6.838 5.564 12.402 12.403 12.402zm2.596-38.079h23.08v23.079h-23.08zM262.77 85.616h-23.769c-6.839 0-12.403 5.563-12.403 12.402v23.77c0 6.839 5.564 12.403 12.403 12.403h23.769c6.839 0 12.403-5.564 12.403-12.403v-23.77c0-6.839-5.564-12.402-12.403-12.402zm-2.597 33.575h-18.575v-18.575h18.575z" data-original="#000000"/></svg><svg viewBox="0 0 512 512" id="5age" xmlns="http://www.w3.org/2000/svg"><path fill="#F4FBFF" d="M117.222 7.499h254.439c16.351 0 29.606 13.255 29.606 29.606v437.789c0 16.351-13.255 29.606-29.606 29.606H39.899c-16.351 0-29.606-13.255-29.606-29.606V114.429a29.604 29.604 0 018.672-20.935l77.323-77.323a29.601 29.601 0 0120.934-8.672z" data-original="#f4fbff"/><path fill="#E4F6FF" d="M371.661 7.499h-63.573c16.351 0 29.606 13.255 29.606 29.606v437.789c0 16.351-13.255 29.606-29.606 29.606h63.573c16.351 0 29.606-13.255 29.606-29.606V37.106c.001-16.352-13.255-29.607-29.606-29.607z" data-original="#e4f6ff"/><path fill="#E1F1FF" d="M18.965 93.494l77.323-77.323a29.6 29.6 0 018.672-6.012V83.81c0 10.137-8.218 18.355-18.355 18.355H12.953a29.583 29.583 0 016.012-8.671z" data-original="#e28086"/><path fill="#37BE75" d="M328.383 102.165H174.415a9.312 9.312 0 01-9.312-9.312V68.519a9.312 9.312 0 019.312-9.312h153.968a9.312 9.312 0 019.312 9.312v24.334a9.312 9.312 0 01-9.312 9.312z" data-original="#cbe2ff"/><path fill="#37BE75" d="M433.184 447.884l-27.503-16.931a8.418 8.418 0 00-8.826 0l-27.503 16.931c-5.608 3.453-12.83-.582-12.83-7.168V331.792h89.493v108.923c-.001 6.586-7.223 10.621-12.831 7.169z" data-original="#e8ae4d"/><path fill="#FFE07D" d="M419.052 180.732a22.487 22.487 0 0024.083 7.825c14.121-4.121 28.33 6.203 28.775 20.906a22.486 22.486 0 0014.884 20.486c13.846 4.967 19.274 21.671 10.991 33.827a22.487 22.487 0 000 25.322c8.282 12.156 2.855 28.861-10.991 33.827a22.486 22.486 0 00-14.884 20.486c-.445 14.703-14.654 25.027-28.775 20.906a22.487 22.487 0 00-24.083 7.825c-9.002 11.634-26.566 11.634-35.568 0a22.487 22.487 0 00-24.083-7.825c-14.121 4.12-28.33-6.203-28.775-20.906a22.486 22.486 0 00-14.884-20.486c-13.846-4.967-19.274-21.671-10.991-33.827a22.487 22.487 0 000-25.322c-8.282-12.156-2.855-28.861 10.991-33.827a22.486 22.486 0 0014.884-20.486c.445-14.703 14.654-25.027 28.775-20.906a22.487 22.487 0 0024.083-7.825c9.002-11.634 26.565-11.634 35.568 0z" data-original="#ffe07d"/><path fill="#FFD064" d="M497.785 289.099a22.487 22.487 0 010-25.322c8.283-12.157 2.855-28.861-10.991-33.827a22.486 22.486 0 01-14.884-20.486c-.445-14.703-14.654-25.027-28.775-20.906a22.487 22.487 0 01-24.083-7.825c-9.002-11.634-26.566-11.634-35.568 0a22.473 22.473 0 01-4.339 4.264c34.712 15.813 58.842 50.809 58.842 91.441s-24.13 75.629-58.842 91.441a22.445 22.445 0 014.339 4.264c9.002 11.634 26.566 11.634 35.568 0a22.487 22.487 0 0124.083-7.825c14.121 4.121 28.33-6.203 28.775-20.906a22.487 22.487 0 0114.884-20.486c13.846-4.967 19.273-21.671 10.991-33.827z" data-original="#ffd064"/><circle cx="401.268" cy="276.438" r="55.355" fill="#37BE75" data-original="#e8ae4d"/><path fill="#37BE75" d="M456.622 276.438c0-22.261-13.14-41.452-32.087-50.241 8.555 14.778 13.451 31.938 13.451 50.241s-4.897 35.463-13.451 50.241c18.947-8.789 32.087-27.981 32.087-50.241z" data-original="#e5a32e"/><path fill="#E1F1FF" d="M18.965 93.494l77.323-77.323a29.6 29.6 0 018.672-6.012V83.81c0 10.137-8.218 18.355-18.355 18.355H12.953a29.583 29.583 0 016.012-8.671z" data-original="#e28086"/><path d="M258.773 181.506H66.789a7.5 7.5 0 000 14.998h191.985a7.5 7.5 0 10-.001-14.998zm0 52.696H66.789a7.5 7.5 0 000 14.998h191.985a7.5 7.5 0 10-.001-14.998zm0 52.695H66.789a7.5 7.5 0 000 14.998h191.985a7.5 7.5 0 10-.001-14.998zm7.5 60.196a7.498 7.498 0 00-7.499-7.499H66.789a7.5 7.5 0 000 14.998h191.985a7.498 7.498 0 007.499-7.499zM66.789 416.821a7.5 7.5 0 000 14.998h96.238a7.5 7.5 0 000-14.998zM345.194 92.853V68.519c0-9.27-7.541-16.812-16.812-16.812H174.415c-9.27 0-16.811 7.542-16.811 16.812v24.334c0 9.27 7.541 16.811 16.811 16.811h13.002a7.5 7.5 0 000-14.998h-13.002a1.814 1.814 0 01-1.812-1.812V68.519c0-.999.813-1.813 1.812-1.813h153.967c1 0 1.813.813 1.813 1.813v24.334c0 .999-.813 1.812-1.813 1.812H222.477a7.5 7.5 0 000 14.998h105.906c9.27.002 16.811-7.54 16.811-16.81z" data-original="#000000"/><path d="M401.268 457.296a7.5 7.5 0 00-7.499 7.499v10.099c0 12.189-9.917 22.107-22.108 22.107H39.899c-12.189 0-22.107-9.917-22.107-22.107V114.428c0-1.623.19-3.215.529-4.764h68.283c14.256 0 25.854-11.598 25.854-25.854V15.528a22.247 22.247 0 014.763-.529H371.66c12.19 0 22.108 9.917 22.108 22.107v99.842a7.5 7.5 0 0014.998 0V37.105C408.767 16.646 392.121 0 371.661 0H117.222c-9.911 0-19.23 3.86-26.238 10.868L13.661 88.191c-7.008 7.008-10.867 16.326-10.867 26.238v360.466c0 20.46 16.645 37.105 37.105 37.105h331.762c20.46 0 37.106-16.646 37.106-37.105v-10.099a7.5 7.5 0 00-7.499-7.5zM97.46 25.604V83.81c0 5.986-4.87 10.856-10.856 10.856H28.398z" data-original="#000000"/><path d="M503.982 267.999c5.264-7.727 6.626-17.258 3.737-26.15s-9.594-15.802-18.394-18.958c-5.838-2.094-9.733-7.454-9.919-13.654-.283-9.345-4.784-17.857-12.349-23.353-7.563-5.495-17.051-7.144-26.023-4.526-5.958 1.738-12.255-.31-16.051-5.215-5.721-7.395-14.365-11.636-23.715-11.636-9.349 0-17.994 4.241-23.716 11.636-3.796 4.906-10.097 6.951-16.05 5.215-8.973-2.62-18.46-.969-26.025 4.526-7.564 5.496-12.063 14.007-12.347 23.352-.187 6.2-4.081 11.559-9.92 13.654-8.8 3.156-15.505 10.067-18.393 18.958-2.889 8.892-1.527 18.424 3.737 26.15 3.492 5.127 3.492 11.751 0 16.877-5.264 7.727-6.626 17.258-3.737 26.15 2.888 8.892 9.593 15.802 18.393 18.959 5.839 2.095 9.734 7.454 9.92 13.654a29.983 29.983 0 0025.893 28.8v68.278a15.93 15.93 0 008.154 13.895 15.93 15.93 0 0016.107-.341l27.505-16.932c.448-.277.715-.152.962 0l27.503 16.932a15.932 15.932 0 0016.108.34 15.93 15.93 0 008.154-13.895v-68.279a29.98 29.98 0 0025.893-28.799c.186-6.2 4.081-11.56 9.919-13.654 8.801-3.156 15.506-10.067 18.394-18.959 2.889-8.892 1.527-18.423-3.737-26.15-3.496-5.124-3.496-11.748-.003-16.875zm-66.867 173.499l-27.504-16.932a15.917 15.917 0 00-16.687 0l-27.504 16.931a.912.912 0 01-1.399-.782v-69.701c5.156-.597 10.268 1.501 13.531 5.718 5.723 7.394 14.367 11.635 23.717 11.635 9.349 0 17.993-4.241 23.714-11.635 3.264-4.218 8.377-6.315 13.532-5.718v69.701a.913.913 0 01-1.4.783zm54.472-148.176c2.632 3.862 3.312 8.625 1.868 13.069s-4.795 7.898-9.194 9.476c-11.682 4.19-19.472 14.913-19.847 27.318-.133 4.361-2.05 8.292-5.397 11.07-3.763 3.123-8.859 4.301-13.781 2.865-11.913-3.476-24.52.62-32.116 10.434a14.887 14.887 0 01-11.853 5.815 14.89 14.89 0 01-11.854-5.815c-5.799-7.496-14.52-11.656-23.623-11.656a30.28 30.28 0 00-8.49 1.221c-4.97 1.448-10.051.234-13.784-2.865-3.347-2.778-5.264-6.709-5.395-11.069-.376-12.405-8.166-23.128-19.849-27.319a14.89 14.89 0 01-9.193-9.475 14.884 14.884 0 011.868-13.07c6.987-10.257 6.987-23.51 0-33.767a14.886 14.886 0 01-1.868-13.071 14.885 14.885 0 019.193-9.475c11.683-4.191 19.473-14.914 19.849-27.319a14.88 14.88 0 016.17-11.671 14.888 14.888 0 0113.008-2.263c11.91 3.477 24.52-.62 32.114-10.434a14.887 14.887 0 0111.854-5.816c4.673 0 8.993 2.119 11.853 5.815 7.595 9.815 20.199 13.911 32.115 10.435a14.881 14.881 0 0113.007 2.262 14.88 14.88 0 016.171 11.671c.376 12.405 8.166 23.129 19.848 27.319a14.886 14.886 0 019.194 9.475 14.884 14.884 0 01-1.868 13.07c-6.989 10.258-6.989 23.513 0 33.77z" data-original="#000000"/><path d="M401.268 213.583c-34.658 0-62.854 28.196-62.854 62.854s28.196 62.854 62.854 62.854c34.657 0 62.853-28.196 62.853-62.854s-28.196-62.854-62.853-62.854zm0 110.71c-26.388 0-47.856-21.468-47.856-47.855s21.468-47.856 47.856-47.856 47.855 21.468 47.855 47.856-21.468 47.855-47.855 47.855z" data-original="#000000"/></svg><svg viewBox="0 0 451.846 451.847" id="arrow" xmlns="http://www.w3.org/2000/svg"><path d="M345.441 248.292L151.154 442.573c-12.359 12.365-32.397 12.365-44.75 0-12.354-12.354-12.354-32.391 0-44.744L278.318 225.92 106.409 54.017c-12.354-12.359-12.354-32.394 0-44.748 12.354-12.359 32.391-12.359 44.75 0l194.287 194.284c6.177 6.18 9.262 14.271 9.262 22.366 0 8.099-3.091 16.196-9.267 22.373z" data-original="#000000"/></svg><svg viewBox="0 0 512 512" id="arrow-btn" xmlns="http://www.w3.org/2000/svg"><path d="M463.083 271.083L313.75 420.417a21.331 21.331 0 01-30.167-30.167L396.5 277.333H64a21.333 21.333 0 010-42.666h332.5L283.583 121.75a21.331 21.331 0 0130.167-30.167l149.333 149.334a21.324 21.324 0 010 30.166z" data-name="arrow-right-Bold" data-original="#000000"/></svg><svg viewBox="0 0 24 24" id="arrow-m" xmlns="http://www.w3.org/2000/svg"><path d="M14.414 4.586a2 2 0 10-2.828 2.828L14.172 10H5a2 2 0 100 4h9.172l-2.586 2.586a2 2 0 102.828 2.828l6-6a2 2 0 000-2.828z" data-original="#000000"/></svg><svg viewBox="0 0 512 512" id="camera" xmlns="http://www.w3.org/2000/svg"><path d="M50 375.999L49.999 296c0-11-9-20-20-20H10v199.996h20c11 0 20-9 20-20v-79.997z" fill="#37be75" data-original="#4ad194"/><path d="M126.289 375.999H50v39.998h76.289c-2.211-6.255-3.414-12.986-3.414-19.999s1.203-13.744 3.414-19.999z" fill="#e1e6e9" data-original="#e1e6e9"/><path d="M182.874 335.999c-26.124 0-48.348 16.696-56.585 39.999-2.211 6.256-3.414 12.987-3.414 20s1.203 13.744 3.414 19.999c8.236 23.304 30.46 39.999 56.585 39.999 33.138 0 59.999-26.86 59.999-59.999 0-14.884-5.42-28.502-14.396-38.986-8.743-10.223-20.864-17.469-34.635-20.013a60.403 60.403 0 00-10.968-.999z" fill="#ff9750" data-original="#ff9750"/><path d="M222.804 286.84l-28.961 50.163c13.771 2.541 25.892 9.787 34.635 20.01l28.967-50.172-34.641-20.001z" fill="#e1e6e9" data-original="#e1e6e9"/><path d="M222.804 286.84l34.641 20.001 99.921 57.689c9.526 5.5 21.82 2.206 27.319-7.321l10.001-17.322 39.996-69.275-109.276 29.28-207.847-120.001-10 17.32c-5.5 9.526-2.206 21.82 7.32 27.319l107.925 62.31z" fill="#37be75" data-original="#4ad194"/><path d="M117.559 179.891l207.847 120.001 109.276-29.28 54.645-14.642 9.999-17.319c5.5-9.526 2.206-21.82-7.319-27.318L197.557 41.33c-19.053-11-43.645-4.399-54.638 14.64l-50 86.601c-5.5 9.527-2.206 21.821 7.321 27.32l17.319 10z" fill="#e1e6e9" data-original="#e1e6e9"/><path d="M434.682 270.61l-39.996 69.276 17.322 10.001c9.527 5.501 21.823 2.206 27.323-7.322l19.994-34.63c5.501-9.527 2.206-21.823-7.321-27.323l-17.322-10.002z" fill="#ff9750" data-original="#ff9750"/><path d="M510.96 220.892c-2.077-7.755-7.033-14.227-13.953-18.222l-294.451-170a49.83 49.83 0 00-24.878-6.665c-17.892 0-34.528 9.566-43.419 24.964l-50 86.602c-3.996 6.921-5.052 15.003-2.974 22.758 2.078 7.756 7.034 14.228 13.955 18.223l8.659 5-5 8.66c-8.271 14.326-3.345 32.709 10.98 40.979l99.264 57.31-20.638 35.746a70.405 70.405 0 00-5.632-.247c-25.625 0-48.066 13.85-60.264 34.449-.121.181-.246.359-.356.55-.117.202-.214.41-.316.616a70.668 70.668 0 00-2.295 4.384H59.999V296c0-16.542-13.458-29.999-29.999-29.999H10c-5.523 0-10 4.477-10 10v199.996c0 5.523 4.477 10 10 10h20c16.542 0 29.999-13.458 29.999-29.999v-29.999h59.645c11.255 23.628 35.363 39.999 63.231 39.999 25.681 0 48.163-13.911 60.343-34.584.091-.141.194-.268.278-.415.118-.204.216-.414.318-.622a69.539 69.539 0 009.06-34.377c0-14.749-4.597-28.437-12.416-39.734l20.648-35.763 91.261 52.689a29.934 29.934 0 0014.942 4.004h.002c10.723 0 20.7-5.742 26.035-14.984l5.001-8.663 8.662 5a29.922 29.922 0 0014.943 4.004c10.726 0 20.704-5.742 26.04-14.986l19.994-34.63c3.996-6.921 5.053-15.004 2.974-22.76-1.737-6.485-5.493-12.066-10.722-16.059l31.678-8.488a9.992 9.992 0 006.072-4.66l9.999-17.319c3.994-6.922 5.051-15.004 2.973-22.759zM39.999 455.995c0 5.514-4.486 10-10 10H20V285.999h10c5.514 0 10 4.486 10 10v159.996zm142.875-109.996c27.569 0 49.999 22.43 49.999 49.998a49.78 49.78 0 01-2.583 15.829l-84.811-48.966c9.166-10.332 22.529-16.861 37.395-16.861zM60 405.997v-19.999h53.602a70.18 70.18 0 00-.726 9.999c0 3.396.256 6.731.726 10H60zm122.874 39.999c-27.569 0-49.998-22.43-49.998-49.999a49.78 49.78 0 012.583-15.829l84.811 48.965c-9.167 10.334-22.529 16.863-37.396 16.863zm43.277-104.954a70 70 0 00-17.306-10.027l17.619-30.516 17.321 10.001-17.634 30.542zm141.158 16.151h-.001a9.901 9.901 0 01-4.943-1.324L119.88 215.87c-4.775-2.757-6.417-8.885-3.66-13.66l5-8.66 199.186 115.001c.346.2.703.37 1.066.525.107.046.215.085.323.127.272.106.549.2.829.281.109.032.219.065.329.094.38.096.763.177 1.15.228l.017.001c.382.049.767.07 1.152.075.044 0 .088.009.133.009.072 0 .145-.013.217-.014.288-.006.575-.025.863-.057.115-.012.23-.022.347-.039.389-.057.777-.128 1.161-.231l85.957-23.032-37.926 65.691c-.002.002.002-.002 0 0-1.774 3.075-5.113 4.984-8.715 4.984zm83.356-54.259l-19.994 34.63c-1.775 3.076-5.117 4.986-8.721 4.986a9.762 9.762 0 01-4.943-1.325l-8.662-5.001 29.996-51.956 8.662 5.001c2.295 1.325 3.941 3.484 4.637 6.08.697 2.598.35 5.29-.975 7.585zm40.001-69.284l-7.928 13.733-155.92 41.777-221.577-127.929c-2.294-1.324-3.941-3.483-4.636-6.078s-.349-5.288.976-7.583l50-86.601c5.33-9.231 15.331-14.966 26.099-14.966a29.79 29.79 0 0114.879 3.986l294.45 170.001c2.294 1.324 3.939 3.483 4.635 6.077.693 2.596.346 5.288-.978 7.583z" data-original="#000000"/><path d="M330.616 250.937l-.233-.135c-4.784-2.761-10.898-1.122-13.66 3.66-2.762 4.783-1.123 10.899 3.66 13.661l.233.135a9.997 9.997 0 0013.66-3.66c2.762-4.783 1.123-10.899-3.66-13.661zm-25.115-14.499L140.06 140.92c-4.782-2.762-10.899-1.124-13.66 3.66-2.761 4.783-1.123 10.899 3.66 13.66l165.441 95.519a9.997 9.997 0 0013.66-3.66c2.762-4.784 1.123-10.899-3.66-13.661zm152.788-15.707l-26.875-15.517c-4.784-2.761-10.898-1.122-13.66 3.66-2.762 4.783-1.123 10.899 3.66 13.66l26.875 15.517a10 10 0 0013.66-3.66c2.762-4.782 1.123-10.898-3.66-13.66zm-51.757-29.881l-.233-.135c-4.784-2.762-10.898-1.123-13.66 3.66s-1.123 10.899 3.66 13.661l.233.135a10 10 0 0013.66-3.66c2.762-4.784 1.123-10.9-3.66-13.661z" data-original="#000000"/></svg><svg viewBox="0 0 426.667 426.667" id="circle-arrow" xmlns="http://www.w3.org/2000/svg"><path d="M213.332 0C95.512 0 0 95.512 0 213.332s95.512 213.336 213.332 213.336 213.336-95.516 213.336-213.336C426.535 95.566 331.102.132 213.332 0zm0 405.332c-106.039 0-192-85.96-192-192 0-106.039 85.961-192 192-192 106.04 0 192 85.961 192 192-.121 105.988-86.012 191.879-192 192zm0 0" data-original="#000000"/><path d="M188.355 130.637c-4.437-3.88-11.175-3.426-15.054 1.008-3.875 4.437-3.422 11.175 1.012 15.054l76.156 66.633-76.16 66.637c-4.438 3.879-4.887 10.617-1.012 15.05 3.879 4.438 10.617 4.891 15.055 1.012l85.332-74.668a10.67 10.67 0 000-16.063zm0 0" data-original="#000000"/></svg><svg viewBox="0 0 512 512" id="control" xmlns="http://www.w3.org/2000/svg"><path d="M137.835 504.5H13.555c-3.76 0-6.61-3.391-5.964-7.095l9.833-56.333c1.772-10.151 10.584-17.558 20.889-17.558h74.764c10.304 0 19.117 7.408 20.888 17.558l9.833 56.333c.647 3.704-2.203 7.095-5.963 7.095z" fill="#FFE177" data-original="#ffe177"/><path d="M153.798 497.405l-9.833-56.333c-1.772-10.151-10.584-17.558-20.888-17.558h-20c10.304 0 19.117 7.408 20.888 17.558l9.833 56.333c.646 3.704-2.204 7.095-5.964 7.095h20c3.761 0 6.611-3.391 5.964-7.095z" fill="#FFC344" data-original="#ffc344"/><path d="M80.695 454.328c-11.755 0-21.285-9.53-21.285-21.285v-58.745h42.57v58.745c0 11.755-9.529 21.285-21.285 21.285z" fill="#F6A96C" data-original="#f6a96c"/><path d="M80.695 413.269c-3.443 0-6.792.598-10.003-.163-19.057-4.514-33.235-21.639-33.235-42.075v-17.163c0-20.437 14.178-27.562 33.235-32.075 3.211-.76 6.56-10.163 10.003-10.163 23.88 0 42.238 18.358 42.238 42.238v17.163c0 23.88-18.358 42.238-42.238 42.238z" fill="#FED2A4" data-original="#fed2a4"/><path d="M80.695 320.63c-3.444 0-6.789.415-10 1.175 16.819 3.984 29.841 7.783 32.667 25.019a43.49 43.49 0 01.571 7.044v17.163c0 20.436-14.182 37.549-33.238 42.063a43.302 43.302 0 0010 1.175c23.88 0 43.238-19.358 43.238-43.238v-17.163a43.08 43.08 0 00-3.908-17.988c-6.825-14.9-21.869-15.25-39.33-15.25z" fill="#FFBD86" data-original="#ffbd86"/><path d="M112.856 335.871c-6.826-14.899-14.7-24.242-32.161-24.242-3.443 0-6.792-.598-10.003.163-19.057 4.513-33.235 21.638-33.235 42.075 0 0 25.405 15.519 65.9-7.043 5.301-2.953 3.704-6.573 9.499-10.953z" fill="#A79BA7" data-original="#a79ba7"/><path d="M80.695 310.63c-3.444 0-6.789.414-10 1.175 16.817 3.984 29.831 17.782 32.659 35.014 5.303-2.954 10.862-6.553 16.66-10.935-6.826-14.899-21.858-25.254-39.319-25.254z" fill="#918291" data-original="#918291"/><path d="M488.445 504.5h-124.28c-3.76 0-6.61-3.391-5.964-7.095l9.833-56.333c1.772-10.151 10.584-17.558 20.889-17.558h74.764c10.304 0 19.117 7.408 20.888 17.558l9.833 56.333c.647 3.704-2.204 7.095-5.963 7.095z" fill="#CB97E7" data-original="#cb97e7"/><path d="M504.408 497.405l-9.833-56.333c-1.772-10.151-10.584-17.558-20.888-17.558h-20c10.304 0 19.117 7.408 20.888 17.558l9.833 56.333c.647 3.704-2.204 7.095-5.964 7.095h20c3.76 0 6.611-3.391 5.964-7.095z" fill="#AF66DA" data-original="#af66da"/><path d="M431.305 454.328c-11.755 0-21.285-9.53-21.285-21.285v-58.745h42.57v58.745c0 11.755-9.53 21.285-21.285 21.285z" fill="#F6A96C" data-original="#f6a96c"/><path d="M431.305 413.269c-3.443 0-6.792.598-10.003-.163-19.057-4.514-33.235-21.639-33.235-42.075v-17.163c0-20.437 14.178-27.562 33.235-32.075 3.211-.76 6.56-10.163 10.003-10.163 23.88 0 42.238 18.358 42.238 42.238v17.163c0 23.88-18.358 42.238-42.238 42.238z" fill="#FED2A4" data-original="#fed2a4"/><path d="M431.305 320.63c-3.444 0-6.789.415-10 1.175 16.819 3.984 29.841 7.783 32.667 25.019a43.49 43.49 0 01.571 7.044v17.163c0 20.436-14.182 37.549-33.238 42.063a43.302 43.302 0 0010 1.175c23.88 0 43.238-19.358 43.238-43.238v-17.163a43.08 43.08 0 00-3.908-17.988c-6.825-14.9-21.869-15.25-39.33-15.25z" fill="#FFBD86" data-original="#ffbd86"/><path d="M463.466 335.871c-6.826-14.899-14.7-24.242-32.161-24.242-3.443 0-6.792-.598-10.003.163-19.057 4.513-33.235 21.638-33.235 42.075 0 0 25.405 15.519 65.9-7.043 5.301-2.953 3.703-6.573 9.499-10.953z" fill="#A79BA7" data-original="#a79ba7"/><path d="M431.305 310.63c-3.444 0-6.789.414-10 1.175 16.817 3.984 29.831 17.782 32.659 35.014 5.303-2.954 10.862-6.553 16.66-10.935-6.826-14.899-21.858-25.254-39.319-25.254z" fill="#918291" data-original="#918291"/><path d="M137.835 201.37H13.555c-3.76 0-6.61-3.391-5.964-7.095l9.833-56.333c1.772-10.151 10.584-17.558 20.889-17.558h74.764c10.304 0 19.117 7.408 20.888 17.558l9.833 56.333c.647 3.704-2.203 7.095-5.963 7.095z" fill="#FE73C5" data-original="#fe73c5"/><path d="M153.798 194.276l-9.833-56.333c-1.772-10.151-10.584-17.558-20.888-17.558h-20c10.304 0 19.117 7.407 20.888 17.558l9.833 56.333c.646 3.704-2.204 7.095-5.964 7.095h20c3.761-.001 6.611-3.392 5.964-7.095z" fill="#FE2AA8" data-original="#fe2aa8"/><path d="M80.695 151.198c-11.755 0-21.285-9.53-21.285-21.285V71.169h42.57v58.745c0 11.755-9.529 21.284-21.285 21.284z" fill="#F6A96C" data-original="#f6a96c"/><path d="M80.695 110.14c-3.443 0-6.792.598-10.003-.163-19.057-4.513-33.235-21.639-33.235-42.075V50.738c0-20.437 14.178-27.562 33.235-32.075 3.211-.76 6.56-10.163 10.003-10.163 23.88 0 42.238 18.358 42.238 42.238v17.163c0 23.88-18.358 42.239-42.238 42.239z" fill="#FED2A4" data-original="#fed2a4"/><path d="M80.695 17.5c-3.444 0-6.789.415-10 1.175 16.819 3.984 29.841 7.783 32.667 25.019a43.49 43.49 0 01.571 7.044v17.163c0 20.436-14.182 37.549-33.238 42.063a43.302 43.302 0 0010 1.175c23.88 0 43.238-19.359 43.238-43.238V50.738a43.08 43.08 0 00-3.908-17.988C113.2 17.85 98.156 17.5 80.695 17.5z" fill="#FFBD86" data-original="#ffbd86"/><path d="M112.856 32.742C106.03 17.842 98.156 8.5 80.695 8.5c-3.443 0-6.792-.598-10.003.163-19.057 4.514-33.235 21.639-33.235 42.075 0 0 25.405 15.519 65.9-7.043 5.301-2.954 3.704-6.574 9.499-10.953z" fill="#A79BA7" data-original="#a79ba7"/><path d="M80.695 7.5c-3.444 0-6.789.415-10 1.175 16.817 3.984 29.831 17.782 32.659 35.014 5.303-2.955 10.862-6.553 16.66-10.935C113.188 17.856 98.156 7.5 80.695 7.5z" fill="#918291" data-original="#918291"/><path d="M488.445 201.37h-124.28c-3.76 0-6.61-3.391-5.964-7.095l9.833-56.333c1.772-10.151 10.584-17.558 20.889-17.558h74.764c10.304 0 19.117 7.408 20.888 17.558l9.833 56.333c.647 3.704-2.204 7.095-5.963 7.095z" fill="#62DBFB" data-original="#62dbfb"/><path d="M504.408 194.276l-9.833-56.333c-1.772-10.151-10.584-17.558-20.888-17.558h-20c10.304 0 19.117 7.407 20.888 17.558l9.833 56.333c.647 3.704-2.204 7.095-5.964 7.095h20c3.76-.001 6.611-3.392 5.964-7.095z" fill="#01C0FA" data-original="#01c0fa"/><path d="M431.305 151.198c-11.755 0-21.285-9.53-21.285-21.285V71.169h42.57v58.745c0 11.755-9.53 21.284-21.285 21.284z" fill="#F6A96C" data-original="#f6a96c"/><path d="M431.305 110.14c-3.443 0-6.792.598-10.003-.163-19.057-4.513-33.235-21.639-33.235-42.075V50.738c0-20.437 14.178-27.562 33.235-32.075 3.211-.76 6.56-10.163 10.003-10.163 23.88 0 42.238 18.358 42.238 42.238v17.163c0 23.88-18.358 42.239-42.238 42.239z" fill="#FED2A4" data-original="#fed2a4"/><path d="M431.305 17.5c-3.444 0-6.789.415-10 1.175 16.819 3.984 29.841 7.783 32.667 25.019a43.49 43.49 0 01.571 7.044v17.163c0 20.436-14.182 37.549-33.238 42.063a43.302 43.302 0 0010 1.175c23.88 0 43.238-19.359 43.238-43.238V50.738a43.08 43.08 0 00-3.908-17.988c-6.825-14.9-21.869-15.25-39.33-15.25z" fill="#FFBD86" data-original="#ffbd86"/><path d="M463.466 32.742c-6.826-14.9-14.7-24.242-32.161-24.242-3.443 0-6.792-.598-10.003.163-19.057 4.514-33.235 21.639-33.235 42.075 0 0 25.405 15.519 65.9-7.043 5.301-2.954 3.703-6.574 9.499-10.953z" fill="#A79BA7" data-original="#a79ba7"/><path d="M431.305 7.5c-3.444 0-6.789.415-10 1.175 16.817 3.984 29.831 17.782 32.659 35.014 5.303-2.955 10.862-6.553 16.66-10.935C463.798 17.856 448.766 7.5 431.305 7.5z" fill="#918291" data-original="#918291"/><path d="M319.815 240.216c0-40.671-22.893-72.66-63.528-72.815-5.201-.02-10.287-.491-15.202.531-32.808 6.824-57.995 35.659-58.876 70.364-.818 32.228 19.034 59.913 47.241 70.793a10.017 10.017 0 015.084 4.33l6.466 11.2 10.67 11.177c1.924 3.333 6.736 3.333 8.66 0l7.137-22.378a9.984 9.984 0 015.065-4.321c27.654-10.659 47.283-37.47 47.283-68.881z" fill="#37BE75" data-original="#bbec6c"/><path d="M256.287 166.401a73.214 73.214 0 00-15.2 1.543c33.531 6.964 58.728 36.675 58.728 72.271 0 31.412-19.629 58.223-47.284 68.881a9.99 9.99 0 00-5.065 4.322L241 324.619l10.67 18.481c1.924 3.333 6.736 3.333 8.66 0l17.137-29.682a9.99 9.99 0 015.065-4.322c27.655-10.658 47.283-37.469 47.283-68.881 0-40.671-32.893-73.659-73.528-73.814z" fill="#12B15B" data-original="#97d729"/><path d="M59.41 423.514H38.313c-10.304 0-19.117 7.408-20.889 17.558l-9.833 56.333c-.647 3.704 2.204 7.095 5.964 7.095h134.279c3.76 0 6.61-3.391 5.964-7.095l-9.833-56.333c-1.772-10.151-10.584-17.558-20.888-17.558H101.98" fill="none" stroke="#000" stroke-width="15" stroke-linecap="round" stroke-linejoin="round" stroke-miterlimit="10" data-original="#000000"/><path d="M101.98 410.179v22.864c0 11.755-9.53 21.285-21.285 21.285h0c-11.755 0-21.285-9.53-21.285-21.285v-22.864m-21.953-56.311s32.492 19.848 82.557-17.983" fill="none" stroke="#000" stroke-width="15" stroke-linecap="round" stroke-linejoin="round" stroke-miterlimit="10" data-original="#000000"/><path d="M80.695 414.269h0c-23.88 0-43.238-19.358-43.238-43.238v-17.163c0-23.88 19.358-43.238 43.238-43.238h0c23.88 0 43.238 19.358 43.238 43.238v17.163c0 23.88-19.358 43.238-43.238 43.238zm329.325 9.245h-21.097c-10.304 0-19.117 7.408-20.889 17.558l-9.833 56.333c-.646 3.704 2.204 7.095 5.964 7.095h134.279c3.76 0 6.61-3.391 5.964-7.095l-9.833-56.333c-1.772-10.151-10.584-17.558-20.888-17.558H452.59" fill="none" stroke="#000" stroke-width="15" stroke-linecap="round" stroke-linejoin="round" stroke-miterlimit="10" data-original="#000000"/><path d="M452.59 410.179v22.864c0 11.755-9.529 21.285-21.285 21.285h0c-11.755 0-21.285-9.53-21.285-21.285v-22.864m-21.953-56.311s32.492 19.848 82.557-17.983" fill="none" stroke="#000" stroke-width="15" stroke-linecap="round" stroke-linejoin="round" stroke-miterlimit="10" data-original="#000000"/><path d="M431.305 414.269h0c-23.88 0-43.238-19.358-43.238-43.238v-17.163c0-23.88 19.358-43.238 43.238-43.238h0c23.88 0 43.238 19.358 43.238 43.238v17.163c0 23.88-19.358 43.238-43.238 43.238zM59.41 120.384H38.313c-10.304 0-19.117 7.408-20.889 17.558l-9.833 56.333c-.647 3.704 2.204 7.095 5.964 7.095h134.279c3.76 0 6.61-3.391 5.964-7.095l-9.833-56.333c-1.772-10.151-10.584-17.558-20.888-17.558H101.98" fill="none" stroke="#000" stroke-width="15" stroke-linecap="round" stroke-linejoin="round" stroke-miterlimit="10" data-original="#000000"/><path d="M101.98 107.049v22.864c0 11.755-9.53 21.285-21.285 21.285h0c-11.755 0-21.285-9.529-21.285-21.285v-22.864M37.457 50.738s32.492 19.848 82.557-17.983" fill="none" stroke="#000" stroke-width="15" stroke-linecap="round" stroke-linejoin="round" stroke-miterlimit="10" data-original="#000000"/><path d="M80.695 111.14h0c-23.88 0-43.238-19.358-43.238-43.238V50.738c0-23.88 19.358-43.238 43.238-43.238h0c23.88 0 43.238 19.358 43.238 43.238v17.163c0 23.88-19.358 43.239-43.238 43.239zm371.895-4.091v22.864c0 11.755-9.529 21.285-21.285 21.285h0c-11.755 0-21.285-9.529-21.285-21.285v-22.864m-21.953-56.311s32.492 19.848 82.557-17.983" fill="none" stroke="#000" stroke-width="15" stroke-linecap="round" stroke-linejoin="round" stroke-miterlimit="10" data-original="#000000"/><path d="M431.305 111.14h0c-23.88 0-43.238-19.358-43.238-43.238V50.738c0-23.88 19.358-43.238 43.238-43.238h0c23.88 0 43.238 19.358 43.238 43.238v17.163c0 23.88-19.358 43.239-43.238 43.239zM183.848 255.865c5.281 24.451 22.684 44.385 45.602 53.225a10.017 10.017 0 015.084 4.33l17.136 29.68c1.924 3.333 6.736 3.333 8.66 0l17.137-29.682a9.984 9.984 0 015.065-4.321c27.655-10.658 47.284-37.469 47.284-68.881 0-40.671-32.893-73.66-73.528-73.815-34.928-.133-64.673 24.459-72.242 57.343m243.851-21.267c5.259 16.908 8.092 34.885 8.092 53.523 0 18.767-2.872 36.863-8.201 53.872M134.98 122.769C166.943 93.718 209.404 76.011 256 76.011c46.611 0 89.083 17.717 121.051 46.785M84.143 309.65c-5.284-16.945-8.131-34.965-8.131-53.65 0-18.642 2.834-36.622 8.095-53.533M239.3 435.224c-45.468-4.183-86.04-25.278-115.368-56.937m263.632.542c-29.186 31.248-69.373 52.089-114.389 56.35m221.4-297.237c-1.772-10.151-10.584-17.558-20.888-17.558H452.59m-42.57 0h-21.097c-10.304 0-19.117 7.408-20.889 17.558l-9.833 56.333c-.646 3.704 2.204 7.095 5.964 7.095h134.279c3.76 0 6.61-3.391 5.964-7.095l-3.925-22.486m-273.707 68.427h0m29.224 0h0m29.224 0h0" fill="none" stroke="#000" stroke-width="15" stroke-linecap="round" stroke-linejoin="round" stroke-miterlimit="10" data-original="#000000"/></svg><svg viewBox="0 0 60 60" id="geo" xmlns="http://www.w3.org/2000/svg"><path d="M30.01 55c.29 0 .56-.13.75-.34.64-.74 15.64-18.12 15.64-33.27C46.4 12.35 39.05 5 30.01 5s-16.4 7.35-16.4 16.39c0 15.15 15 32.53 15.64 33.27.18.21.47.34.76.34zm-8.85-33.61c0-4.87 3.97-8.84 8.85-8.84s8.85 3.97 8.85 8.84c0 4.88-3.97 8.85-8.85 8.85s-8.85-3.97-8.85-8.85z" fill="#37BE75" data-original="#000000"/></svg><svg viewBox="0 0 502.664 502.664" id="icon" xmlns="http://www.w3.org/2000/svg"><path d="M153.821 358.226L0 274.337v-46.463l153.821-83.414v54.574L46.636 250.523l107.185 53.431v54.272zm26.273 29.358L282.103 115.08h32.227L212.084 387.584h-31.99zm168.749-29.358v-54.272l107.164-52.999-107.164-52.59v-53.927l153.821 83.522v46.183l-153.821 84.083z" fill="#010002"/></svg><svg viewBox="0 0 511 512" id="like" xmlns="http://www.w3.org/2000/svg"><path fill="#37BE75" d="M455.723 280.414c0 123.504-100.133 223.625-223.637 223.625-30.297 0-59.18-6.023-85.52-16.945C74.562 457.27 21.527 390.918 10.562 311.148a224.053 224.053 0 01-2.101-30.734c0-123.516 100.121-223.637 223.625-223.637s223.637 100.121 223.637 223.637zm0 0" data-original="#937de2"/><path fill="#0AA551" d="M232.086 56.777c-11.824 0-23.43.926-34.758 2.692 107 16.699 188.883 109.254 188.883 220.945 0 111.676-81.875 204.227-188.863 220.93a225.264 225.264 0 0034.738 2.695c123.504 0 223.637-100.121 223.637-223.625 0-123.516-100.133-223.637-223.637-223.637zm0 0" data-original="#7570d6"/><path fill="#FDD7BD" d="M483.64 263.879L355.939 348.44a43.486 43.486 0 01-30.891 6.696c-10.797-1.719-21.844.64-30.965 6.68l-17.09 11.324-95.707-141.075 23.48-101.441a105.771 105.771 0 002.731-23.871c0-20.625-6.031-40.984-17.601-58.461a25.231 25.231 0 01-4.204-13.957c0-8.207 3.98-16.254 11.336-21.125 9.914-6.57 23.055-5.348 31.59 2.93l15.211 14.734a162.624 162.624 0 0139.246 60.156l8.25 22.207 84.942-56.12c13.566-8.981 31.922-5.056 40.582 8.839 8.355 13.387 4.066 31.074-9.098 39.79-.16.105-.168.273-.117.401.074.137.234.235.414.16a28.695 28.695 0 0110.351-1.921c5.559 0 11.07 1.601 15.786 4.648a28.95 28.95 0 018.394 8.32 28.869 28.869 0 014.258 21.614c-2.254 11.379-10.52 17.238-12.145 18.344a.622.622 0 00-.16.859c0 .012.012.02.024.02a.61.61 0 00.816.16 29.691 29.691 0 017.027-.829c5.75 0 11.473 1.637 16.336 4.735a28.457 28.457 0 018.45 8.289c8.832 13.332 5.18 31.305-8.164 40.137-.329.222-.657.445-.985.656-.191.152-.246.394-.148.566.02.04.062.082.105.106.149.117.383.125.574-.024 8.29-2.824 17.313-1.539 24.575 3.164 3.343 2.145 6.304 5.032 8.648 8.578 8.832 13.348 5.184 31.317-8.148 40.149zm0 0" data-original="#fdd7bd"/><path fill="#87DBFF" d="M278.215 399.914l-53.871 35.676-77.778 51.508C74.563 457.27 21.527 390.922 10.563 311.148l90.261-59.773 54.946-36.387c6.324-4.195 14.859-2.453 19.05 3.883l107.278 161.977c4.195 6.34 2.453 14.863-3.883 19.066zm0 0" data-original="#87dbff"/><path fill="#6FC7FF" d="M278.215 399.914l-53.871 35.676-123.52-184.215 54.946-36.387c6.324-4.195 14.859-2.453 19.05 3.883l107.278 161.977c4.195 6.34 2.453 14.863-3.883 19.066zm0 0" data-original="#6fc7ff"/><path d="M434.184 109.035l-42.493 22.738c-6.03 3.22-13.503 1.54-17.558-3.949l33.5-21.676c.074.141.234.235.414.16a28.695 28.695 0 0110.351-1.921c5.563 0 11.07 1.605 15.786 4.648zm24.55 53.227l-41.566 22.226c-6.031 3.227-13.504 1.551-17.559-3.937l33.5-21.676 1.446-.68c.18.258.55.332.816.16a29.739 29.739 0 017.027-.828c5.754 0 11.477 1.633 16.336 4.735zm24.406 52.894l-36.613 19.586c-6.015 3.215-13.492 1.54-17.554-3.949l29.02-18.777c.148.117.382.125.573-.024 8.29-2.824 17.313-1.539 24.575 3.164zm0 0" data-original="#fac5aa" fill="#FAC5AA"/><path d="M498.43 219.34c-5.309-8.016-13.356-13.54-22.711-15.633 6.035-11.543 5.789-25.945-1.899-37.55-5.468-8.262-13.718-13.598-22.699-15.618a37.03 37.03 0 003.492-9.828c1.961-9.668.047-19.52-5.402-27.742-5.309-8.02-13.356-13.543-22.711-15.633 6.035-11.543 5.79-25.945-1.898-37.555-11.239-16.972-34.2-21.64-51.176-10.398l-36.758 24.344a229.7 229.7 0 00-62.063-21.004c-6.835-10.38-14.785-20.028-23.683-28.653L235.715 9.332C224.578-1.465 207.113-3.086 194.184 5.48c-15.297 10.13-19.5 30.817-9.371 46.114.398.605.789 1.215 1.175 1.824-49.847 10.086-95.277 36.539-128.902 75.3C20.598 170.786.5 224.66.5 280.419c0 10.687.73 21.394 2.176 31.816 11.137 81.02 65.105 150.84 140.84 182.22C171.602 506.093 201.402 512 232.078 512c48.582 0 95.086-14.879 134.488-43.023 38.547-27.54 67.387-65.543 83.407-109.903A7.96 7.96 0 10435 353.668c-14.918 41.309-41.781 76.7-77.691 102.352-36.684 26.207-79.989 40.058-125.23 40.058-23.392 0-46.231-3.691-68.09-10.973l64.773-42.894c.004-.004.008-.004.011-.008.004 0 .004-.004.008-.008l53.832-35.648h.004a21.586 21.586 0 009.29-13.777 21.561 21.561 0 00-3.173-16.313l-.71-1.078 10.456-6.926a35.462 35.462 0 0125.27-5.46 51.33 51.33 0 0036.582-7.911l86.734-57.437a216.133 216.133 0 01-2.933 22.359 7.958 7.958 0 006.375 9.281c.488.094.98.137 1.46.137a7.963 7.963 0 007.817-6.512c2.207-11.87 3.477-24.031 3.805-36.207l24.441-16.187c8.223-5.446 13.836-13.77 15.797-23.434 1.965-9.668.047-19.52-5.398-27.742zM321.21 83.96l-24.323 16.11-4.79-12.902c-2-5.383-4.292-10.66-6.831-15.824A213.7 213.7 0 01321.21 83.96zM69.114 139.153c32.317-37.254 76.336-62.297 124.492-70.98 7.727 18.719 9.579 39.633 4.961 59.566l-19.41 83.856a21.52 21.52 0 00-11.472-6.41 21.537 21.537 0 00-16.313 3.171l-54.98 36.407c-.004 0-.004 0-.008.004 0 0-.004 0-.004.004L17.082 297.28a218.43 218.43 0 01-.66-16.863c0-51.922 18.715-102.094 52.691-141.266zm207.192 250.442a5.766 5.766 0 01-2.485 3.68h.004l-47.281 31.308-87.754-130.871a7.96 7.96 0 00-13.223 8.867l87.7 130.797-67.496 44.7c-67.07-29.337-115.067-91.29-126.606-163.38l79.39-52.402 9.137 13.633a7.962 7.962 0 006.622 3.527 7.962 7.962 0 006.605-12.395l-9.074-13.535 48.32-31.894a5.723 5.723 0 014.344-.844 5.775 5.775 0 013.68 2.48L275.46 385.25a5.74 5.74 0 01.844 4.344zM488.227 243.91a20.862 20.862 0 01-8.989 13.332l-27.941 18.504c-.008.004-.016.012-.027.016l-99.73 66.047a35.443 35.443 0 01-25.27 5.46 51.358 51.358 0 00-36.583 7.91l-10.457 6.926-87.859-132.668 22.711-98.105c5.848-25.273 2.766-51.895-8.375-75.086a7.8 7.8 0 00-.336-.707 112.61 112.61 0 00-7.285-12.738c-5.281-7.977-3.09-18.762 4.89-24.047 6.743-4.465 15.852-3.621 21.657 2.008l15.207 14.742c16.45 15.95 29.36 35.73 37.328 57.207l8.281 22.309.047.117.063.156c.058.137.113.262.171.367.16.336.336.668.547.985a7.956 7.956 0 0011.032 2.242l84.91-56.227c9.656-6.394 22.715-3.742 29.11 5.914s3.741 22.715-5.915 29.11l-7.371 4.882s-.004 0-.008.004l-16.441 10.89c-.024.017-.04.032-.063.044a4.24 4.24 0 00-.258.191c-3.398 2.496-4.277 7.242-1.921 10.797a7.959 7.959 0 0011.035 2.242l16.453-10.898a20.872 20.872 0 0115.77-3.063 20.854 20.854 0 0113.327 8.989 20.863 20.863 0 013.075 15.777 20.862 20.862 0 01-8.989 13.332l-23.82 15.777a7.954 7.954 0 00-2.242 11.032 7.953 7.953 0 0011.031 2.242l3.688-2.442 12.757-8.449c9.66-6.394 22.715-3.742 29.11 5.914 6.394 9.66 3.742 22.715-5.914 29.114l-11.899 7.878c-.062.04-.125.083-.187.125l-11.735 7.77a7.959 7.959 0 00-2.242 11.035 7.953 7.953 0 0011.032 2.242l3.687-2.441s0-.004.004-.004l12.758-8.445a20.84 20.84 0 0115.777-3.07 20.852 20.852 0 0113.332 8.984 20.876 20.876 0 013.067 15.777zm0 0" data-original="#000000"/></svg><svg id="logo" data-name=" 1" version="1.1" viewBox="0 0 240.159 58.05" xmlns="http://www.w3.org/2000/svg"><defs id="ndefs480"><style id="nstyle478">.ncls-1{fill:#41ac48}</style></defs><path class="ncls-1" d="M114.716 27.998V17.142h-4.557v-2.295H122v2.295h-4.557v10.856z" id="npath484" stroke-width="1.204"/><path class="ncls-1" d="M133.45 17.142h-8.23v3.305h7.94v2.1h-7.94v3.248h8.23v2.295h-10.705V14.95h10.705z" id="npath486" stroke-width="1.204"/><path class="ncls-1" d="M142.173 14.938a5.618 5.107 0 012.525.505 4.204 3.822 0 011.704 1.309 6.312 5.738 0 01.859 1.79 4.128 3.753 0 010 1.95 6.552 5.956 0 01-.846 1.791 4.204 3.822 0 01-1.705 1.308 5.68 5.164 0 01-2.524.505h-4.04v3.833h-2.701V14.95h6.728zm-4.04 2.296v4.59h4.04a2.727 2.479 0 001.262-.253 2.07 1.882 0 00.846-.654 3.408 3.099 0 00.417-.895 2.26 2.054 0 000-.987 3.408 3.099 0 00-.417-.895 2.07 1.882 0 00-.846-.654 2.727 2.479 0 00-1.262-.252z" id="npath488" stroke-width="1.204"/><path class="ncls-1" d="M155.365 14.938a5.567 5.06 0 012.525.505 4.153 3.776 0 011.717 1.309 6.577 5.979 0 01.858 1.79 4.406 4.005 0 010 1.95 6.577 5.979 0 01-.858 1.791 4.04 3.672 0 01-1.705 1.308 5.655 5.141 0 01-2.524.505h-4.065v3.833h-2.69V14.95h6.742zm-4.052 2.296v4.59h4.052a2.676 2.433 0 001.262-.253 1.919 1.744 0 00.846-.654 3.408 3.099 0 00.417-.895 2.26 2.054 0 000-.987 3.408 3.099 0 00-.417-.895 1.919 1.744 0 00-.846-.654 2.676 2.433 0 00-1.262-.252z" id="npath490" stroke-width="1.204"/><path class="ncls-1" d="M171.195 14.973h2.222V28.02h-2.74v-8.848l-7.574 8.825h-1.742V14.95h2.727v8.113z" id="npath492" stroke-width="1.204"/><path class="ncls-1" d="M178.706 27.998V17.142h-4.57v-2.295h11.854v2.295h-4.57v10.856z" id="npath494" stroke-width="1.204"/><path class="ncls-1" d="M193.325 14.709a7.928 7.207 0 012.613.379 6.463 5.876 0 012.058 1.044 6.981 6.346 0 011.439 1.515 7.574 6.886 0 01.87 1.836 8.054 7.322 0 01.266 1.997 8.912 8.102 0 01-.29 1.974 7.22 6.564 0 01-.846 1.801 6.867 6.243 0 01-1.414 1.504 6.312 5.738 0 01-2.045 1.01 8.988 8.17 0 01-5.327 0 6.085 5.531 0 01-2.045-.999 6.312 5.738 0 01-1.44-1.48 7.095 6.45 0 01-.858-1.802 8.837 8.033 0 01-.265-1.985 8.281 7.528 0 01.202-1.687 8.837 8.033 0 01.593-1.584 6.06 5.508 0 011.01-1.389 7.183 6.53 0 011.401-1.147 6.224 5.658 0 011.83-.746 7.99 7.264 0 012.248-.241zm0 2.215a5.176 4.705 0 00-1.515.183 3.787 3.443 0 00-1.2.528 4.747 4.315 0 00-.883.78 4.532 4.12 0 00-.631.965 5.807 5.279 0 00-.43 2.157 7.334 6.668 0 00.177 1.274 5.226 4.751 0 00.53 1.148 4.57 4.154 0 00.872.986 4.103 3.73 0 001.262.678 5.188 4.717 0 001.767.252 5.592 5.084 0 001.49-.172 3.598 3.27 0 001.174-.494 4.355 3.96 0 001.49-1.652 6.224 5.658 0 00.34-1.01 5.15 4.682 0 00.127-1.067 6.123 5.566 0 00-.14-1.309 5.05 4.59 0 00-.504-1.239 4.532 4.12 0 00-.896-1.056 3.787 3.443 0 00-1.263-.711 4.923 4.476 0 00-1.767-.287z" id="npath496" stroke-width="1.204"/><path class="ncls-1" d="M208.524 14.938a5.618 5.107 0 012.525.505 4.204 3.822 0 011.704 1.309 6.312 5.738 0 01.858 1.79 4.128 3.753 0 010 1.95 6.552 5.956 0 01-.846 1.791 4.153 3.776 0 01-1.716 1.308 5.618 5.107 0 01-2.525.505h-4.04v3.833h-2.689V14.95h6.729zm-4.04 2.296v4.59h4.04a2.765 2.513 0 001.262-.253 2.07 1.882 0 00.846-.654 3.408 3.099 0 00.417-.895 2.626 2.387 0 000-.987 3.408 3.099 0 00-.417-.895 2.07 1.882 0 00-.846-.654 2.765 2.513 0 00-1.262-.252z" id="npath498" stroke-width="1.204"/><path class="ncls-1" d="M224.354 14.973h2.222V28.02h-2.74v-8.848l-7.574 8.825h-1.704V14.95h2.74v8.113z" id="npath500" stroke-width="1.204"/><path class="ncls-1" d="M227.333 27.814l4.38-4.487a5.605 5.095 0 01-1.426-.459 4.027 3.66 0 01-1.047-.7 3.977 3.615 0 01-.682-.883 4.822 4.384 0 01-.379-1.01 6.009 5.463 0 01-.113-1.079 4.848 4.407 0 01.34-1.653 4.469 4.062 0 012.626-2.295 6.577 5.979 0 012.235-.367h6.892v13.174h-2.74V23.66h-2.612l-4.23 4.395h-3.244zm10.1-10.672h-4.154a2.424 2.203 0 00-1.843.62 2.436 2.215 0 000 2.972 2.386 2.169 0 001.843.62h4.153z" id="npath502" stroke-width="1.204"/><path class="ncls-1" d="M129.07 31.636l-6.388 6.243 6.918 6.599v.149h-3.346l-6.021-5.796v5.796h-2.714v-13.06h2.714v5.509l5.453-5.509h3.384z" id="npath504" stroke-width="1.204"/><path class="ncls-1" d="M136.909 31.303a8.003 7.276 0 012.626.379 6.148 5.589 0 012.045 1.033 7.486 6.805 0 012.323 3.362 9.178 8.343 0 01.265 1.997 9.455 8.596 0 01-.29 1.962 7.334 6.668 0 01-.86 1.814 6.54 5.945 0 01-1.413 1.491 6.312 5.738 0 01-2.045 1.01 8.13 7.39 0 01-2.664.379 8.407 7.643 0 01-2.65-.367 6.312 5.738 0 01-3.51-2.479 6.893 6.266 0 01-.858-1.802 8.445 7.677 0 01-.278-1.997 8.168 7.425 0 01.202-1.675 9.14 8.309 0 01.593-1.584 6.489 5.899 0 011.01-1.4 7.31 6.645 0 011.414-1.147 6.678 6.07 0 011.818-.746 8.559 7.78 0 012.272-.23zm0 2.215a5.302 4.82 0 00-1.515.184 3.711 3.374 0 00-1.187.528 4.444 4.04 0 00-.896.78 4.166 3.787 0 00-.618.952 4.81 4.372 0 00-.341 1.068 6.54 5.945 0 00-.101 1.147 6.312 5.738 0 00.19 1.263 5.479 4.98 0 00.517 1.147 4.115 3.741 0 00.883.987 3.787 3.443 0 001.263.677 5.239 4.763 0 001.767.264 5.05 4.59 0 001.49-.183 3.863 3.512 0 001.174-.482 4.52 4.108 0 00.883-.735 3.9 3.546 0 00.606-.918 7.233 6.576 0 00.354-1.021 5.756 5.233 0 00.113-1.056 6.06 5.508 0 00-.138-1.308 5.05 4.59 0 00-.505-1.251 4.418 4.017 0 00-.884-1.045 4.229 3.844 0 00-1.338-.723 4.873 4.43 0 00-1.717-.275z" id="npath506" stroke-width="1.204"/><path class="ncls-1" d="M160.112 44.627h-2.6v-9.663l-4.798 5.83h-.518l-4.708-5.853v9.686h-2.563V31.59h3.042l4.558 5.738 4.57-5.738h3.017z" id="npath508" stroke-width="1.204"/><path class="ncls-1" d="M170.854 31.579a7.726 7.023 0 015.24 1.606 5.857 5.325 0 011.956 4.189 5.92 5.382 0 01-1.957 4.212 7.726 7.023 0 01-5.239 1.618v1.423h-2.764v-1.423a7.7 7 0 01-5.24-1.618 5.895 5.36 0 01-1.956-4.235 5.807 5.279 0 011.957-4.177 7.764 7.058 0 015.239-1.595v-1.24h2.764zm-7.12 5.806a3.623 3.294 0 001.162 2.582 4.721 4.292 0 003.194.976v-7.08a4.721 4.292 0 00-3.194.952 3.61 3.282 0 00-1.161 2.57zm11.463 0a3.598 3.27 0 00-1.149-2.57 4.696 4.27 0 00-3.194-.953v7.115a5.731 5.21 0 002.336-.459 3.282 2.984 0 001.49-1.216 3.913 3.558 0 00.517-1.917z" id="npath510" stroke-width="1.204"/><path class="ncls-1" d="M186.117 31.303a8.003 7.276 0 012.625.379 6.312 5.738 0 012.058 1.033 7.297 6.633 0 011.427 1.526 7.031 6.392 0 01.883 1.836 8.054 7.322 0 01.265 1.997 9.455 8.596 0 01-.29 1.962 6.968 6.335 0 01-.858 1.814 6.236 5.67 0 01-3.46 2.501 8.054 7.322 0 01-2.65.379 8.483 7.712 0 01-2.664-.367 6.779 6.163 0 01-2.058-.999 7.044 6.404 0 01-1.426-1.48 6.893 6.266 0 01-.859-1.802 8.445 7.677 0 01-.277-1.997 8.963 8.148 0 01.202-1.675 9.14 8.309 0 01.593-1.584 6.54 5.945 0 011.023-1.4 7.233 6.576 0 011.4-1.147 6.766 6.151 0 011.831-.746 8.458 7.689 0 012.235-.23zm0 2.215a5.302 4.82 0 00-1.515.184 3.711 3.374 0 00-1.187.528 4.444 4.04 0 00-.896.78 4.166 3.787 0 00-.619.952 4.81 4.372 0 00-.34 1.068 5.605 5.095 0 00-.089 1.147 5.655 5.141 0 00.177 1.263 5.05 4.59 0 00.53 1.147 4.077 3.707 0 00.871.987 3.787 3.443 0 001.263.677 5.239 4.763 0 001.767.264 5.05 4.59 0 001.49-.183 3.939 3.58 0 001.186-.482 4.835 4.395 0 00.871-.735 3.9 3.546 0 00.606-.918 7.233 6.576 0 00.354-1.021 5.756 5.233 0 00.113-1.056 6.047 5.497 0 00-.126-1.308 5.05 4.59 0 00-.518-1.251 4.418 4.017 0 00-.883-1.045 3.964 3.603 0 00-1.338-.723 4.873 4.43 0 00-1.717-.275z" id="npath512" stroke-width="1.204"/><path class="ncls-1" d="M201.328 31.521a5.731 5.21 0 012.525.505 4.153 3.776 0 011.717 1.308 6.716 6.105 0 01.858 1.79 4.456 4.051 0 010 1.963 6.501 5.91 0 01-.858 1.779 4.065 3.695 0 01-1.704 1.32 5.832 5.302 0 01-2.525.504h-4.052v3.822h-2.69v-12.98h6.742zm-4.052 2.295v4.59h4.052a2.84 2.582 0 001.263-.252 2.096 1.905 0 00.845-.654 3.333 3.03 0 00.417-.906 2.21 2.008 0 000-.976 3.13 2.846 0 00-.417-.895 2.02 1.836 0 00-.845-.666 2.84 2.582 0 00-1.263-.24z" id="npath514" stroke-width="1.204"/><path class="ncls-1" d="M211.137 44.592V33.736h-4.57v-2.238h11.854v2.238h-4.57v10.856z" id="npath516" stroke-width="1.204"/><path class="ncls-1" d="M231.335 44.627l-1.262-2.48h-7.575l-1.262 2.48h-2.929l6.464-13.094h2.966l6.438 13.094zm-2.297-4.797l-2.677-5.566-2.676 5.566z" id="npath518" stroke-width="1.204"/><path id="nline520" d="M61.04 27.95l-.05-.04" fill="none"/><path class="ncls-1" id="npolygon522" transform="translate(-51.41 -52.45)" d="M152.9 52.53l-27.83 27.83 30.14 30.14h-12.67l-30.09-30.1v-.09l6.29-6.29 21.48-21.49z"/><path class="ncls-1" id="nrect524" d="M57.67 44.53h2.96v2.96h-2.96z"/><path class="ncls-1" id="nrect526" d="M61.4 44.53h2.96v2.96H61.4z"/><path class="ncls-1" id="nrect528" d="M61.4 48.35h2.96v2.96H61.4z"/><path class="ncls-1" id="nrect530" d="M57.67 48.35h2.96v2.96h-2.96z"/><path class="ncls-1" id="nrect532" d="M44.42 30.29h1.46v1.46h-1.46z"/><path class="ncls-1" id="nrect534" d="M46.27 30.29h1.46v1.46h-1.46z"/><path class="ncls-1" id="nrect536" d="M46.27 32.18h1.46v1.46h-1.46z"/><path class="ncls-1" id="nrect538" d="M44.42 32.18h1.46v1.46h-1.46z"/><path class="ncls-1" id="nrect540" d="M44.42 39.32h1.46v1.46h-1.46z"/><path class="ncls-1" id="nrect542" d="M46.27 39.32h1.46v1.46h-1.46z"/><path class="ncls-1" id="nrect544" d="M46.27 41.21h1.46v1.46h-1.46z"/><path class="ncls-1" id="nrect546" d="M44.42 41.21h1.46v1.46h-1.46z"/><path class="ncls-1" id="nrect548" d="M44.42 48.09h1.46v1.46h-1.46z"/><path class="ncls-1" id="nrect550" d="M46.27 48.09h1.46v1.46h-1.46z"/><path class="ncls-1" id="nrect552" d="M46.27 49.98h1.46v1.46h-1.46z"/><path class="ncls-1" id="nrect554" d="M44.42 49.98h1.46v1.46h-1.46z"/><path class="ncls-1" id="nrect556" d="M44.42 22.77h1.46v1.46h-1.46z"/><path class="ncls-1" id="nrect558" d="M46.27 22.77h1.46v1.46h-1.46z"/><path class="ncls-1" id="nrect560" d="M46.27 24.66h1.46v1.46h-1.46z"/><path class="ncls-1" id="nrect562" d="M44.42 24.66h1.46v1.46h-1.46z"/><path class="ncls-1" id="nrect564" d="M38.35 30.12h1.46v1.46h-1.46z"/><path class="ncls-1" id="nrect566" d="M40.2 30.12h1.46v1.46H40.2z"/><path class="ncls-1" id="nrect568" d="M40.2 32.01h1.46v1.46H40.2z"/><path class="ncls-1" id="nrect570" d="M38.35 32.01h1.46v1.46h-1.46z"/><path class="ncls-1" id="nrect572" d="M38.35 39.15h1.46v1.46h-1.46z"/><path class="ncls-1" id="nrect574" d="M40.2 39.15h1.46v1.46H40.2z"/><path class="ncls-1" id="nrect576" d="M40.2 41.04h1.46v1.46H40.2z"/><path class="ncls-1" id="nrect578" d="M38.35 41.04h1.46v1.46h-1.46z"/><path class="ncls-1" id="nrect580" d="M38.35 47.92h1.46v1.46h-1.46z"/><path class="ncls-1" id="nrect582" d="M40.2 47.92h1.46v1.46H40.2z"/><path class="ncls-1" id="nrect584" d="M40.2 49.81h1.46v1.46H40.2z"/><path class="ncls-1" id="nrect586" d="M38.35 49.81h1.46v1.46h-1.46z"/><path class="ncls-1" id="nrect588" d="M38.35 22.6h1.46v1.46h-1.46z"/><path class="ncls-1" id="nrect590" d="M40.2 22.6h1.46v1.46H40.2z"/><path class="ncls-1" id="nrect592" d="M40.2 24.49h1.46v1.46H40.2z"/><path class="ncls-1" id="nrect594" d="M38.35 24.49h1.46v1.46h-1.46z"/><path class="ncls-1" id="nrect596" d="M44.14 15.35h1.46v1.46h-1.46z"/><path class="ncls-1" id="nrect598" d="M45.99 15.35h1.46v1.46h-1.46z"/><path class="ncls-1" id="nrect600" d="M45.99 17.24h1.46v1.46h-1.46z"/><path class="ncls-1" id="nrect602" d="M44.14 17.24h1.46v1.46h-1.46z"/><path class="ncls-1" id="nrect604" d="M38.07 15.18h1.46v1.46h-1.46z"/><path class="ncls-1" id="nrect606" d="M39.91 15.18h1.46v1.46h-1.46z"/><path class="ncls-1" id="nrect608" d="M39.91 17.07h1.46v1.46h-1.46z"/><path class="ncls-1" id="nrect610" d="M38.07 17.07h1.46v1.46h-1.46z"/><path class="ncls-1" id="npolygon612" transform="translate(-51.41 -52.45)" d="M84.85 110.5h-9.23V61.23H51.41v-8.78h57.78v.08h3.26v27.78l-.06.04-8.91 8.93V61.23H84.85z"/></svg><svg viewBox="0 0 512 512" id="mail" xmlns="http://www.w3.org/2000/svg"><path fill-rule="evenodd" d="M256 0c141.385 0 256 114.615 256 256S397.385 512 256 512 0 397.385 0 256 114.615 0 256 0zm162.5 355.241V164.978l-95.137 95.131zm-304.676 3.876h284.358l-86.908-86.908-33.123 33.118a8.563 8.563 0 01-6.05 2.5h-32.2a8.553 8.553 0 01-6.051-2.5l-33.122-33.118-86.908 86.908zM93.5 164.972v190.274l95.137-95.137zm312.906-12.089H105.6l137.844 137.844h25.117z" fill="#CD4650" data-original="#000000"/></svg><svg viewBox="0 0 512 512" id="phone" xmlns="http://www.w3.org/2000/svg"><path d="M436.992 74.953c-99.989-99.959-262.08-99.935-362.039.055s-99.935 262.08.055 362.039 262.08 99.935 362.039-.055a256 256 0 00-.055-362.039zm-49.289 281.652l-.034.034v-.085l-12.971 12.885a68.267 68.267 0 01-64.427 18.432 226.834 226.834 0 01-65.877-29.525 304.371 304.371 0 01-51.968-41.899 306.71 306.71 0 01-38.827-47.104 238.907 238.907 0 01-29.184-59.051 68.265 68.265 0 0117.067-69.717l15.189-15.189c4.223-4.242 11.085-4.257 15.326-.034l.034.034 47.957 47.957c4.242 4.223 4.257 11.085.034 15.326l-.034.034-28.16 28.16c-8.08 7.992-9.096 20.692-2.389 29.867a329.334 329.334 0 0033.707 39.339 327.314 327.314 0 0044.373 37.291c9.167 6.394 21.595 5.316 29.525-2.56l27.221-27.648c4.223-4.242 11.085-4.257 15.326-.034l.034.034 48.043 48.128c4.243 4.222 4.258 11.083.035 15.325z" fill="#CD4650" data-original="#000000"/></svg><svg viewBox="0 0 512 512" id="phone-def" xmlns="http://www.w3.org/2000/svg"><path fill-rule="evenodd" d="M502.638 450.357c-3.4 3.389-7.5 7.723-11.847 12.307-10.848 11.513-24.4 25.825-32.894 31.629-44.69 30.538-104.478 15.926-146.769-1.695-55.789-23.245-116.528-66.091-171.065-120.635C85.475 317.415 42.633 256.657 19.388 200.9c-17.6-42.3-32.243-102.1-1.7-146.8 5.8-8.5 20.145-22.031 31.643-32.9 4.6-4.334 8.9-8.429 12.3-11.818a32.212 32.212 0 0145.441 0L189.3 91.586a32.213 32.213 0 010 45.431l-22.4 22.355a48.935 48.935 0 00-8.649 57.858 328.506 328.506 0 00136.53 136.507 48.905 48.905 0 0057.838-8.663l22.345-22.356a32.212 32.212 0 0145.441 0l82.233 82.218a32.2 32.2 0 010 45.421z" data-original="#000000"/></svg><svg viewBox="0 0 512 512" id="snip" xmlns="http://www.w3.org/2000/svg"><path fill="#ECF4FF" d="M401.968 504.5H62.554c-8.926 0-16.163-7.236-16.163-16.163V23.663c0-8.926 7.236-16.163 16.163-16.163h339.415c8.926 0 16.163 7.236 16.163 16.163v464.675c-.001 8.926-7.237 16.162-16.164 16.162z" data-original="#ecf4ff"/><path fill="#DDEAFB" d="M401.968 7.5h-20.203c8.926 0 16.163 7.236 16.163 16.163v464.675c0 8.926-7.236 16.163-16.163 16.163h20.203c8.926 0 16.163-7.236 16.163-16.163V23.663c0-8.927-7.236-16.163-16.163-16.163z" data-original="#ddeafb"/><path fill="#70E7A6" d="M172.373 173.167h-72.154c-7.97 0-14.431-6.461-14.431-14.431V86.581c0-7.97 6.461-14.431 14.431-14.431h72.154c7.97 0 14.431 6.461 14.431 14.431v72.154c0 7.971-6.461 14.432-14.431 14.432z" data-original="#b3e59f"/><path fill="#37BE75" d="M173.586 72.212c.152 2.004.23 4.029.23 6.072 0 43.636-35.374 79.009-79.009 79.009-3.051 0-6.059-.179-9.019-.515v1.959c0 7.97 6.461 14.431 14.431 14.431h72.154c7.97 0 14.431-6.461 14.431-14.431V86.581c0-7.56-5.817-13.752-13.218-14.369z" data-original="#95d6a4"/><path fill="#70E7A6" d="M172.373 306.508h-72.154c-7.97 0-14.431-6.461-14.431-14.431v-72.154c0-7.97 6.461-14.431 14.431-14.431h72.154c7.97 0 14.431 6.461 14.431 14.431v72.154c0 7.97-6.461 14.431-14.431 14.431z" data-original="#b3e59f"/><path fill="#37BE75" d="M173.586 205.553c.152 2.004.23 4.029.23 6.072 0 43.636-35.374 79.009-79.009 79.009-3.051 0-6.059-.179-9.019-.516v1.959c0 7.97 6.461 14.431 14.431 14.431h72.154c7.97 0 14.431-6.461 14.431-14.431v-72.154c0-7.561-5.817-13.752-13.218-14.37z" data-original="#95d6a4"/><path fill="#70E7A6" d="M172.373 439.85h-72.154c-7.97 0-14.431-6.461-14.431-14.431v-72.154c0-7.97 6.461-14.431 14.431-14.431h72.154c7.97 0 14.431 6.461 14.431 14.431v72.154c0 7.97-6.461 14.431-14.431 14.431z" data-original="#b3e59f"/><path fill="#37BE75" d="M173.586 338.895c.152 2.004.23 4.029.23 6.072 0 43.636-35.374 79.009-79.009 79.009-3.051 0-6.059-.179-9.019-.516v1.959c0 7.97 6.461 14.431 14.431 14.431h72.154c7.97 0 14.431-6.461 14.431-14.431v-72.154c0-7.561-5.817-13.753-13.218-14.37z" data-original="#95d6a4"/><path fill="#4A80AA" d="M323.571 496.293l-18.902 8.207-2.343-20.473a40.409 40.409 0 015.151-24.798l123.138-213.282 34.993 20.203L342.47 479.433a40.408 40.408 0 01-18.899 16.86z" data-original="#4a80aa"/><path fill="#407093" d="M449.862 257.059L326.724 470.341a40.405 40.405 0 01-18.9 16.86l-4.892 2.124 1.737 15.175 18.902-8.207a40.41 40.41 0 0018.9-16.86l123.138-213.282z" data-original="#407093"/><path fill="#FFE07D" d="M396.262 305.446l16.163-27.993 34.992 20.203-16.162 27.994z" data-original="#ffe07d"/><path fill="#FFD064" d="M415.508 316.559l16.163-27.994 15.746 9.092-16.162 27.993z" data-original="#ffd064"/><path d="M46.39 412.35a7.5 7.5 0 007.5-7.5V23.66c0-4.775 3.885-8.66 8.66-8.66h339.42c4.775 0 8.66 3.885 8.66 8.66v79.479c0 4.143 3.358 7.5 7.5 7.5s7.5-3.357 7.5-7.5V23.66C425.63 10.614 415.016 0 401.97 0H62.55C49.504 0 38.89 10.614 38.89 23.66v381.19a7.5 7.5 0 007.5 7.5z" data-original="#000000"/><path d="M194.304 86.581c0-12.093-9.838-21.931-21.931-21.931h-72.155c-12.093 0-21.931 9.838-21.931 21.931v72.154c0 12.093 9.838 21.932 21.931 21.932h72.155c12.093 0 21.931-9.839 21.931-21.932zm-15 72.154c0 3.822-3.109 6.932-6.931 6.932h-72.155a6.939 6.939 0 01-6.931-6.932V86.581a6.94 6.94 0 016.931-6.931h72.155a6.939 6.939 0 016.931 6.931z" data-original="#000000"/><path d="M151.196 104.56l-20.288 20.288-7.492-7.492a7.5 7.5 0 10-10.606 10.605l12.795 12.796a7.497 7.497 0 0010.606.001l25.591-25.591a7.5 7.5 0 00-10.606-10.607zm82.075 23.579H351.46c4.142 0 7.5-3.357 7.5-7.5s-3.358-7.5-7.5-7.5H233.271c-4.142 0-7.5 3.357-7.5 7.5s3.358 7.5 7.5 7.5zm145.464-47.326h-71.722c-4.142 0-7.5 3.357-7.5 7.5s3.358 7.5 7.5 7.5h71.722c4.142 0 7.5-3.357 7.5-7.5s-3.358-7.5-7.5-7.5zm-145.464 15h38.386c4.142 0 7.5-3.357 7.5-7.5s-3.358-7.5-7.5-7.5h-38.386c-4.142 0-7.5 3.357-7.5 7.5s3.358 7.5 7.5 7.5zm45.457 49.651c-4.142 0-7.5 3.357-7.5 7.5s3.358 7.5 7.5 7.5h39.396c4.142 0 7.5-3.357 7.5-7.5s-3.358-7.5-7.5-7.5zm-45.457 15h10.102c4.142 0 7.5-3.357 7.5-7.5s-3.358-7.5-7.5-7.5h-10.102c-4.142 0-7.5 3.357-7.5 7.5s3.358 7.5 7.5 7.5zm-38.967 59.459c0-12.093-9.838-21.931-21.931-21.931h-72.155c-12.093 0-21.931 9.838-21.931 21.931v72.154c0 12.093 9.838 21.931 21.931 21.931h72.155c12.093 0 21.931-9.838 21.931-21.931zm-15 72.154a6.94 6.94 0 01-6.931 6.931h-72.155a6.939 6.939 0 01-6.931-6.931v-72.154a6.94 6.94 0 016.931-6.931h72.155a6.939 6.939 0 016.931 6.931z" data-original="#000000"/><path d="M151.196 237.901l-20.288 20.287-7.492-7.492a7.5 7.5 0 00-10.606.001 7.5 7.5 0 000 10.606l12.795 12.795c1.464 1.464 3.384 2.196 5.303 2.196s3.839-.732 5.303-2.196l25.591-25.59a7.501 7.501 0 00-10.606-10.607zm207.764 16.078a7.5 7.5 0 00-7.5-7.5H233.271c-4.142 0-7.5 3.357-7.5 7.5s3.358 7.5 7.5 7.5H351.46c4.143 0 7.5-3.357 7.5-7.5zm27.275-32.325a7.5 7.5 0 00-7.5-7.5h-71.722c-4.142 0-7.5 3.357-7.5 7.5s3.358 7.5 7.5 7.5h71.722a7.5 7.5 0 007.5-7.5zm-152.964 7.5h38.386c4.142 0 7.5-3.357 7.5-7.5s-3.358-7.5-7.5-7.5h-38.386c-4.142 0-7.5 3.357-7.5 7.5s3.358 7.5 7.5 7.5zm92.354 57.151a7.5 7.5 0 00-7.5-7.5h-39.396c-4.142 0-7.5 3.357-7.5 7.5s3.358 7.5 7.5 7.5h39.396a7.5 7.5 0 007.5-7.5zm-92.354 7.5h10.102c4.142 0 7.5-3.357 7.5-7.5s-3.358-7.5-7.5-7.5h-10.102c-4.142 0-7.5 3.357-7.5 7.5s3.358 7.5 7.5 7.5zm-60.898 37.528h-72.155c-12.093 0-21.931 9.839-21.931 21.932v72.154c0 12.093 9.838 21.931 21.931 21.931h72.155c12.093 0 21.931-9.838 21.931-21.931v-72.154c0-12.093-9.838-21.932-21.931-21.932zm6.931 94.086a6.94 6.94 0 01-6.931 6.931h-72.155a6.939 6.939 0 01-6.931-6.931v-72.154c0-3.822 3.109-6.932 6.931-6.932h72.155a6.939 6.939 0 016.931 6.932z" data-original="#000000"/><path d="M151.196 371.242l-20.288 20.288-7.492-7.492a7.5 7.5 0 00-10.606.001 7.5 7.5 0 000 10.606l12.795 12.795c1.464 1.464 3.384 2.196 5.303 2.196s3.839-.732 5.303-2.196l25.591-25.591a7.5 7.5 0 00-10.606-10.607zm82.075-8.746h38.386c4.142 0 7.5-3.357 7.5-7.5s-3.358-7.5-7.5-7.5h-38.386c-4.142 0-7.5 3.357-7.5 7.5s3.358 7.5 7.5 7.5zm10.102 64.65c4.142 0 7.5-3.357 7.5-7.5s-3.358-7.5-7.5-7.5h-10.102c-4.142 0-7.5 3.357-7.5 7.5s3.358 7.5 7.5 7.5z" data-original="#000000"/><path d="M472.854 264.209a7.5 7.5 0 00-3.495-4.554l-34.99-20.2a7.5 7.5 0 00-8.74.9V138.14c0-4.143-3.358-7.5-7.5-7.5s-7.5 3.357-7.5 7.5v127.434l-47.3 81.926H307.01c-4.142 0-7.5 3.357-7.5 7.5s3.358 7.5 7.5 7.5h47.659l-10 17.32H233.27c-4.142 0-7.5 3.357-7.5 7.5s3.358 7.5 7.5 7.5h102.738l-10.004 17.326h-47.276c-4.142 0-7.5 3.357-7.5 7.5s3.358 7.5 7.5 7.5h38.615l-16.359 28.334c-5.176 8.965-7.287 19.134-6.106 29.401L296.264 497H62.55c-4.775 0-8.66-3.885-8.66-8.66v-48.49c0-4.143-3.358-7.5-7.5-7.5s-7.5 3.357-7.5 7.5v48.49c0 13.046 10.614 23.66 23.66 23.66h339.42c13.046 0 23.66-10.614 23.66-23.66V350.4l46.475-80.5a7.496 7.496 0 00.749-5.691zm-44.335 51.186l-22-12.702 8.663-15.004 22 12.701zM410.63 488.34c0 4.775-3.885 8.66-8.66 8.66h-65.068c4.85-3.785 8.982-8.484 12.063-13.82l29.34-50.809a7.5 7.5 0 00-12.991-7.501l-29.34 50.81c-3.5 6.062-8.967 10.938-15.394 13.731l-9.61 4.175-1.19-10.412c-.811-7.054.64-14.036 4.194-20.193l85.044-147.297 22 12.702-38.205 66.175a7.5 7.5 0 0012.99 7.5l14.825-25.678V488.34zm34.051-200.94l-21.999-12.701 10.683-18.503 22 12.7z" data-original="#000000"/></svg><svg viewBox="0 0 64 64" id="svgexport-10" xmlns="http://www.w3.org/2000/svg"><g data-name="Layer 31"><path fill="#F8C460" d="M57.992 24.912l-7.019 6.276-17.379 6.073a2.028 2.028 0 01-2.239-.656 25.738 25.738 0 01-5.906-16.192 2.022 2.022 0 011.342-1.959L44.132 12.4l9.412.3a2 2 0 011.817 1.315l3.178 8.731a2 2 0 01-.547 2.166z" data-original="#f8c460"/><path fill="#FAAF42" d="M26 21a3.017 3.017 0 00-.515.052 25.7 25.7 0 005.87 15.548 2.07 2.07 0 00.741.553L29 24a3 3 0 00-3-3z" data-original="#faaf42"/><path fill="#FAAF42" d="M58.423 22.421l-6.45 5.767-9.229 3.225a11.969 11.969 0 01-15.664-8.658 27.215 27.215 0 01-.564-4.152 2.014 2.014 0 00-1.067 1.81 25.749 25.749 0 005.96 16.258 1.979 1.979 0 002.185.59l17.379-6.073 7.019-6.276a2 2 0 00.547-2.175z" data-original="#faaf42"/><path fill="#E6E6E6" d="M4.621 18.515l-3.5 14.007a4.019 4.019 0 00-.119.97V45a2 2 0 002 2H17V19a2 2 0 00-2-2H6.562a2 2 0 00-1.941 1.515z" data-original="#e6e6e6"/><path fill="#CECECE" d="M17 44A13 13 0 014 31v-.508a4.019 4.019 0 01.119-.97L7.25 17h-.688a2 2 0 00-1.941 1.515l-3.5 14.007a4.021 4.021 0 00-.121.971V45a2 2 0 002 2h14z" data-original="#cecece"/><path fill="#A7D0E1" d="M13 23v2.636a4 4 0 01-3.315 3.94L1.5 31 4 21h7a2 2 0 012 2z" data-original="#a7d0e1"/><path fill="#80BBCE" d="M9.685 27.576l-2.281.4a2 2 0 01-2.283-2.455L6.25 21H4l-1.977 7.909L1.5 31l8.185-1.424A4 4 0 0013 25.636v-2a4 4 0 01-3.315 3.94z" data-original="#80bbce"/><path fill="#F8C460" d="M1 41h62v4a2 2 0 01-2 2H3a2 2 0 01-2-2v-4z" data-original="#f8c460"/><path fill="#FAAF42" d="M6 44a2 2 0 01-2-2v-1H1v4a2 2 0 002 2h58a2 2 0 002-2v-1z" data-original="#faaf42"/><circle cx="13" cy="47" r="6" fill="#7A838B" data-original="#7a838b"/><path fill="#5D6972" d="M16 50a5.993 5.993 0 01-5.466-8.466 6 6 0 107.932 7.932A5.974 5.974 0 0116 50z" data-original="#5d6972"/><circle cx="53" cy="47" r="6" fill="#7A838B" data-original="#7a838b"/><circle cx="37" cy="47" r="6" fill="#7A838B" data-original="#7a838b"/><path fill="#5D6972" d="M40 50a5.993 5.993 0 01-5.466-8.466 6 6 0 107.932 7.932A5.974 5.974 0 0140 50zm16 0a5.993 5.993 0 01-5.466-8.466 6 6 0 107.932 7.932A5.974 5.974 0 0156 50z" data-original="#5d6972"/><path fill="#E6E6E6" d="M45 41l14-14V13a2 2 0 012-2 2 2 0 012 2v16l-6 12z" data-original="#e6e6e6"/><path fill="#CECECE" d="M59 27L45 41h12l1.5-3h-2.672a2 2 0 01-1.414-3.414l5.465-5.465A1.242 1.242 0 0059 27z" data-original="#cecece"/><path fill="#E6E6E6" d="M27 24h-6v17h10z" data-original="#e6e6e6"/><path fill="#CECECE" d="M24 34V24h-3v17h10l-.706-3H28a4 4 0 01-4-4z" data-original="#cecece"/><circle cx="24" cy="24" r="3" fill="#7A838B" data-original="#7a838b"/><path fill="#5D6972" d="M24 21a3 3 0 103 3 3 3 0 01-3-3z" data-original="#5d6972"/><g fill="#E6E6E6"><circle cx="13" cy="47" r="2" data-original="#e6e6e6"/><circle cx="37" cy="47" r="2" data-original="#e6e6e6"/><circle cx="53" cy="47" r="2" data-original="#e6e6e6"/></g><path d="M13 44a3 3 0 103 3 3 3 0 00-3-3zm0 4a1 1 0 111-1 1 1 0 01-1 1zm24-4a3 3 0 103 3 3 3 0 00-3-3zm0 4a1 1 0 111-1 1 1 0 01-1 1zm16-4a3 3 0 103 3 3 3 0 00-3-3zm0 4a1 1 0 111-1 1 1 0 01-1 1z" data-original="#000000"/><path d="M64 29V13a3 3 0 00-6 0v5.334l-1.7-4.67a2.985 2.985 0 00-2.725-1.973l-9.411-.3a.876.876 0 00-.362.056L39.67 12.9a1 1 0 10.66 1.887l3.957-1.387 9.225.29a1 1 0 01.909.657L57.6 23.08a1 1 0 01-.273 1.087l-6.872 6.143-17.191 6.007a1.031 1.031 0 01-1.132-.342 27.008 27.008 0 01-1.888-2.629c-.006-.01-.017-.015-.023-.024L27.979 23.8a3.972 3.972 0 00-1.515-2.922c-.006-.159-.013-.318-.015-.478a1.024 1.024 0 01.672-1l9.209-3.22a1 1 0 10-.66-1.888l-9.209 3.218a3.007 3.007 0 00-1.989 2.538A3.869 3.869 0 0024 20a4 4 0 00-4 4v16h-2V19a3 3 0 00-3-3H6.562a3 3 0 00-2.911 2.272L.15 32.279A4.951 4.951 0 000 33.492V45a3 3 0 003 3h3.08a6.991 6.991 0 0013.84 0h10.16a6.991 6.991 0 0013.84 0h2.16a6.991 6.991 0 0013.84 0H61a3 3 0 003-3v-4a1 1 0 00-1-1h-4.382L63.9 29.447A1 1 0 0064 29zm-31.051 9.37a2.963 2.963 0 00.975-.165L51.3 32.132a1 1 0 00.336-.2L58 26.247v.339L44.586 40H31.792l-.505-2.148a3.039 3.039 0 001.662.518zM46.08 46h-2.16a6.98 6.98 0 00-2.03-4h6.22a6.98 6.98 0 00-2.03 4zm-16 0H19.92a6.98 6.98 0 00-2.03-4h14.22a6.98 6.98 0 00-2.03 4zM24 22a2 2 0 11-2 2 2 2 0 012-2zm-2 5.444a3.913 3.913 0 004.669-.486L29.737 40H22zM2.09 32.765L4.781 22H11a1 1 0 011 1v2.636a2.993 2.993 0 01-2.486 2.955l-4.685.815a1 1 0 10.342 1.97l4.686-.814A4.991 4.991 0 0014 25.636V23a3 3 0 00-3-3H5.281l.31-1.242A1 1 0 016.562 18H15a1 1 0 011 1v21H2v-6.508a2.967 2.967 0 01.09-.727zM2 45v-3h6.11a6.98 6.98 0 00-2.03 4H3a1 1 0 01-1-1zm11 7a5 5 0 115-5 5.006 5.006 0 01-5 5zm24 0a5 5 0 115-5 5.006 5.006 0 01-5 5zm16 0a5 5 0 115-5 5.006 5.006 0 01-5 5zm9-7a1 1 0 01-1 1h-1.08a6.98 6.98 0 00-2.03-4H62zm0-16.236L56.382 40h-8.968l12.293-12.293A1 1 0 0060 27V13a1 1 0 012 0z" data-original="#000000"/><path d="M13 35a1 1 0 001-1v-2a1 1 0 00-2 0v2a1 1 0 001 1z" data-original="#000000"/><path fill="#FFF" d="M50 15.58h-.031l-3-.1a1 1 0 11.062-2l3 .095a1 1 0 01-.031 2z" data-original="#ffffff"/></g></svg><svg viewBox="0 0 512 512" id="svgexport-18" xmlns="http://www.w3.org/2000/svg"><path d="M256 0c-37.1-.1-73.8 8-107.5 23.6-10.1 4.6-14.5 16.6-9.8 26.6 1 2.1 2.3 4.1 4 5.8 6 6 15.2 7.5 22.8 3.9C193.8 46.8 224.7 40 256 40c119 .2 215.9 97.1 216 216 0 119.1-96.9 216-216 216S40 375.1 40 256c0-30.6 6.5-60.9 19.1-88.8 3.5-7.6 2-16.7-4-22.7-7.8-7.8-20.5-7.8-28.4 0-1.7 1.7-3.1 3.7-4.1 5.9C7.7 183.7 0 219.6 0 256c0 141.4 114.6 256 256 256s256-114.6 256-256C511.8 114.7 397.3.2 256 0z" data-original="#000000"/><path d="M378.4 242.2l-.6-.6-107.7-107.8c-7.8-7.8-20.5-7.8-28.3 0s-7.8 20.5 0 28.3l73.9 73.8H148.1c-11 0-20 9-20 20s9 20 20 20h167.6l-73.9 73.8c-7.8 7.8-7.8 20.5 0 28.3s20.5 7.8 28.3 0l107.7-107.7.6-.6c7.4-7.6 7.4-19.8 0-27.5z" data-original="#000000"/></svg><svg viewBox="0 0 24 24" id="telegram" xmlns="http://www.w3.org/2000/svg"><circle cx="12" cy="12" r="12" fill="#039BE5" data-original="#039be5"/><path fill="#FFF" d="M5.491 11.74l11.57-4.461c.537-.194 1.006.131.832.943l.001-.001-1.97 9.281c-.146.658-.537.818-1.084.508l-3-2.211-1.447 1.394c-.16.16-.295.295-.605.295l.213-3.053 5.56-5.023c.242-.213-.054-.333-.373-.121l-6.871 4.326-2.962-.924c-.643-.204-.657-.643.136-.953z" data-original="#ffffff"/></svg><svg viewBox="0 0 152 152" id="whatsapp" xmlns="http://www.w3.org/2000/svg"><g data-name="Layer 2"><g data-name="08.whatsapp"><circle cx="76" cy="76" r="76" fill="#2AA81A" data-original="#2aa81a"/><g fill="#FFF"><path d="M102.81 49.19a37.7 37.7 0 00-60.4 43.62l-4 19.42a1.42 1.42 0 00.23 1.13 1.45 1.45 0 001.54.6l19-4.51a37.7 37.7 0 0043.6-60.26zm-5.94 47.37a29.56 29.56 0 01-34 5.57l-2.66-1.32-11.67 2.76v-.15L51 91.65l-1.3-2.56a29.5 29.5 0 015.43-34.27 29.53 29.53 0 0141.74 0L97 55a29.52 29.52 0 01-.15 41.58z" data-original="#ffffff"/><path d="M95.84 88c-1.43 2.25-3.7 5-6.53 5.69-5 1.2-12.61 0-22.14-8.81l-.12-.11c-8.29-7.74-10.49-14.19-10-19.3.29-2.91 2.71-5.53 4.75-7.25a2.72 2.72 0 014.25 1l3.07 6.94a2.7 2.7 0 01-.33 2.76l-1.56 2a2.65 2.65 0 00-.21 2.95 29 29 0 005.27 5.86 31.17 31.17 0 007.3 5.23 2.65 2.65 0 002.89-.61l1.79-1.82a2.71 2.71 0 012.73-.76l7.3 2.09A2.74 2.74 0 0195.84 88z" data-original="#ffffff"/></g></g></g></svg></svg>