<svg xmlns="http://www.w3.org/2000/svg" version="1.1" xmlns:xlink="http://www.w3.org/1999/xlink" width="50" height="50" x="0" y="0" viewBox="0 0 512 512" style="enable-background:new 0 0 512 512" xml:space="preserve" class=""><g><path fill="#F4FBFF" d="M117.222 7.499h254.439c16.351 0 29.606 13.255 29.606 29.606v437.789c0 16.351-13.255 29.606-29.606 29.606H39.899c-16.351 0-29.606-13.255-29.606-29.606V114.429a29.604 29.604 0 0 1 8.672-20.935l77.323-77.323a29.601 29.601 0 0 1 20.934-8.672z" opacity="1" data-original="#f4fbff" class=""></path><path fill="#E4F6FF" d="M371.661 7.499h-63.573c16.351 0 29.606 13.255 29.606 29.606v437.789c0 16.351-13.255 29.606-29.606 29.606h63.573c16.351 0 29.606-13.255 29.606-29.606V37.106c.001-16.352-13.255-29.607-29.606-29.607z" opacity="1" data-original="#e4f6ff" class=""></path><path fill="#E1F1FF" d="m18.965 93.494 77.323-77.323a29.6 29.6 0 0 1 8.672-6.012V83.81c0 10.137-8.218 18.355-18.355 18.355H12.953a29.583 29.583 0 0 1 6.012-8.671z" opacity="1" data-original="#e28086" class=""></path><path fill="#37BE75" d="M328.383 102.165H174.415a9.312 9.312 0 0 1-9.312-9.312V68.519a9.312 9.312 0 0 1 9.312-9.312h153.968a9.312 9.312 0 0 1 9.312 9.312v24.334a9.312 9.312 0 0 1-9.312 9.312z" opacity="1" data-original="#cbe2ff" class=""></path><path fill="#37BE75" d="m433.184 447.884-27.503-16.931a8.418 8.418 0 0 0-8.826 0l-27.503 16.931c-5.608 3.453-12.83-.582-12.83-7.168V331.792h89.493v108.923c-.001 6.586-7.223 10.621-12.831 7.169z" opacity="1" data-original="#e8ae4d" class=""></path><path fill="#FFE07D" d="M419.052 180.732a22.487 22.487 0 0 0 24.083 7.825c14.121-4.121 28.33 6.203 28.775 20.906a22.486 22.486 0 0 0 14.884 20.486c13.846 4.967 19.274 21.671 10.991 33.827a22.487 22.487 0 0 0 0 25.322c8.282 12.156 2.855 28.861-10.991 33.827a22.486 22.486 0 0 0-14.884 20.486c-.445 14.703-14.654 25.027-28.775 20.906a22.487 22.487 0 0 0-24.083 7.825c-9.002 11.634-26.566 11.634-35.568 0a22.487 22.487 0 0 0-24.083-7.825c-14.121 4.12-28.33-6.203-28.775-20.906a22.486 22.486 0 0 0-14.884-20.486c-13.846-4.967-19.274-21.671-10.991-33.827a22.487 22.487 0 0 0 0-25.322c-8.282-12.156-2.855-28.861 10.991-33.827a22.486 22.486 0 0 0 14.884-20.486c.445-14.703 14.654-25.027 28.775-20.906a22.487 22.487 0 0 0 24.083-7.825c9.002-11.634 26.565-11.634 35.568 0z" opacity="1" data-original="#ffe07d"></path><path fill="#FFD064" d="M497.785 289.099a22.487 22.487 0 0 1 0-25.322c8.283-12.157 2.855-28.861-10.991-33.827a22.486 22.486 0 0 1-14.884-20.486c-.445-14.703-14.654-25.027-28.775-20.906a22.487 22.487 0 0 1-24.083-7.825c-9.002-11.634-26.566-11.634-35.568 0a22.473 22.473 0 0 1-4.339 4.264c34.712 15.813 58.842 50.809 58.842 91.441s-24.13 75.629-58.842 91.441a22.445 22.445 0 0 1 4.339 4.264c9.002 11.634 26.566 11.634 35.568 0a22.487 22.487 0 0 1 24.083-7.825c14.121 4.121 28.33-6.203 28.775-20.906a22.487 22.487 0 0 1 14.884-20.486c13.846-4.967 19.273-21.671 10.991-33.827z" opacity="1" data-original="#ffd064"></path><circle cx="401.268" cy="276.438" r="55.355" fill="#37BE75" opacity="1" data-original="#e8ae4d" class=""></circle><path fill="#37BE75" d="M456.622 276.438c0-22.261-13.14-41.452-32.087-50.241 8.555 14.778 13.451 31.938 13.451 50.241s-4.897 35.463-13.451 50.241c18.947-8.789 32.087-27.981 32.087-50.241z" opacity="1" data-original="#e5a32e" class=""></path><path fill="#E1F1FF" d="m18.965 93.494 77.323-77.323a29.6 29.6 0 0 1 8.672-6.012V83.81c0 10.137-8.218 18.355-18.355 18.355H12.953a29.583 29.583 0 0 1 6.012-8.671z" opacity="1" data-original="#e28086" class=""></path><path d="M258.773 181.506H66.789a7.5 7.5 0 0 0 0 14.998h191.985a7.5 7.5 0 1 0-.001-14.998zM258.773 234.202H66.789a7.5 7.5 0 0 0 0 14.998h191.985a7.5 7.5 0 1 0-.001-14.998zM258.773 286.897H66.789a7.5 7.5 0 0 0 0 14.998h191.985a7.5 7.5 0 1 0-.001-14.998zM266.273 347.093a7.498 7.498 0 0 0-7.499-7.499H66.789a7.5 7.5 0 0 0 0 14.998h191.985a7.498 7.498 0 0 0 7.499-7.499zM66.789 416.821a7.5 7.5 0 0 0 0 14.998h96.238a7.5 7.5 0 0 0 0-14.998zM345.194 92.853V68.519c0-9.27-7.541-16.812-16.812-16.812H174.415c-9.27 0-16.811 7.542-16.811 16.812v24.334c0 9.27 7.541 16.811 16.811 16.811h13.002a7.5 7.5 0 0 0 0-14.998h-13.002a1.814 1.814 0 0 1-1.812-1.812V68.519c0-.999.813-1.813 1.812-1.813h153.967c1 0 1.813.813 1.813 1.813v24.334c0 .999-.813 1.812-1.813 1.812H222.477a7.5 7.5 0 0 0 0 14.998h105.906c9.27.002 16.811-7.54 16.811-16.81z" fill="#000000" opacity="1" data-original="#000000" class=""></path><path d="M401.268 457.296a7.5 7.5 0 0 0-7.499 7.499v10.099c0 12.189-9.917 22.107-22.108 22.107H39.899c-12.189 0-22.107-9.917-22.107-22.107V114.428c0-1.623.19-3.215.529-4.764h68.283c14.256 0 25.854-11.598 25.854-25.854V15.528a22.247 22.247 0 0 1 4.763-.529H371.66c12.19 0 22.108 9.917 22.108 22.107v99.842a7.5 7.5 0 0 0 14.998 0V37.105C408.767 16.646 392.121 0 371.661 0H117.222c-9.911 0-19.23 3.86-26.238 10.868L13.661 88.191c-7.008 7.008-10.867 16.326-10.867 26.238v360.466c0 20.46 16.645 37.105 37.105 37.105h331.762c20.46 0 37.106-16.646 37.106-37.105v-10.099a7.5 7.5 0 0 0-7.499-7.5zM97.46 25.604V83.81c0 5.986-4.87 10.856-10.856 10.856H28.398z" fill="#000000" opacity="1" data-original="#000000" class=""></path><path d="M503.982 267.999c5.264-7.727 6.626-17.258 3.737-26.15s-9.594-15.802-18.394-18.958c-5.838-2.094-9.733-7.454-9.919-13.654-.283-9.345-4.784-17.857-12.349-23.353-7.563-5.495-17.051-7.144-26.023-4.526-5.958 1.738-12.255-.31-16.051-5.215-5.721-7.395-14.365-11.636-23.715-11.636-9.349 0-17.994 4.241-23.716 11.636-3.796 4.906-10.097 6.951-16.05 5.215-8.973-2.62-18.46-.969-26.025 4.526-7.564 5.496-12.063 14.007-12.347 23.352-.187 6.2-4.081 11.559-9.92 13.654-8.8 3.156-15.505 10.067-18.393 18.958-2.889 8.892-1.527 18.424 3.737 26.15 3.492 5.127 3.492 11.751 0 16.877-5.264 7.727-6.626 17.258-3.737 26.15 2.888 8.892 9.593 15.802 18.393 18.959 5.839 2.095 9.734 7.454 9.92 13.654a29.983 29.983 0 0 0 25.893 28.8v68.278a15.93 15.93 0 0 0 8.154 13.895 15.93 15.93 0 0 0 16.107-.341l27.505-16.932c.448-.277.715-.152.962 0l27.503 16.932a15.932 15.932 0 0 0 16.108.34 15.93 15.93 0 0 0 8.154-13.895v-68.279a29.98 29.98 0 0 0 25.893-28.799c.186-6.2 4.081-11.56 9.919-13.654 8.801-3.156 15.506-10.067 18.394-18.959 2.889-8.892 1.527-18.423-3.737-26.15-3.496-5.124-3.496-11.748-.003-16.875zm-66.867 173.499-27.504-16.932a15.917 15.917 0 0 0-16.687 0l-27.504 16.931a.912.912 0 0 1-1.399-.782v-69.701c5.156-.597 10.268 1.501 13.531 5.718 5.723 7.394 14.367 11.635 23.717 11.635 9.349 0 17.993-4.241 23.714-11.635 3.264-4.218 8.377-6.315 13.532-5.718v69.701a.913.913 0 0 1-1.4.783zm54.472-148.176c2.632 3.862 3.312 8.625 1.868 13.069s-4.795 7.898-9.194 9.476c-11.682 4.19-19.472 14.913-19.847 27.318-.133 4.361-2.05 8.292-5.397 11.07-3.763 3.123-8.859 4.301-13.781 2.865-11.913-3.476-24.52.62-32.116 10.434a14.887 14.887 0 0 1-11.853 5.815 14.89 14.89 0 0 1-11.854-5.815c-5.799-7.496-14.52-11.656-23.623-11.656a30.28 30.28 0 0 0-8.49 1.221c-4.97 1.448-10.051.234-13.784-2.865-3.347-2.778-5.264-6.709-5.395-11.069-.376-12.405-8.166-23.128-19.849-27.319a14.89 14.89 0 0 1-9.193-9.475 14.884 14.884 0 0 1 1.868-13.07c6.987-10.257 6.987-23.51 0-33.767a14.886 14.886 0 0 1-1.868-13.071 14.885 14.885 0 0 1 9.193-9.475c11.683-4.191 19.473-14.914 19.849-27.319a14.88 14.88 0 0 1 6.17-11.671 14.888 14.888 0 0 1 13.008-2.263c11.91 3.477 24.52-.62 32.114-10.434a14.887 14.887 0 0 1 11.854-5.816c4.673 0 8.993 2.119 11.853 5.815 7.595 9.815 20.199 13.911 32.115 10.435a14.881 14.881 0 0 1 13.007 2.262 14.88 14.88 0 0 1 6.171 11.671c.376 12.405 8.166 23.129 19.848 27.319a14.886 14.886 0 0 1 9.194 9.475 14.884 14.884 0 0 1-1.868 13.07c-6.989 10.258-6.989 23.513 0 33.77z" fill="#000000" opacity="1" data-original="#000000" class=""></path><path d="M401.268 213.583c-34.658 0-62.854 28.196-62.854 62.854s28.196 62.854 62.854 62.854c34.657 0 62.853-28.196 62.853-62.854s-28.196-62.854-62.853-62.854zm0 110.71c-26.388 0-47.856-21.468-47.856-47.855s21.468-47.856 47.856-47.856 47.855 21.468 47.855 47.856-21.468 47.855-47.855 47.855z" fill="#000000" opacity="1" data-original="#000000" class=""></path></g></svg>