<svg xmlns="http://www.w3.org/2000/svg" xmlns:xlink="http://www.w3.org/1999/xlink" version="1.1" width="50" height="50" x="0" y="0" viewBox="0 0 512 512" style="enable-background:new 0 0 512 512" xml:space="preserve" class="">
  <g>
    <path d="M50 375.999 49.999 296c0-11-9-20-20-20H10v199.996h20c11 0 20-9 20-20v-79.997z" style="" fill="#37be75" data-original="#4ad194" class="" opacity="1"/>
    <path d="M126.289 375.999H50v39.998h76.289c-2.211-6.255-3.414-12.986-3.414-19.999s1.203-13.744 3.414-19.999z" style="" fill="#e1e6e9" data-original="#e1e6e9"/>
    <path d="M182.874 335.999c-26.124 0-48.348 16.696-56.585 39.999-2.211 6.256-3.414 12.987-3.414 20s1.203 13.744 3.414 19.999c8.236 23.304 30.46 39.999 56.585 39.999 33.138 0 59.999-26.86 59.999-59.999 0-14.884-5.42-28.502-14.396-38.986-8.743-10.223-20.864-17.469-34.635-20.013a60.403 60.403 0 0 0-10.968-.999z" style="" fill="#ff9750" data-original="#ff9750"/>
    <path d="m222.804 286.84-28.961 50.163c13.771 2.541 25.892 9.787 34.635 20.01l28.967-50.172-34.641-20.001z" style="" fill="#e1e6e9" data-original="#e1e6e9"/>
    <path d="m222.804 286.84 34.641 20.001 99.921 57.689c9.526 5.5 21.82 2.206 27.319-7.321l10.001-17.322 39.996-69.275-109.276 29.28-207.847-120.001-10 17.32c-5.5 9.526-2.206 21.82 7.32 27.319l107.925 62.31z" style="" fill="#37be75" data-original="#4ad194" class="" opacity="1"/>
    <path d="m117.559 179.891 207.847 120.001 109.276-29.28 54.645-14.642 9.999-17.319c5.5-9.526 2.206-21.82-7.319-27.318L197.557 41.33c-19.053-11-43.645-4.399-54.638 14.64l-50 86.601c-5.5 9.527-2.206 21.821 7.321 27.32l17.319 10z" style="" fill="#e1e6e9" data-original="#e1e6e9"/>
    <path d="m434.682 270.61-39.996 69.276 17.322 10.001c9.527 5.501 21.823 2.206 27.323-7.322l19.994-34.63c5.501-9.527 2.206-21.823-7.321-27.323l-17.322-10.002z" style="" fill="#ff9750" data-original="#ff9750"/>
    <path d="M510.96 220.892c-2.077-7.755-7.033-14.227-13.953-18.222l-294.451-170a49.83 49.83 0 0 0-24.878-6.665c-17.892 0-34.528 9.566-43.419 24.964l-50 86.602c-3.996 6.921-5.052 15.003-2.974 22.758 2.078 7.756 7.034 14.228 13.955 18.223l8.659 5-5 8.66c-8.271 14.326-3.345 32.709 10.98 40.979l99.264 57.31-20.638 35.746a70.405 70.405 0 0 0-5.632-.247c-25.625 0-48.066 13.85-60.264 34.449-.121.181-.246.359-.356.55-.117.202-.214.41-.316.616a70.668 70.668 0 0 0-2.295 4.384H59.999V296c0-16.542-13.458-29.999-29.999-29.999H10c-5.523 0-10 4.477-10 10v199.996c0 5.523 4.477 10 10 10h20c16.542 0 29.999-13.458 29.999-29.999v-29.999h59.645c11.255 23.628 35.363 39.999 63.231 39.999 25.681 0 48.163-13.911 60.343-34.584.091-.141.194-.268.278-.415.118-.204.216-.414.318-.622a69.539 69.539 0 0 0 9.06-34.377c0-14.749-4.597-28.437-12.416-39.734l20.648-35.763 91.261 52.689a29.934 29.934 0 0 0 14.942 4.004h.002c10.723 0 20.7-5.742 26.035-14.984l5.001-8.663 8.662 5a29.922 29.922 0 0 0 14.943 4.004c10.726 0 20.704-5.742 26.04-14.986l19.994-34.63c3.996-6.921 5.053-15.004 2.974-22.76-1.737-6.485-5.493-12.066-10.722-16.059l31.678-8.488a9.992 9.992 0 0 0 6.072-4.66l9.999-17.319c3.994-6.922 5.051-15.004 2.973-22.759zM39.999 455.995c0 5.514-4.486 10-10 10H20V285.999h10c5.514 0 10 4.486 10 10v159.996zm142.875-109.996c27.569 0 49.999 22.43 49.999 49.998a49.78 49.78 0 0 1-2.583 15.829l-84.811-48.966c9.166-10.332 22.529-16.861 37.395-16.861zM60 405.997v-19.999h53.602a70.18 70.18 0 0 0-.726 9.999c0 3.396.256 6.731.726 10H60zm122.874 39.999c-27.569 0-49.998-22.43-49.998-49.999a49.78 49.78 0 0 1 2.583-15.829l84.811 48.965c-9.167 10.334-22.529 16.863-37.396 16.863zm43.277-104.954a70 70 0 0 0-17.306-10.027l17.619-30.516 17.321 10.001-17.634 30.542zm141.158 16.151h-.001a9.901 9.901 0 0 1-4.943-1.324L119.88 215.87c-4.775-2.757-6.417-8.885-3.66-13.66l5-8.66 199.186 115.001c.346.2.703.37 1.066.525.107.046.215.085.323.127.272.106.549.2.829.281.109.032.219.065.329.094.38.096.763.177 1.15.228l.017.001c.382.049.767.07 1.152.075.044 0 .088.009.133.009.072 0 .145-.013.217-.014.288-.006.575-.025.863-.057.115-.012.23-.022.347-.039.389-.057.777-.128 1.161-.231l85.957-23.032-37.926 65.691c-.002.002.002-.002 0 0-1.774 3.075-5.113 4.984-8.715 4.984zm83.356-54.259-19.994 34.63c-1.775 3.076-5.117 4.986-8.721 4.986a9.762 9.762 0 0 1-4.943-1.325l-8.662-5.001 29.996-51.956 8.662 5.001c2.295 1.325 3.941 3.484 4.637 6.08.697 2.598.35 5.29-.975 7.585zm40.001-69.284-7.928 13.733-155.92 41.777-221.577-127.929c-2.294-1.324-3.941-3.483-4.636-6.078s-.349-5.288.976-7.583l50-86.601c5.33-9.231 15.331-14.966 26.099-14.966a29.79 29.79 0 0 1 14.879 3.986l294.45 170.001c2.294 1.324 3.939 3.483 4.635 6.077.693 2.596.346 5.288-.978 7.583z" fill="#000000" opacity="1" data-original="#000000" class=""/>
    <path d="m330.616 250.937-.233-.135c-4.784-2.761-10.898-1.122-13.66 3.66-2.762 4.783-1.123 10.899 3.66 13.661l.233.135a9.997 9.997 0 0 0 13.66-3.66c2.762-4.783 1.123-10.899-3.66-13.661zM305.501 236.438 140.06 140.92c-4.782-2.762-10.899-1.124-13.66 3.66-2.761 4.783-1.123 10.899 3.66 13.66l165.441 95.519a9.997 9.997 0 0 0 13.66-3.66c2.762-4.784 1.123-10.899-3.66-13.661zM458.289 220.731l-26.875-15.517c-4.784-2.761-10.898-1.122-13.66 3.66-2.762 4.783-1.123 10.899 3.66 13.66l26.875 15.517a10 10 0 0 0 13.66-3.66c2.762-4.782 1.123-10.898-3.66-13.66zM406.532 190.85l-.233-.135c-4.784-2.762-10.898-1.123-13.66 3.66s-1.123 10.899 3.66 13.661l.233.135a10 10 0 0 0 13.66-3.66c2.762-4.784 1.123-10.9-3.66-13.661z" fill="#000000" opacity="1" data-original="#000000" class=""/>
  </g>
</svg>