<svg xmlns="http://www.w3.org/2000/svg" version="1.1" xmlns:xlink="http://www.w3.org/1999/xlink" width="50" height="50" x="0" y="0" viewBox="0 0 512 512" style="enable-background:new 0 0 512 512" xml:space="preserve" class=""><g><path d="M137.835 504.5H13.555c-3.76 0-6.61-3.391-5.964-7.095l9.833-56.333c1.772-10.151 10.584-17.558 20.889-17.558h74.764c10.304 0 19.117 7.408 20.888 17.558l9.833 56.333c.647 3.704-2.203 7.095-5.963 7.095z" style="" fill="#FFE177" data-original="#ffe177" class=""></path><path d="m153.798 497.405-9.833-56.333c-1.772-10.151-10.584-17.558-20.888-17.558h-20c10.304 0 19.117 7.408 20.888 17.558l9.833 56.333c.646 3.704-2.204 7.095-5.964 7.095h20c3.761 0 6.611-3.391 5.964-7.095z" style="" fill="#FFC344" data-original="#ffc344"></path><path d="M80.695 454.328c-11.755 0-21.285-9.53-21.285-21.285v-58.745h42.57v58.745c0 11.755-9.529 21.285-21.285 21.285z" style="" fill="#F6A96C" data-original="#f6a96c"></path><path d="M80.695 413.269c-3.443 0-6.792.598-10.003-.163-19.057-4.514-33.235-21.639-33.235-42.075v-17.163c0-20.437 14.178-27.562 33.235-32.075 3.211-.76 6.56-10.163 10.003-10.163 23.88 0 42.238 18.358 42.238 42.238v17.163c0 23.88-18.358 42.238-42.238 42.238z" style="" fill="#FED2A4" data-original="#fed2a4"></path><path d="M80.695 320.63c-3.444 0-6.789.415-10 1.175 16.819 3.984 29.841 7.783 32.667 25.019a43.49 43.49 0 0 1 .571 7.044v17.163c0 20.436-14.182 37.549-33.238 42.063a43.302 43.302 0 0 0 10 1.175c23.88 0 43.238-19.358 43.238-43.238v-17.163a43.08 43.08 0 0 0-3.908-17.988c-6.825-14.9-21.869-15.25-39.33-15.25z" style="" fill="#FFBD86" data-original="#ffbd86"></path><path d="M112.856 335.871c-6.826-14.899-14.7-24.242-32.161-24.242-3.443 0-6.792-.598-10.003.163-19.057 4.513-33.235 21.638-33.235 42.075 0 0 25.405 15.519 65.9-7.043 5.301-2.953 3.704-6.573 9.499-10.953z" style="" fill="#A79BA7" data-original="#a79ba7"></path><path d="M80.695 310.63c-3.444 0-6.789.414-10 1.175 16.817 3.984 29.831 17.782 32.659 35.014 5.303-2.954 10.862-6.553 16.66-10.935-6.826-14.899-21.858-25.254-39.319-25.254z" style="" fill="#918291" data-original="#918291"></path><path d="M488.445 504.5h-124.28c-3.76 0-6.61-3.391-5.964-7.095l9.833-56.333c1.772-10.151 10.584-17.558 20.889-17.558h74.764c10.304 0 19.117 7.408 20.888 17.558l9.833 56.333c.647 3.704-2.204 7.095-5.963 7.095z" style="" fill="#CB97E7" data-original="#cb97e7"></path><path d="m504.408 497.405-9.833-56.333c-1.772-10.151-10.584-17.558-20.888-17.558h-20c10.304 0 19.117 7.408 20.888 17.558l9.833 56.333c.647 3.704-2.204 7.095-5.964 7.095h20c3.76 0 6.611-3.391 5.964-7.095z" style="" fill="#AF66DA" data-original="#af66da"></path><path d="M431.305 454.328c-11.755 0-21.285-9.53-21.285-21.285v-58.745h42.57v58.745c0 11.755-9.53 21.285-21.285 21.285z" style="" fill="#F6A96C" data-original="#f6a96c"></path><path d="M431.305 413.269c-3.443 0-6.792.598-10.003-.163-19.057-4.514-33.235-21.639-33.235-42.075v-17.163c0-20.437 14.178-27.562 33.235-32.075 3.211-.76 6.56-10.163 10.003-10.163 23.88 0 42.238 18.358 42.238 42.238v17.163c0 23.88-18.358 42.238-42.238 42.238z" style="" fill="#FED2A4" data-original="#fed2a4"></path><path d="M431.305 320.63c-3.444 0-6.789.415-10 1.175 16.819 3.984 29.841 7.783 32.667 25.019a43.49 43.49 0 0 1 .571 7.044v17.163c0 20.436-14.182 37.549-33.238 42.063a43.302 43.302 0 0 0 10 1.175c23.88 0 43.238-19.358 43.238-43.238v-17.163a43.08 43.08 0 0 0-3.908-17.988c-6.825-14.9-21.869-15.25-39.33-15.25z" style="" fill="#FFBD86" data-original="#ffbd86"></path><path d="M463.466 335.871c-6.826-14.899-14.7-24.242-32.161-24.242-3.443 0-6.792-.598-10.003.163-19.057 4.513-33.235 21.638-33.235 42.075 0 0 25.405 15.519 65.9-7.043 5.301-2.953 3.703-6.573 9.499-10.953z" style="" fill="#A79BA7" data-original="#a79ba7"></path><path d="M431.305 310.63c-3.444 0-6.789.414-10 1.175 16.817 3.984 29.831 17.782 32.659 35.014 5.303-2.954 10.862-6.553 16.66-10.935-6.826-14.899-21.858-25.254-39.319-25.254z" style="" fill="#918291" data-original="#918291"></path><path d="M137.835 201.37H13.555c-3.76 0-6.61-3.391-5.964-7.095l9.833-56.333c1.772-10.151 10.584-17.558 20.889-17.558h74.764c10.304 0 19.117 7.408 20.888 17.558l9.833 56.333c.647 3.704-2.203 7.095-5.963 7.095z" style="" fill="#FE73C5" data-original="#fe73c5"></path><path d="m153.798 194.276-9.833-56.333c-1.772-10.151-10.584-17.558-20.888-17.558h-20c10.304 0 19.117 7.407 20.888 17.558l9.833 56.333c.646 3.704-2.204 7.095-5.964 7.095h20c3.761-.001 6.611-3.392 5.964-7.095z" style="" fill="#FE2AA8" data-original="#fe2aa8"></path><path d="M80.695 151.198c-11.755 0-21.285-9.53-21.285-21.285V71.169h42.57v58.745c0 11.755-9.529 21.284-21.285 21.284z" style="" fill="#F6A96C" data-original="#f6a96c"></path><path d="M80.695 110.14c-3.443 0-6.792.598-10.003-.163-19.057-4.513-33.235-21.639-33.235-42.075V50.738c0-20.437 14.178-27.562 33.235-32.075 3.211-.76 6.56-10.163 10.003-10.163 23.88 0 42.238 18.358 42.238 42.238v17.163c0 23.88-18.358 42.239-42.238 42.239z" style="" fill="#FED2A4" data-original="#fed2a4"></path><path d="M80.695 17.5c-3.444 0-6.789.415-10 1.175 16.819 3.984 29.841 7.783 32.667 25.019a43.49 43.49 0 0 1 .571 7.044v17.163c0 20.436-14.182 37.549-33.238 42.063a43.302 43.302 0 0 0 10 1.175c23.88 0 43.238-19.359 43.238-43.238V50.738a43.08 43.08 0 0 0-3.908-17.988C113.2 17.85 98.156 17.5 80.695 17.5z" style="" fill="#FFBD86" data-original="#ffbd86"></path><path d="M112.856 32.742C106.03 17.842 98.156 8.5 80.695 8.5c-3.443 0-6.792-.598-10.003.163-19.057 4.514-33.235 21.639-33.235 42.075 0 0 25.405 15.519 65.9-7.043 5.301-2.954 3.704-6.574 9.499-10.953z" style="" fill="#A79BA7" data-original="#a79ba7"></path><path d="M80.695 7.5c-3.444 0-6.789.415-10 1.175 16.817 3.984 29.831 17.782 32.659 35.014 5.303-2.955 10.862-6.553 16.66-10.935C113.188 17.856 98.156 7.5 80.695 7.5z" style="" fill="#918291" data-original="#918291"></path><path d="M488.445 201.37h-124.28c-3.76 0-6.61-3.391-5.964-7.095l9.833-56.333c1.772-10.151 10.584-17.558 20.889-17.558h74.764c10.304 0 19.117 7.408 20.888 17.558l9.833 56.333c.647 3.704-2.204 7.095-5.963 7.095z" style="" fill="#62DBFB" data-original="#62dbfb"></path><path d="m504.408 194.276-9.833-56.333c-1.772-10.151-10.584-17.558-20.888-17.558h-20c10.304 0 19.117 7.407 20.888 17.558l9.833 56.333c.647 3.704-2.204 7.095-5.964 7.095h20c3.76-.001 6.611-3.392 5.964-7.095z" style="" fill="#01C0FA" data-original="#01c0fa"></path><path d="M431.305 151.198c-11.755 0-21.285-9.53-21.285-21.285V71.169h42.57v58.745c0 11.755-9.53 21.284-21.285 21.284z" style="" fill="#F6A96C" data-original="#f6a96c"></path><path d="M431.305 110.14c-3.443 0-6.792.598-10.003-.163-19.057-4.513-33.235-21.639-33.235-42.075V50.738c0-20.437 14.178-27.562 33.235-32.075 3.211-.76 6.56-10.163 10.003-10.163 23.88 0 42.238 18.358 42.238 42.238v17.163c0 23.88-18.358 42.239-42.238 42.239z" style="" fill="#FED2A4" data-original="#fed2a4"></path><path d="M431.305 17.5c-3.444 0-6.789.415-10 1.175 16.819 3.984 29.841 7.783 32.667 25.019a43.49 43.49 0 0 1 .571 7.044v17.163c0 20.436-14.182 37.549-33.238 42.063a43.302 43.302 0 0 0 10 1.175c23.88 0 43.238-19.359 43.238-43.238V50.738a43.08 43.08 0 0 0-3.908-17.988c-6.825-14.9-21.869-15.25-39.33-15.25z" style="" fill="#FFBD86" data-original="#ffbd86"></path><path d="M463.466 32.742c-6.826-14.9-14.7-24.242-32.161-24.242-3.443 0-6.792-.598-10.003.163-19.057 4.514-33.235 21.639-33.235 42.075 0 0 25.405 15.519 65.9-7.043 5.301-2.954 3.703-6.574 9.499-10.953z" style="" fill="#A79BA7" data-original="#a79ba7"></path><path d="M431.305 7.5c-3.444 0-6.789.415-10 1.175 16.817 3.984 29.831 17.782 32.659 35.014 5.303-2.955 10.862-6.553 16.66-10.935C463.798 17.856 448.766 7.5 431.305 7.5z" style="" fill="#918291" data-original="#918291"></path><path d="M319.815 240.216c0-40.671-22.893-72.66-63.528-72.815-5.201-.02-10.287-.491-15.202.531-32.808 6.824-57.995 35.659-58.876 70.364-.818 32.228 19.034 59.913 47.241 70.793a10.017 10.017 0 0 1 5.084 4.33l6.466 11.2 10.67 11.177c1.924 3.333 6.736 3.333 8.66 0l7.137-22.378a9.984 9.984 0 0 1 5.065-4.321c27.654-10.659 47.283-37.47 47.283-68.881z" style="" fill="#37BE75" data-original="#bbec6c" class="" opacity="1"></path><path d="M256.287 166.401a73.214 73.214 0 0 0-15.2 1.543c33.531 6.964 58.728 36.675 58.728 72.271 0 31.412-19.629 58.223-47.284 68.881a9.99 9.99 0 0 0-5.065 4.322L241 324.619l10.67 18.481c1.924 3.333 6.736 3.333 8.66 0l17.137-29.682a9.99 9.99 0 0 1 5.065-4.322c27.655-10.658 47.283-37.469 47.283-68.881 0-40.671-32.893-73.659-73.528-73.814z" style="" fill="#12B15B" data-original="#97d729" class="" opacity="1"></path><path d="M59.41 423.514H38.313c-10.304 0-19.117 7.408-20.889 17.558l-9.833 56.333c-.647 3.704 2.204 7.095 5.964 7.095h134.279c3.76 0 6.61-3.391 5.964-7.095l-9.833-56.333c-1.772-10.151-10.584-17.558-20.888-17.558H101.98" style="stroke-linecap: round; stroke-linejoin: round; stroke-miterlimit: 10;" fill="none" stroke="#000000" stroke-width="15px" stroke-linecap="round" stroke-linejoin="round" stroke-miterlimit="10" data-original="#000000" class=""></path><path d="M101.98 410.179v22.864c0 11.755-9.53 21.285-21.285 21.285h0c-11.755 0-21.285-9.53-21.285-21.285v-22.864M37.457 353.868s32.492 19.848 82.557-17.983" style="stroke-linecap: round; stroke-linejoin: round; stroke-miterlimit: 10;" fill="none" stroke="#000000" stroke-width="15px" stroke-linecap="round" stroke-linejoin="round" stroke-miterlimit="10" data-original="#000000" class=""></path><path d="M80.695 414.269h0c-23.88 0-43.238-19.358-43.238-43.238v-17.163c0-23.88 19.358-43.238 43.238-43.238h0c23.88 0 43.238 19.358 43.238 43.238v17.163c0 23.88-19.358 43.238-43.238 43.238zM410.02 423.514h-21.097c-10.304 0-19.117 7.408-20.889 17.558l-9.833 56.333c-.646 3.704 2.204 7.095 5.964 7.095h134.279c3.76 0 6.61-3.391 5.964-7.095l-9.833-56.333c-1.772-10.151-10.584-17.558-20.888-17.558H452.59" style="stroke-linecap: round; stroke-linejoin: round; stroke-miterlimit: 10;" fill="none" stroke="#000000" stroke-width="15px" stroke-linecap="round" stroke-linejoin="round" stroke-miterlimit="10" data-original="#000000" class=""></path><path d="M452.59 410.179v22.864c0 11.755-9.529 21.285-21.285 21.285h0c-11.755 0-21.285-9.53-21.285-21.285v-22.864M388.067 353.868s32.492 19.848 82.557-17.983" style="stroke-linecap: round; stroke-linejoin: round; stroke-miterlimit: 10;" fill="none" stroke="#000000" stroke-width="15px" stroke-linecap="round" stroke-linejoin="round" stroke-miterlimit="10" data-original="#000000" class=""></path><path d="M431.305 414.269h0c-23.88 0-43.238-19.358-43.238-43.238v-17.163c0-23.88 19.358-43.238 43.238-43.238h0c23.88 0 43.238 19.358 43.238 43.238v17.163c0 23.88-19.358 43.238-43.238 43.238zM59.41 120.384H38.313c-10.304 0-19.117 7.408-20.889 17.558l-9.833 56.333c-.647 3.704 2.204 7.095 5.964 7.095h134.279c3.76 0 6.61-3.391 5.964-7.095l-9.833-56.333c-1.772-10.151-10.584-17.558-20.888-17.558H101.98" style="stroke-linecap: round; stroke-linejoin: round; stroke-miterlimit: 10;" fill="none" stroke="#000000" stroke-width="15px" stroke-linecap="round" stroke-linejoin="round" stroke-miterlimit="10" data-original="#000000" class=""></path><path d="M101.98 107.049v22.864c0 11.755-9.53 21.285-21.285 21.285h0c-11.755 0-21.285-9.529-21.285-21.285v-22.864M37.457 50.738s32.492 19.848 82.557-17.983" style="stroke-linecap: round; stroke-linejoin: round; stroke-miterlimit: 10;" fill="none" stroke="#000000" stroke-width="15px" stroke-linecap="round" stroke-linejoin="round" stroke-miterlimit="10" data-original="#000000" class=""></path><path d="M80.695 111.14h0c-23.88 0-43.238-19.358-43.238-43.238V50.738c0-23.88 19.358-43.238 43.238-43.238h0c23.88 0 43.238 19.358 43.238 43.238v17.163c0 23.88-19.358 43.239-43.238 43.239zM452.59 107.049v22.864c0 11.755-9.529 21.285-21.285 21.285h0c-11.755 0-21.285-9.529-21.285-21.285v-22.864M388.067 50.738s32.492 19.848 82.557-17.983" style="stroke-linecap: round; stroke-linejoin: round; stroke-miterlimit: 10;" fill="none" stroke="#000000" stroke-width="15px" stroke-linecap="round" stroke-linejoin="round" stroke-miterlimit="10" data-original="#000000" class=""></path><path d="M431.305 111.14h0c-23.88 0-43.238-19.358-43.238-43.238V50.738c0-23.88 19.358-43.238 43.238-43.238h0c23.88 0 43.238 19.358 43.238 43.238v17.163c0 23.88-19.358 43.239-43.238 43.239zM183.848 255.865c5.281 24.451 22.684 44.385 45.602 53.225a10.017 10.017 0 0 1 5.084 4.33l17.136 29.68c1.924 3.333 6.736 3.333 8.66 0l17.137-29.682a9.984 9.984 0 0 1 5.065-4.321c27.655-10.658 47.284-37.469 47.284-68.881 0-40.671-32.893-73.66-73.528-73.815-34.928-.133-64.673 24.459-72.242 57.343M427.897 202.477c5.259 16.908 8.092 34.885 8.092 53.523 0 18.767-2.872 36.863-8.201 53.872M134.98 122.769C166.943 93.718 209.404 76.011 256 76.011c46.611 0 89.083 17.717 121.051 46.785M84.143 309.65c-5.284-16.945-8.131-34.965-8.131-53.65 0-18.642 2.834-36.622 8.095-53.533M239.3 435.224c-45.468-4.183-86.04-25.278-115.368-56.937M387.564 378.829c-29.186 31.248-69.373 52.089-114.389 56.35M494.575 137.942c-1.772-10.151-10.584-17.558-20.888-17.558H452.59M410.02 120.384h-21.097c-10.304 0-19.117 7.408-20.889 17.558l-9.833 56.333c-.646 3.704 2.204 7.095 5.964 7.095h134.279c3.76 0 6.61-3.391 5.964-7.095l-3.925-22.486M226.776 240.216h0M256 240.216h0M285.224 240.216h0" style="stroke-linecap: round; stroke-linejoin: round; stroke-miterlimit: 10;" fill="none" stroke="#000000" stroke-width="15px" stroke-linecap="round" stroke-linejoin="round" stroke-miterlimit="10" data-original="#000000" class=""></path></g></svg>