<svg xmlns="http://www.w3.org/2000/svg" version="1.1" xmlns:xlink="http://www.w3.org/1999/xlink" width="50" height="50" x="0" y="0" viewBox="0 0 512 512" style="enable-background:new 0 0 512 512" xml:space="preserve"><g><path fill-rule="evenodd" d="M502.638 450.357c-3.4 3.389-7.5 7.723-11.847 12.307-10.848 11.513-24.4 25.825-32.894 31.629-44.69 30.538-104.478 15.926-146.769-1.695-55.789-23.245-116.528-66.091-171.065-120.635C85.475 317.415 42.633 256.657 19.388 200.9c-17.6-42.3-32.243-102.1-1.7-146.8 5.8-8.5 20.145-22.031 31.643-32.9 4.6-4.334 8.9-8.429 12.3-11.818a32.212 32.212 0 0 1 45.441 0L189.3 91.586a32.213 32.213 0 0 1 0 45.431l-22.4 22.355a48.935 48.935 0 0 0-8.649 57.858 328.506 328.506 0 0 0 136.53 136.507 48.905 48.905 0 0 0 57.838-8.663l22.345-22.356a32.212 32.212 0 0 1 45.441 0l82.233 82.218a32.2 32.2 0 0 1 0 45.421z" fill="#000000" opacity="1" data-original="#000000"></path></g></svg>