<svg xmlns="http://www.w3.org/2000/svg" xmlns:xlink="http://www.w3.org/1999/xlink" version="1.1" width="50" height="50" x="0" y="0" viewBox="0 0 512 512" style="enable-background:new 0 0 512 512" xml:space="preserve" class="">
  <g>
    <path fill="#ECF4FF" d="M401.968 504.5H62.554c-8.926 0-16.163-7.236-16.163-16.163V23.663c0-8.926 7.236-16.163 16.163-16.163h339.415c8.926 0 16.163 7.236 16.163 16.163v464.675c-.001 8.926-7.237 16.162-16.164 16.162z" opacity="1" data-original="#ecf4ff"/>
    <path fill="#DDEAFB" d="M401.968 7.5h-20.203c8.926 0 16.163 7.236 16.163 16.163v464.675c0 8.926-7.236 16.163-16.163 16.163h20.203c8.926 0 16.163-7.236 16.163-16.163V23.663c0-8.927-7.236-16.163-16.163-16.163z" opacity="1" data-original="#ddeafb" class=""/>
    <path fill="#70E7A6" d="M172.373 173.167h-72.154c-7.97 0-14.431-6.461-14.431-14.431V86.581c0-7.97 6.461-14.431 14.431-14.431h72.154c7.97 0 14.431 6.461 14.431 14.431v72.154c0 7.971-6.461 14.432-14.431 14.432z" opacity="1" data-original="#b3e59f" class=""/>
    <path fill="#37BE75" d="M173.586 72.212c.152 2.004.23 4.029.23 6.072 0 43.636-35.374 79.009-79.009 79.009-3.051 0-6.059-.179-9.019-.515v1.959c0 7.97 6.461 14.431 14.431 14.431h72.154c7.97 0 14.431-6.461 14.431-14.431V86.581c0-7.56-5.817-13.752-13.218-14.369z" opacity="1" data-original="#95d6a4" class=""/>
    <path fill="#70E7A6" d="M172.373 306.508h-72.154c-7.97 0-14.431-6.461-14.431-14.431v-72.154c0-7.97 6.461-14.431 14.431-14.431h72.154c7.97 0 14.431 6.461 14.431 14.431v72.154c0 7.97-6.461 14.431-14.431 14.431z" opacity="1" data-original="#b3e59f" class=""/>
    <path fill="#37BE75" d="M173.586 205.553c.152 2.004.23 4.029.23 6.072 0 43.636-35.374 79.009-79.009 79.009-3.051 0-6.059-.179-9.019-.516v1.959c0 7.97 6.461 14.431 14.431 14.431h72.154c7.97 0 14.431-6.461 14.431-14.431v-72.154c0-7.561-5.817-13.752-13.218-14.37z" opacity="1" data-original="#95d6a4" class=""/>
    <path fill="#70E7A6" d="M172.373 439.85h-72.154c-7.97 0-14.431-6.461-14.431-14.431v-72.154c0-7.97 6.461-14.431 14.431-14.431h72.154c7.97 0 14.431 6.461 14.431 14.431v72.154c0 7.97-6.461 14.431-14.431 14.431z" opacity="1" data-original="#b3e59f" class=""/>
    <path fill="#37BE75" d="M173.586 338.895c.152 2.004.23 4.029.23 6.072 0 43.636-35.374 79.009-79.009 79.009-3.051 0-6.059-.179-9.019-.516v1.959c0 7.97 6.461 14.431 14.431 14.431h72.154c7.97 0 14.431-6.461 14.431-14.431v-72.154c0-7.561-5.817-13.753-13.218-14.37z" opacity="1" data-original="#95d6a4" class=""/>
    <path fill="#4A80AA" d="m323.571 496.293-18.902 8.207-2.343-20.473a40.409 40.409 0 0 1 5.151-24.798l123.138-213.282 34.993 20.203L342.47 479.433a40.408 40.408 0 0 1-18.899 16.86z" opacity="1" data-original="#4a80aa" class=""/>
    <path fill="#407093" d="M449.862 257.059 326.724 470.341a40.405 40.405 0 0 1-18.9 16.86l-4.892 2.124 1.737 15.175 18.902-8.207a40.41 40.41 0 0 0 18.9-16.86l123.138-213.282z" opacity="1" data-original="#407093" class=""/>
    <path fill="#FFE07D" d="m396.262 305.446 16.163-27.993 34.992 20.203-16.162 27.994z" opacity="1" data-original="#ffe07d" class=""/>
    <path fill="#FFD064" d="m415.508 316.559 16.163-27.994 15.746 9.092-16.162 27.993z" opacity="1" data-original="#ffd064" class=""/>
    <path d="M46.39 412.35a7.5 7.5 0 0 0 7.5-7.5V23.66c0-4.775 3.885-8.66 8.66-8.66h339.42c4.775 0 8.66 3.885 8.66 8.66v79.479c0 4.143 3.358 7.5 7.5 7.5s7.5-3.357 7.5-7.5V23.66C425.63 10.614 415.016 0 401.97 0H62.55C49.504 0 38.89 10.614 38.89 23.66v381.19a7.5 7.5 0 0 0 7.5 7.5z" fill="#000000" opacity="1" data-original="#000000" class=""/>
    <path d="M194.304 86.581c0-12.093-9.838-21.931-21.931-21.931h-72.155c-12.093 0-21.931 9.838-21.931 21.931v72.154c0 12.093 9.838 21.932 21.931 21.932h72.155c12.093 0 21.931-9.839 21.931-21.932zm-15 72.154c0 3.822-3.109 6.932-6.931 6.932h-72.155a6.939 6.939 0 0 1-6.931-6.932V86.581a6.94 6.94 0 0 1 6.931-6.931h72.155a6.939 6.939 0 0 1 6.931 6.931z" fill="#000000" opacity="1" data-original="#000000" class=""/>
    <path d="m151.196 104.56-20.288 20.288-7.492-7.492a7.5 7.5 0 1 0-10.606 10.605l12.795 12.796a7.497 7.497 0 0 0 10.606.001l25.591-25.591a7.5 7.5 0 0 0-10.606-10.607zM233.271 128.139H351.46c4.142 0 7.5-3.357 7.5-7.5s-3.358-7.5-7.5-7.5H233.271c-4.142 0-7.5 3.357-7.5 7.5s3.358 7.5 7.5 7.5zM378.735 80.813h-71.722c-4.142 0-7.5 3.357-7.5 7.5s3.358 7.5 7.5 7.5h71.722c4.142 0 7.5-3.357 7.5-7.5s-3.358-7.5-7.5-7.5zM233.271 95.813h38.386c4.142 0 7.5-3.357 7.5-7.5s-3.358-7.5-7.5-7.5h-38.386c-4.142 0-7.5 3.357-7.5 7.5s3.358 7.5 7.5 7.5zM278.728 145.464c-4.142 0-7.5 3.357-7.5 7.5s3.358 7.5 7.5 7.5h39.396c4.142 0 7.5-3.357 7.5-7.5s-3.358-7.5-7.5-7.5zM233.271 160.464h10.102c4.142 0 7.5-3.357 7.5-7.5s-3.358-7.5-7.5-7.5h-10.102c-4.142 0-7.5 3.357-7.5 7.5s3.358 7.5 7.5 7.5zM194.304 219.923c0-12.093-9.838-21.931-21.931-21.931h-72.155c-12.093 0-21.931 9.838-21.931 21.931v72.154c0 12.093 9.838 21.931 21.931 21.931h72.155c12.093 0 21.931-9.838 21.931-21.931zm-15 72.154a6.94 6.94 0 0 1-6.931 6.931h-72.155a6.939 6.939 0 0 1-6.931-6.931v-72.154a6.94 6.94 0 0 1 6.931-6.931h72.155a6.939 6.939 0 0 1 6.931 6.931z" fill="#000000" opacity="1" data-original="#000000" class=""/>
    <path d="m151.196 237.901-20.288 20.287-7.492-7.492a7.5 7.5 0 0 0-10.606.001 7.5 7.5 0 0 0 0 10.606l12.795 12.795c1.464 1.464 3.384 2.196 5.303 2.196s3.839-.732 5.303-2.196l25.591-25.59a7.501 7.501 0 0 0-10.606-10.607zM358.96 253.979a7.5 7.5 0 0 0-7.5-7.5H233.271c-4.142 0-7.5 3.357-7.5 7.5s3.358 7.5 7.5 7.5H351.46c4.143 0 7.5-3.357 7.5-7.5zM386.235 221.654a7.5 7.5 0 0 0-7.5-7.5h-71.722c-4.142 0-7.5 3.357-7.5 7.5s3.358 7.5 7.5 7.5h71.722a7.5 7.5 0 0 0 7.5-7.5zM233.271 229.154h38.386c4.142 0 7.5-3.357 7.5-7.5s-3.358-7.5-7.5-7.5h-38.386c-4.142 0-7.5 3.357-7.5 7.5s3.358 7.5 7.5 7.5zM325.625 286.305a7.5 7.5 0 0 0-7.5-7.5h-39.396c-4.142 0-7.5 3.357-7.5 7.5s3.358 7.5 7.5 7.5h39.396a7.5 7.5 0 0 0 7.5-7.5zM233.271 293.805h10.102c4.142 0 7.5-3.357 7.5-7.5s-3.358-7.5-7.5-7.5h-10.102c-4.142 0-7.5 3.357-7.5 7.5s3.358 7.5 7.5 7.5zM172.373 331.333h-72.155c-12.093 0-21.931 9.839-21.931 21.932v72.154c0 12.093 9.838 21.931 21.931 21.931h72.155c12.093 0 21.931-9.838 21.931-21.931v-72.154c0-12.093-9.838-21.932-21.931-21.932zm6.931 94.086a6.94 6.94 0 0 1-6.931 6.931h-72.155a6.939 6.939 0 0 1-6.931-6.931v-72.154c0-3.822 3.109-6.932 6.931-6.932h72.155a6.939 6.939 0 0 1 6.931 6.932z" fill="#000000" opacity="1" data-original="#000000" class=""/>
    <path d="m151.196 371.242-20.288 20.288-7.492-7.492a7.5 7.5 0 0 0-10.606.001 7.5 7.5 0 0 0 0 10.606l12.795 12.795c1.464 1.464 3.384 2.196 5.303 2.196s3.839-.732 5.303-2.196l25.591-25.591a7.5 7.5 0 0 0-10.606-10.607zM233.271 362.496h38.386c4.142 0 7.5-3.357 7.5-7.5s-3.358-7.5-7.5-7.5h-38.386c-4.142 0-7.5 3.357-7.5 7.5s3.358 7.5 7.5 7.5zM243.373 427.146c4.142 0 7.5-3.357 7.5-7.5s-3.358-7.5-7.5-7.5h-10.102c-4.142 0-7.5 3.357-7.5 7.5s3.358 7.5 7.5 7.5z" fill="#000000" opacity="1" data-original="#000000" class=""/>
    <path d="M472.854 264.209a7.5 7.5 0 0 0-3.495-4.554l-34.99-20.2a7.5 7.5 0 0 0-8.74.9V138.14c0-4.143-3.358-7.5-7.5-7.5s-7.5 3.357-7.5 7.5v127.434l-47.3 81.926H307.01c-4.142 0-7.5 3.357-7.5 7.5s3.358 7.5 7.5 7.5h47.659l-10 17.32H233.27c-4.142 0-7.5 3.357-7.5 7.5s3.358 7.5 7.5 7.5h102.738l-10.004 17.326h-47.276c-4.142 0-7.5 3.357-7.5 7.5s3.358 7.5 7.5 7.5h38.615l-16.359 28.334c-5.176 8.965-7.287 19.134-6.106 29.401L296.264 497H62.55c-4.775 0-8.66-3.885-8.66-8.66v-48.49c0-4.143-3.358-7.5-7.5-7.5s-7.5 3.357-7.5 7.5v48.49c0 13.046 10.614 23.66 23.66 23.66h339.42c13.046 0 23.66-10.614 23.66-23.66V350.4l46.475-80.5a7.496 7.496 0 0 0 .749-5.691zm-44.335 51.186-22-12.702 8.663-15.004 22 12.701zM410.63 488.34c0 4.775-3.885 8.66-8.66 8.66h-65.068c4.85-3.785 8.982-8.484 12.063-13.82l29.34-50.809a7.5 7.5 0 0 0-12.991-7.501l-29.34 50.81c-3.5 6.062-8.967 10.938-15.394 13.731l-9.61 4.175-1.19-10.412c-.811-7.054.64-14.036 4.194-20.193l85.044-147.297 22 12.702-38.205 66.175a7.5 7.5 0 0 0 12.99 7.5l14.825-25.678V488.34zm34.051-200.94-21.999-12.701 10.683-18.503 22 12.7z" fill="#000000" opacity="1" data-original="#000000" class=""/>
  </g>
</svg>