<svg xmlns="http://www.w3.org/2000/svg" version="1.1" xmlns:xlink="http://www.w3.org/1999/xlink" width="50" height="50" x="0" y="0" viewBox="0 0 64 64" style="enable-background:new 0 0 512 512" xml:space="preserve" class=""><g><g data-name="Layer 31"><path fill="#F8C460" d="m57.992 24.912-7.019 6.276-17.379 6.073a2.028 2.028 0 0 1-2.239-.656 25.738 25.738 0 0 1-5.906-16.192 2.022 2.022 0 0 1 1.342-1.959L44.132 12.4l9.412.3a2 2 0 0 1 1.817 1.315l3.178 8.731a2 2 0 0 1-.547 2.166z" opacity="1" data-original="#f8c460" class=""></path><path fill="#FAAF42" d="M26 21a3.017 3.017 0 0 0-.515.052 25.7 25.7 0 0 0 5.87 15.548 2.07 2.07 0 0 0 .741.553L29 24a3 3 0 0 0-3-3z" opacity="1" data-original="#faaf42" class=""></path><path fill="#FAAF42" d="m58.423 22.421-6.45 5.767-9.229 3.225a11.969 11.969 0 0 1-15.664-8.658 27.215 27.215 0 0 1-.564-4.152 2.014 2.014 0 0 0-1.067 1.81 25.749 25.749 0 0 0 5.96 16.258 1.979 1.979 0 0 0 2.185.59l17.379-6.073 7.019-6.276a2 2 0 0 0 .547-2.175z" opacity="1" data-original="#faaf42" class=""></path><path fill="#E6E6E6" d="m4.621 18.515-3.5 14.007a4.019 4.019 0 0 0-.119.97V45a2 2 0 0 0 2 2H17V19a2 2 0 0 0-2-2H6.562a2 2 0 0 0-1.941 1.515z" opacity="1" data-original="#e6e6e6" class=""></path><path fill="#CECECE" d="M17 44A13 13 0 0 1 4 31v-.508a4.019 4.019 0 0 1 .119-.97L7.25 17h-.688a2 2 0 0 0-1.941 1.515l-3.5 14.007a4.021 4.021 0 0 0-.121.971V45a2 2 0 0 0 2 2h14z" opacity="1" data-original="#cecece"></path><path fill="#A7D0E1" d="M13 23v2.636a4 4 0 0 1-3.315 3.94L1.5 31 4 21h7a2 2 0 0 1 2 2z" opacity="1" data-original="#a7d0e1"></path><path fill="#80BBCE" d="m9.685 27.576-2.281.4a2 2 0 0 1-2.283-2.455L6.25 21H4l-1.977 7.909L1.5 31l8.185-1.424A4 4 0 0 0 13 25.636v-2a4 4 0 0 1-3.315 3.94z" opacity="1" data-original="#80bbce"></path><path fill="#F8C460" d="M1 41h62v4a2 2 0 0 1-2 2H3a2 2 0 0 1-2-2v-4z" opacity="1" data-original="#f8c460" class=""></path><path fill="#FAAF42" d="M6 44a2 2 0 0 1-2-2v-1H1v4a2 2 0 0 0 2 2h58a2 2 0 0 0 2-2v-1z" opacity="1" data-original="#faaf42" class=""></path><circle cx="13" cy="47" r="6" fill="#7A838B" opacity="1" data-original="#7a838b" class=""></circle><path fill="#5D6972" d="M16 50a5.993 5.993 0 0 1-5.466-8.466 6 6 0 1 0 7.932 7.932A5.974 5.974 0 0 1 16 50z" opacity="1" data-original="#5d6972"></path><circle cx="53" cy="47" r="6" fill="#7A838B" opacity="1" data-original="#7a838b" class=""></circle><circle cx="37" cy="47" r="6" fill="#7A838B" opacity="1" data-original="#7a838b" class=""></circle><path fill="#5D6972" d="M40 50a5.993 5.993 0 0 1-5.466-8.466 6 6 0 1 0 7.932 7.932A5.974 5.974 0 0 1 40 50zM56 50a5.993 5.993 0 0 1-5.466-8.466 6 6 0 1 0 7.932 7.932A5.974 5.974 0 0 1 56 50z" opacity="1" data-original="#5d6972"></path><path fill="#E6E6E6" d="m45 41 14-14V13a2 2 0 0 1 2-2 2 2 0 0 1 2 2v16l-6 12z" opacity="1" data-original="#e6e6e6" class=""></path><path fill="#CECECE" d="M59 27 45 41h12l1.5-3h-2.672a2 2 0 0 1-1.414-3.414l5.465-5.465A1.242 1.242 0 0 0 59 27z" opacity="1" data-original="#cecece"></path><path fill="#E6E6E6" d="M27 24h-6v17h10z" opacity="1" data-original="#e6e6e6" class=""></path><path fill="#CECECE" d="M24 34V24h-3v17h10l-.706-3H28a4 4 0 0 1-4-4z" opacity="1" data-original="#cecece"></path><circle cx="24" cy="24" r="3" fill="#7A838B" opacity="1" data-original="#7a838b" class=""></circle><path fill="#5D6972" d="M24 21a3 3 0 1 0 3 3 3 3 0 0 1-3-3z" opacity="1" data-original="#5d6972"></path><g fill="#E6E6E6"><circle cx="13" cy="47" r="2" fill="#E6E6E6" opacity="1" data-original="#e6e6e6" class=""></circle><circle cx="37" cy="47" r="2" fill="#E6E6E6" opacity="1" data-original="#e6e6e6" class=""></circle><circle cx="53" cy="47" r="2" fill="#E6E6E6" opacity="1" data-original="#e6e6e6" class=""></circle></g><path d="M13 44a3 3 0 1 0 3 3 3 3 0 0 0-3-3zm0 4a1 1 0 1 1 1-1 1 1 0 0 1-1 1zM37 44a3 3 0 1 0 3 3 3 3 0 0 0-3-3zm0 4a1 1 0 1 1 1-1 1 1 0 0 1-1 1zM53 44a3 3 0 1 0 3 3 3 3 0 0 0-3-3zm0 4a1 1 0 1 1 1-1 1 1 0 0 1-1 1z" fill="#000000" opacity="1" data-original="#000000" class=""></path><path d="M64 29V13a3 3 0 0 0-6 0v5.334l-1.7-4.67a2.985 2.985 0 0 0-2.725-1.973l-9.411-.3a.876.876 0 0 0-.362.056L39.67 12.9a1 1 0 1 0 .66 1.887l3.957-1.387 9.225.29a1 1 0 0 1 .909.657L57.6 23.08a1 1 0 0 1-.273 1.087l-6.872 6.143-17.191 6.007a1.031 1.031 0 0 1-1.132-.342 27.008 27.008 0 0 1-1.888-2.629c-.006-.01-.017-.015-.023-.024L27.979 23.8a3.972 3.972 0 0 0-1.515-2.922c-.006-.159-.013-.318-.015-.478a1.024 1.024 0 0 1 .672-1l9.209-3.22a1 1 0 1 0-.66-1.888l-9.209 3.218a3.007 3.007 0 0 0-1.989 2.538A3.869 3.869 0 0 0 24 20a4 4 0 0 0-4 4v16h-2V19a3 3 0 0 0-3-3H6.562a3 3 0 0 0-2.911 2.272L.15 32.279A4.951 4.951 0 0 0 0 33.492V45a3 3 0 0 0 3 3h3.08a6.991 6.991 0 0 0 13.84 0h10.16a6.991 6.991 0 0 0 13.84 0h2.16a6.991 6.991 0 0 0 13.84 0H61a3 3 0 0 0 3-3v-4a1 1 0 0 0-1-1h-4.382L63.9 29.447A1 1 0 0 0 64 29zm-31.051 9.37a2.963 2.963 0 0 0 .975-.165L51.3 32.132a1 1 0 0 0 .336-.2L58 26.247v.339L44.586 40H31.792l-.505-2.148a3.039 3.039 0 0 0 1.662.518zM46.08 46h-2.16a6.98 6.98 0 0 0-2.03-4h6.22a6.98 6.98 0 0 0-2.03 4zm-16 0H19.92a6.98 6.98 0 0 0-2.03-4h14.22a6.98 6.98 0 0 0-2.03 4zM24 22a2 2 0 1 1-2 2 2 2 0 0 1 2-2zm-2 5.444a3.913 3.913 0 0 0 4.669-.486L29.737 40H22zM2.09 32.765 4.781 22H11a1 1 0 0 1 1 1v2.636a2.993 2.993 0 0 1-2.486 2.955l-4.685.815a1 1 0 1 0 .342 1.97l4.686-.814A4.991 4.991 0 0 0 14 25.636V23a3 3 0 0 0-3-3H5.281l.31-1.242A1 1 0 0 1 6.562 18H15a1 1 0 0 1 1 1v21H2v-6.508a2.967 2.967 0 0 1 .09-.727zM2 45v-3h6.11a6.98 6.98 0 0 0-2.03 4H3a1 1 0 0 1-1-1zm11 7a5 5 0 1 1 5-5 5.006 5.006 0 0 1-5 5zm24 0a5 5 0 1 1 5-5 5.006 5.006 0 0 1-5 5zm16 0a5 5 0 1 1 5-5 5.006 5.006 0 0 1-5 5zm9-7a1 1 0 0 1-1 1h-1.08a6.98 6.98 0 0 0-2.03-4H62zm0-16.236L56.382 40h-8.968l12.293-12.293A1 1 0 0 0 60 27V13a1 1 0 0 1 2 0z" fill="#000000" opacity="1" data-original="#000000" class=""></path><path d="M13 35a1 1 0 0 0 1-1v-2a1 1 0 0 0-2 0v2a1 1 0 0 0 1 1z" fill="#000000" opacity="1" data-original="#000000" class=""></path><path fill="#FFFFFF" d="M50 15.58h-.031l-3-.1a1 1 0 1 1 .062-2l3 .095a1 1 0 0 1-.031 2z" opacity="1" data-original="#ffffff"></path></g></g></svg>